<?xml version="1.0" standalone="no"?>
<!DOCTYPE svg PUBLIC "-//W3C//DTD SVG 20010904//EN"
 "http://www.w3.org/TR/2001/REC-SVG-20010904/DTD/svg10.dtd">
<svg version="1.0" xmlns="http://www.w3.org/2000/svg"
 width="260.000000pt" height="260.000000pt" viewBox="0 0 260.000000 260.000000"
 preserveAspectRatio="xMidYMid meet">
<metadata>
Created by potrace 1.14, written by Peter Selinger 2001-2017
</metadata>
<g transform="translate(0.000000,260.000000) scale(0.100000,-0.100000)"
fill="#000000" stroke="none">
<path d="M596 2493 c-6 -25 -11 -28 -52 -29 -25 -1 -51 -7 -57 -13 -7 -7 -16
-2 -29 19 -10 17 -22 30 -28 30 -13 0 -13 -26 1 -48 9 -15 4 -25 -29 -61 -40
-42 -42 -43 -65 -28 -15 10 -29 12 -38 6 -11 -7 -8 -13 15 -32 l29 -24 -28
-51 c-23 -43 -31 -50 -46 -42 -26 15 -49 12 -49 -5 0 -9 12 -18 30 -22 22 -4
29 -10 26 -22 -3 -9 -10 -35 -16 -58 -10 -40 -13 -43 -43 -40 -41 3 -46 -26
-4 -31 29 -4 30 -5 27 -72 -2 -52 -1 -49 -29 -55 -11 -2 -26 -7 -32 -11 -16
-9 11 -25 32 -19 22 7 36 -12 42 -56 2 -20 7 -41 11 -47 3 -5 -8 -15 -24 -22
-47 -20 -34 -49 14 -30 24 9 27 6 49 -43 l25 -52 -26 -22 c-31 -26 -23 -41 14
-24 15 6 28 10 29 9 2 -2 19 -22 39 -46 34 -41 35 -45 20 -67 -21 -32 2 -47
27 -16 16 19 21 21 41 10 13 -7 39 -15 58 -18 26 -5 36 -12 40 -31 8 -35 36
-33 32 2 -3 24 3 29 47 49 28 12 51 26 51 31 0 6 12 3 26 -7 20 -13 29 -14 38
-5 8 9 6 16 -10 29 -19 15 -20 20 -8 42 7 13 16 41 19 62 4 20 12 37 18 36 30
-4 48 2 44 14 -2 6 -15 12 -28 12 -19 -1 -29 10 -50 55 l-26 55 23 24 c31 31
20 46 -16 24 -34 -20 -37 -18 -55 34 -15 45 -12 53 20 53 13 0 26 4 30 9 8 13
-24 29 -46 24 -23 -6 -23 -9 -3 56 15 51 16 52 34 36 12 -11 26 -15 37 -10 16
6 15 9 -8 27 l-26 20 26 54 c21 45 30 54 48 51 12 -2 27 -1 34 3 17 11 2 30
-24 30 -19 0 -24 10 -37 65 -16 64 -16 64 7 76 13 7 23 16 23 20 0 17 -21 19
-43 4 -21 -14 -25 -13 -44 4 -11 10 -33 26 -50 34 -25 13 -29 20 -25 46 6 41
-24 43 -32 4z m41 -76 c71 -37 110 -110 98 -185 -3 -20 -23 -64 -44 -97 -51
-78 -64 -124 -58 -194 5 -59 22 -103 62 -157 89 -118 25 -276 -117 -291 -96
-10 -172 49 -236 182 -67 136 -86 298 -50 430 39 146 129 289 203 320 36 16
102 12 142 -8z"/>
<path d="M453 2059 c-58 -21 -46 -102 17 -114 31 -6 73 38 64 68 -13 44 -42
61 -81 46z m47 -54 c0 -20 -5 -25 -24 -25 -27 0 -40 22 -23 39 21 21 47 13 47
-14z"/>
<path d="M474 1828 c-46 -22 -58 -101 -21 -135 49 -45 114 -36 143 19 40 77
-42 155 -122 116z m81 -42 c28 -28 24 -60 -11 -82 -18 -13 -27 -13 -46 -3 -43
23 -50 57 -18 89 26 26 46 25 75 -4z"/>
<path d="M1138 2297 c-48 -56 -84 -104 -80 -108 4 -4 65 -18 135 -32 112 -21
127 -22 121 -8 -3 9 -12 34 -19 57 l-13 41 46 12 c26 6 57 14 70 16 12 3 30 7
41 9 164 37 353 25 466 -30 81 -39 181 -139 227 -229 68 -130 111 -323 123
-545 8 -135 9 -140 33 -140 15 0 18 7 16 38 -16 257 -17 269 -44 402 -32 159
-101 310 -183 400 -149 166 -410 211 -733 126 -34 -9 -66 -16 -71 -16 -5 0
-17 25 -27 55 -9 30 -18 55 -19 54 -1 0 -41 -46 -89 -102z"/>
<path d="M1067 1852 c-56 -58 -88 -189 -64 -259 11 -32 11 -40 1 -36 -33 13
-70 -42 -88 -133 -3 -10 -9 -39 -15 -64 -5 -25 -12 -56 -14 -70 -3 -14 -22
-88 -42 -165 -70 -262 -79 -311 -61 -318 23 -9 34 7 41 58 4 28 18 89 31 136
13 48 31 113 40 145 8 33 28 117 44 187 15 71 35 136 43 145 15 14 17 13 27
-12 5 -15 10 -37 11 -49 1 -12 5 -33 9 -47 9 -25 8 -12 -4 118 -5 49 1 51 74
25 43 -15 57 -16 127 -4 43 7 84 18 91 23 10 9 11 -5 7 -68 -3 -43 -7 -85 -10
-94 -6 -20 -11 -48 -41 -230 -14 -85 -28 -157 -31 -160 -4 -4 3 68 12 120 4
24 14 92 20 135 3 22 12 83 19 135 14 92 14 96 -5 112 -11 9 -30 15 -42 12
-31 -6 -128 -7 -154 0 -30 7 -52 -17 -48 -51 1 -16 6 -57 10 -93 3 -36 20
-116 36 -179 17 -62 28 -115 26 -118 -4 -3 -13 23 -22 57 -27 117 -49 190 -57
190 -5 0 -6 -5 -2 -11 4 -7 15 -53 25 -103 10 -50 22 -103 27 -116 5 -14 10
-28 11 -33 6 -47 33 -111 57 -135 20 -19 69 -12 68 10 -1 10 3 16 9 15 14 -3
33 53 41 118 3 28 8 62 11 78 3 15 7 37 9 50 2 12 7 38 11 57 12 67 13 75 14
95 2 22 69 62 81 48 15 -16 89 -339 115 -503 9 -57 21 -80 42 -80 13 0 14 8 9
48 -13 101 -41 242 -68 347 -11 44 -24 127 -27 185 -5 68 -13 118 -25 142 -19
39 -55 68 -87 71 -10 1 -19 2 -19 3 0 1 9 23 20 48 10 25 20 63 21 85 3 41
-16 76 -34 64 -6 -3 -7 -1 -3 5 4 6 -2 20 -13 31 -17 17 -25 18 -56 10 -32 -9
-40 -8 -59 10 -50 47 -111 53 -149 13z m174 -73 c-20 -8 -23 -6 -15 14 4 13 9
14 19 4 11 -10 10 -13 -4 -18z m-113 -764 c-3 -3 -9 2 -12 12 -6 14 -5 15 5 6
7 -7 10 -15 7 -18z m9 -37 c-3 -8 -6 -5 -6 6 -1 11 2 17 5 13 3 -3 4 -12 1
-19z"/>
<path d="M1030 1326 c0 -9 5 -16 10 -16 6 0 10 4 10 9 0 6 -4 13 -10 16 -5 3
-10 -1 -10 -9z"/>
<path d="M245 1203 c2 -27 6 -93 10 -148 3 -54 8 -101 10 -105 1 -3 6 -27 9
-55 4 -27 12 -70 17 -95 82 -370 280 -551 604 -552 100 -1 247 20 338 47 48
14 48 14 57 -11 6 -14 10 -27 10 -29 0 -2 5 -16 10 -31 l11 -28 22 25 c12 13
53 60 91 103 76 88 76 88 -16 101 -24 3 -74 13 -111 22 -38 8 -70 13 -72 11
-2 -2 5 -27 15 -55 l18 -52 -51 -15 c-126 -35 -204 -46 -314 -47 -289 -1 -474
155 -557 471 -26 95 -29 113 -41 225 -4 33 -8 74 -10 90 -2 17 -4 63 -4 103
-1 69 -2 72 -25 72 -23 0 -24 -3 -21 -47z"/>
<path d="M1723 1228 c1 -15 6 -23 11 -18 4 4 4 16 -2 26 -9 16 -10 14 -9 -8z"/>
<path d="M1725 1170 c2 -27 10 -33 12 -10 1 11 -2 22 -6 24 -4 3 -7 -4 -6 -14z"/>
<path d="M1667 1119 c7 -7 15 -10 18 -7 3 3 -2 9 -12 12 -14 6 -15 5 -6 -5z"/>
<path d="M1715 1121 c-3 -5 -2 -12 3 -15 5 -3 9 1 9 9 0 17 -3 19 -12 6z"/>
<path d="M1785 1121 c-3 -5 -2 -12 3 -15 5 -3 9 1 9 9 0 17 -3 19 -12 6z"/>
<path d="M1748 1113 c7 -3 16 -2 19 1 4 3 -2 6 -13 5 -11 0 -14 -3 -6 -6z"/>
<path d="M1723 1075 c0 -8 4 -12 9 -9 5 3 6 10 3 15 -9 13 -12 11 -12 -6z"/>
<path d="M1726 1034 c-6 -14 9 -54 20 -54 2 0 0 9 -6 19 -5 11 -7 27 -4 35 3
9 4 16 1 16 -3 0 -8 -7 -11 -16z"/>
<path d="M1908 986 c-36 -13 -80 -33 -97 -45 -32 -23 -34 -22 -31 17 1 12 -3
22 -9 22 -11 0 -15 -17 -12 -55 1 -11 -12 -34 -29 -50 l-30 -29 0 46 c0 36 4
48 18 51 16 4 16 5 0 6 -10 0 -18 8 -18 16 0 8 -4 15 -8 15 -5 0 -8 -33 -7
-72 2 -63 -1 -81 -26 -130 -46 -90 -61 -147 -65 -234 -11 -269 194 -488 465
-498 373 -14 602 364 423 698 -34 65 -142 174 -208 208 -114 61 -250 74 -366
34z m243 -1 c73 -16 164 -69 230 -134 300 -300 113 -794 -302 -792 -266 1
-472 206 -471 468 0 83 8 119 44 205 20 46 41 58 33 18 -2 -11 0 -20 6 -20 5
0 9 19 9 43 0 33 7 51 30 77 l29 35 1 -77 c0 -43 4 -78 8 -78 4 0 7 33 7 73
-1 39 1 79 3 89 5 21 104 74 173 91 55 14 138 15 200 2z"/>
<path d="M2055 786 c-106 -33 -183 -103 -206 -189 -5 -21 -13 -45 -16 -53 -3
-8 -1 -14 4 -14 4 0 14 23 20 51 24 98 112 176 227 199 127 26 245 -39 303
-168 59 -126 -6 -290 -140 -359 -93 -47 -232 -29 -305 40 -41 38 -80 102 -88
143 -3 21 -8 47 -10 58 -7 41 -14 26 -8 -20 29 -261 364 -353 519 -143 52 70
69 130 62 209 -15 172 -199 296 -362 246z"/>
</g>
</svg>
