<?xml version="1.0" encoding="utf-8"?>
<!-- Generator: Adobe Illustrator 26.2.1, SVG Export Plug-In . SVG Version: 6.00 Build 0)  -->
<svg version="1.1" id="Layer_1" xmlns="http://www.w3.org/2000/svg" xmlns:xlink="http://www.w3.org/1999/xlink" x="0px" y="0px"
	 viewBox="0 0 400 400" style="enable-background:new 0 0 400 400;" xml:space="preserve">
<style type="text/css">
	.st0{fill:#45C6F2;}
</style>
<g>
	<path d="M81.6,200.4l7.5-23.6h0.1l7.3,23.6H81.6z M86.1,170.6l-15.9,47.3h6l3.8-12.3h18l3.8,12.3h6.2l-15.5-47.3H86.1z"/>
	<path d="M137.6,189.6c0-2.1,0.2-4.3,0.3-6.3h-5.5l-0.2,5h-0.1c-1.9-3.3-5-5.5-8.5-5.5c-7.7,0-12.5,5.8-12.5,17.8
		c0,11.9,4.8,17.8,11.9,17.8c3.8,0,6.8-1.9,9.1-5.8h0.1v5.4c0,6-2.7,10.1-9.7,10.1c-3.1,0-7.1-1.4-9.5-3l-0.3,5.8
		c2.5,1,7.2,2.1,10.1,2.1c7.6,0,14.8-4,14.8-13.6V189.6z M116.8,200.6c0-8.7,2.4-13.1,7.6-13.1c5.2,0,7.6,4.5,7.6,13.1
		c0,8.7-2.4,13.2-7.6,13.2C119.1,213.8,116.8,209.3,116.8,200.6"/>
	<path d="M145.6,175.9h6.2v-6.8h-6.2V175.9z M145.9,217.9h5.7v-34.6h-5.7V217.9z"/>
	<path d="M160.4,217.9h5.7v-20.8c0-6.2,2.8-9.4,7.3-9.4c3.7,0,5.7,2.4,5.7,7.9v22.3h5.7v-24c0-7.6-4.1-11-10.1-11
		c-4,0-6.9,1.7-8.7,5.6h-0.1l-0.2-5.2h-5.5c0.1,2.4,0.3,4.9,0.3,7.5V217.9z"/>
	<path d="M218,189.6c0-2.1,0.2-4.3,0.3-6.3h-5.5l-0.2,5h-0.1c-1.9-3.3-5-5.5-8.5-5.5c-7.7,0-12.5,5.8-12.5,17.8
		c0,11.9,4.8,17.8,11.9,17.8c3.8,0,6.8-1.9,9.1-5.8h0.1v5.4c0,6-2.7,10.1-9.7,10.1c-3.1,0-7.1-1.4-9.5-3l-0.3,5.8
		c2.5,1,7.2,2.1,10.1,2.1c7.6,0,14.8-4,14.8-13.6V189.6z M197.1,200.6c0-8.7,2.4-13.1,7.6-13.1c5.2,0,7.6,4.5,7.6,13.1
		c0,8.7-2.4,13.2-7.6,13.2C199.5,213.8,197.1,209.3,197.1,200.6"/>
	<path class="st0" d="M271,211c-2.4,1.4-5.4,2.2-8.5,2.2c-10.3,0-15.2-8.1-15.2-20.3c0-11.5,7-17.7,14.8-17.7c3.3,0,6.3,0.7,8.9,2.4
		v-5.8c-2.2-1.1-5.6-1.7-8.9-1.7c-12.3,0-20.9,9.3-20.9,24.1c0,12.8,6.3,24.2,21.3,24.2c2.8,0,5.8-0.5,8.6-1.4V211z"/>
	<path class="st0" d="M282.6,198c0.1-8.1,3.4-10.8,7-10.8c4.5,0,6.8,3.6,6.8,10.8H282.6z M302.2,202.3v-3c0-10.2-4.3-16.4-12.1-16.4
		c-8.6,0-13.4,6.9-13.4,17.8c0,10.8,4.7,17.8,13.9,17.8c3.5,0,7-0.7,9.7-2l-0.3-5.2c-2,1.4-5.1,2.8-7.9,2.8c-6.3,0-9.4-3.7-9.4-11.7
		H302.2z"/>
	<rect x="309" y="167.1" class="st0" width="5.7" height="50.8"/>
	<rect x="324" y="167.1" class="st0" width="5.7" height="50.8"/>
</g>
</svg>
