<?xml version="1.0" encoding="utf-8"?>
<!-- Generator: Adobe Illustrator 26.2.1, SVG Export Plug-In . SVG Version: 6.00 Build 0)  -->
<svg version="1.1" id="Layer_1" xmlns="http://www.w3.org/2000/svg" xmlns:xlink="http://www.w3.org/1999/xlink" x="0px" y="0px"
	 viewBox="0 0 400 400" style="enable-background:new 0 0 400 400;" xml:space="preserve">
<style type="text/css">
	.st0{fill:#45C6F2;}
</style>
<g>
	<path d="M26.7,200.5l11-34.6h0.1l10.7,34.6H26.7z M33.3,156.9L10,226.1h8.8l5.6-18h26.4l5.6,18h9.1l-22.7-69.3H33.3z"/>
	<path d="M108.7,184.7c0-3.1,0.3-6.3,0.4-9.2h-8.1l-0.3,7.3h-0.1c-2.8-4.8-7.3-8.1-12.4-8.1c-11.3,0-18.3,8.5-18.3,26.1
		c0,17.4,7,26.1,17.4,26.1c5.6,0,10-2.8,13.3-8.5h0.1v7.9c0,8.8-4,14.8-14.2,14.8c-4.5,0-10.4-2.1-13.9-4.4l-0.4,8.5
		c3.7,1.5,10.5,3.1,14.8,3.1c11.1,0,21.7-5.9,21.7-19.9V184.7z M78.2,200.8c0-12.7,3.5-19.2,11.1-19.2c7.6,0,11.1,6.6,11.1,19.2
		c0,12.7-3.5,19.3-11.1,19.3C81.6,220.1,78.2,213.5,78.2,200.8"/>
	<path d="M120.4,164.6h9.1v-10h-9.1V164.6z M120.9,226.1h8.3v-50.7h-8.3V226.1z"/>
	<path d="M142.1,226.1h8.3v-30.5c0-9.1,4.1-13.8,10.7-13.8c5.4,0,8.3,3.5,8.3,11.6v32.7h8.3V191c0-11.1-6-16.1-14.8-16.1
		c-5.9,0-10.1,2.5-12.7,8.2h-0.1l-0.3-7.6h-8.1c0.1,3.5,0.4,7.2,0.4,11v39.7H142.1z"/>
	<path d="M226.4,184.7c0-3.1,0.3-6.3,0.4-9.2h-8.1l-0.3,7.3h-0.1c-2.8-4.8-7.3-8.1-12.4-8.1c-11.3,0-18.3,8.5-18.3,26.1
		c0,17.4,7,26.1,17.4,26.1c5.6,0,10-2.8,13.3-8.5h0.1v7.9c0,8.8-4,14.8-14.2,14.8c-4.5,0-10.4-2.1-13.9-4.4l-0.4,8.5
		c3.7,1.5,10.5,3.1,14.8,3.1c11.1,0,21.7-5.9,21.7-19.9L226.4,184.7L226.4,184.7z M195.8,200.8c0-12.7,3.5-19.2,11.1-19.2
		c7.6,0,11.1,6.6,11.1,19.2c0,12.7-3.5,19.3-11.1,19.3C199.3,220.1,195.8,213.5,195.8,200.8"/>
	<path class="st0" d="M304,216c-3.5,2.1-7.9,3.2-12.4,3.2c-15.1,0-22.3-11.9-22.3-29.7c0-16.8,10.3-25.9,21.7-25.9
		c4.8,0,9.2,1,13,3.5v-8.5c-3.2-1.6-8.2-2.5-13-2.5c-18,0-30.6,13.6-30.6,35.3c0,18.7,9.2,35.4,31.2,35.4c4.1,0,8.5-0.7,12.6-2.1
		V216H304z"/>
	<path class="st0" d="M321,197c0.1-11.9,5-15.8,10.3-15.8c6.6,0,10,5.3,10,15.8H321z M349.7,203.3v-4.4c0-14.9-6.3-24-17.7-24
		c-12.6,0-19.6,10.1-19.6,26.1c0,15.8,6.9,26.1,20.4,26.1c5.1,0,10.3-1,14.2-2.9l-0.4-7.6c-2.9,2.1-7.5,4.1-11.6,4.1
		c-9.2,0-13.8-5.4-13.8-17.1h28.6V203.3z"/>
	<rect x="359.7" y="151.7" class="st0" width="8.3" height="74.4"/>
	<rect x="381.7" y="151.7" class="st0" width="8.3" height="74.4"/>
</g>
</svg>
