<?xml version="1.0" encoding="utf-8"?>
<!-- Generator: Adobe Illustrator 26.2.1, SVG Export Plug-In . SVG Version: 6.00 Build 0)  -->
<svg version="1.1" id="Layer_1" xmlns="http://www.w3.org/2000/svg" xmlns:xlink="http://www.w3.org/1999/xlink" x="0px" y="0px"
	 viewBox="0 0 400 400" style="enable-background:new 0 0 400 400;" xml:space="preserve">
<style type="text/css">
	.st0{fill:#231F20;}
</style>
<g>
	<polyline class="st0" points="10,149.7 23,149.7 23,151.6 17.5,151.6 17.5,173.3 15.4,173.3 15.4,151.6 10,151.6 10,149.7 	"/>
	<path class="st0" d="M24.6,148h1.9v10.7l0,0c0.3-0.7,1.5-2.8,4.2-2.8c4.8,0,4.8,4.8,4.8,5.9v11.6h-1.9v-11.6c0-1.2,0-4-3.2-4
		c-2.3,0-4,2.2-4,5v10.7h-1.9L24.6,148"/>
	<path class="st0" d="M41.6,165.4c0,6.4,4.1,6.4,4.8,6.4c1.2,0,2.8-0.6,3.7-1.5l0.1,2.2c-0.9,0.4-1.9,1-4,1c-6.7,0-6.7-7.2-6.7-8.9
		c0-6.4,3.2-8.8,6.2-8.8c5,0,5.6,5.3,5.6,9.5L41.6,165.4 M49,163.5c0-4.5-1.9-5.9-3.5-5.9c-2.6,0-4,3.7-4,5.9H49z"/>
	<path class="st0" d="M67,149.7h2.2l7.9,23.6h-2.2l-2.1-6.4h-9.4l-2.2,6.4h-2.1L67,149.7 M64.1,164.8h8.2l-4-12.9l0,0L64.1,164.8z"
		/>
	<path class="st0" d="M79.9,161.4c0-1.8-0.1-3.5-0.1-5.4h1.8c0,0.7,0.1,1.3,0.1,2.5l0,0c0.6-1.3,1.8-2.8,4-2.8c2.8,0,3.5,1.8,4,2.8
		c0.4-0.9,1.8-2.8,4.2-2.8c3.5,0,4.4,2.9,4.4,5.6v11.9h-1.9v-11.6c0-1.2,0-4.1-2.8-4.1c-2.5,0-3.5,2.2-3.5,4.5v11.1h-1.9v-12
		c0-2.2-1-3.7-2.6-3.7c-2.2,0-3.8,2.2-3.8,5v10.7h-1.8V161.4"/>
	<path class="st0" d="M104.2,165.4c0,6.4,4.1,6.4,4.8,6.4c1.2,0,2.8-0.6,3.7-1.5l0.1,2.2c-0.9,0.4-1.9,1-4,1c-6.7,0-6.7-7.2-6.7-8.9
		c0-6.4,3.2-8.8,6.2-8.8c5,0,5.6,5.3,5.6,9.5L104.2,165.4 M111.7,163.5c0-4.5-1.9-5.9-3.5-5.9c-2.6,0-4,3.7-4,5.9H111.7z"/>
	<path class="st0" d="M117.5,161.4c0-1.8-0.1-3.5-0.1-5.4h1.8c0,1,0.1,2.1,0.1,2.8l0,0c1.3-2.5,2.6-2.9,4.5-2.9v2.1
		c-3.1,0-4.5,1.3-4.5,4.5v10.8h-1.9v-11.9"/>
	<path class="st0" d="M126.9,149.1h2.3v3.1h-2.3V149.1z M127,156h1.9v17.3H127V156z"/>
	<path class="st0" d="M143.2,158.7c-0.7-0.6-2.1-0.9-3.1-0.9c-2.6,0-5,1.8-5,6.4c0,6.3,3.5,7.5,5.4,7.5c0.7,0,2.3-0.3,2.9-0.9
		l0.1,2.2c-0.9,0.4-2.2,0.6-3.4,0.6c-3.7,0-7.2-2.8-7.2-8.8c0-5.3,2.3-8.9,7.2-8.9c1.3,0,2.3,0.3,3.2,0.6L143.2,158.7"/>
	<path class="st0" d="M156.8,169.5c0,1.3,0.1,2.6,0.1,3.8h-1.8l-0.1-2.5l0,0c-1.2,1.9-2.6,2.6-4.8,2.6c-2.6,0-4.8-2.2-4.8-5
		c0-5.6,5.9-5.6,8.4-5.6h1.3c0-2.2,0-5.3-3.5-5.3c-2.3,0-4.1,1.6-4.4,1.8l-0.3-2.1c1.6-0.9,2.8-1.5,4.7-1.5c5.3,0,5.3,4.4,5.3,5.7
		V169.5 M155,164.7c-4.1,0-7.5,0-7.5,4c0,1.5,1,3.2,3.2,3.2c0.9,0,4.2-0.4,4.2-5.1L155,164.7L155,164.7z"/>
	<path class="st0" d="M161.3,161.4c0-1.8-0.1-3.5-0.1-5.4h1.8c0,0.7,0.1,1.3,0.1,2.5l0,0c0.4-0.7,1.5-2.8,4.4-2.8
		c4.8,0,4.8,4.8,4.8,5.9v11.6h-1.9v-11.6c0-1.2,0-4.1-3.2-4.1c-2.3,0-4,2.2-4,5v10.7h-1.9V161.4"/>
	<path class="st0" d="M183.6,171.1c0.4,0.1,0.9,0.4,1.6,0.4c2.8,0,2.9-2.5,2.9-4.7v-17h2.1V167c0,3.5-0.6,6.7-5,6.7
		c-0.6,0-1.2-0.1-1.6-0.3V171.1"/>
	<path class="st0" d="M194.3,164.7c0-4.4,1.5-8.9,6.4-8.9s6.4,4.5,6.4,8.9s-1.5,8.8-6.4,8.8C195.6,173.6,194.3,169.1,194.3,164.7
		 M205,164.7c0-1.3,0-7-4.4-7s-4.4,5.7-4.4,7c0,1.3,0,7,4.4,7S205,166.1,205,164.7z"/>
	<path class="st0" d="M222,168c0,1.8,0.1,3.5,0.1,5.4h-1.8c0-0.7-0.1-1.3-0.1-2.5l0,0c-0.1,0.7-1.5,2.8-4.4,2.8
		c-3.8,0-4.8-2.6-4.8-5.4V156h1.9v11.6c0,1.2,0,4,3.2,4c2.3,0,4-2.2,4-5V156h1.9V168"/>
	<path class="st0" d="M226.5,161.4c0-1.8-0.1-3.5-0.1-5.4h1.8c0,1,0.1,2.1,0.1,2.8l0,0c1.3-2.5,2.8-2.9,4.5-2.9v2.1
		c-3.1,0-4.5,1.3-4.5,4.5v10.8h-1.9v-11.9"/>
	<path class="st0" d="M235.9,161.4c0-1.8-0.1-3.5-0.1-5.4h1.8c0,0.7,0.1,1.3,0.1,2.5l0,0c0.4-0.7,1.5-2.8,4.4-2.8
		c4.8,0,4.8,4.8,4.8,5.9v11.6H245v-11.6c0-1.2,0-4.1-3.2-4.1c-2.3,0-4,2.2-4,5v10.7h-1.9V161.4"/>
	<path class="st0" d="M262.1,169.5c0,1.3,0.1,2.6,0.1,3.8h-1.8l-0.1-2.5l0,0c-1.2,1.9-2.6,2.6-4.8,2.6c-2.6,0-4.8-2.2-4.8-5
		c0-5.6,5.9-5.6,8.4-5.6h1.3c0-2.2,0-5.3-3.5-5.3c-2.3,0-4.1,1.6-4.4,1.8l-0.3-2.1c1.6-0.9,2.8-1.5,4.7-1.5c5.3,0,5.3,4.4,5.3,5.7
		V169.5 M260.2,164.7c-4.1,0-7.5,0-7.5,4c0,1.5,1,3.2,3.2,3.2c0.9,0,4.2-0.4,4.2-5.1L260.2,164.7L260.2,164.7z"/>
	<rect x="266.8" y="148" class="st0" width="1.9" height="25.3"/>
	<path class="st0" d="M280.7,164.7c0-4.4,1.5-8.9,6.4-8.9c5,0,6.4,4.5,6.4,8.9s-1.5,8.8-6.4,8.8
		C282.2,173.6,280.7,169.1,280.7,164.7 M291.6,164.7c0-1.3,0-7-4.4-7c-4.4,0-4.4,5.7-4.4,7c0,1.3,0,7,4.4,7
		C291.6,171.7,291.6,166.1,291.6,164.7z"/>
	<path class="st0" d="M298.1,157.9h-2.6V156h2.6v-3.7c0-2.6,0.7-4.8,4.2-4.8c0.7,0,1.2,0.1,1.5,0.1v1.9c-0.3-0.1-0.9-0.3-1.6-0.3
		c-1.8,0-2.2,1.3-2.2,2.6v4.1h3.1v1.8h-3.1v15.4h-1.9V157.9"/>
	<path class="st0" d="M13.8,206.1h11.6c10,0,19,2.9,19,13.8c0,10.7-7.8,14.5-17.6,14.5H23v17.3H14v-45.6 M22.9,227.2h3.2
		c4.5,0,8.6-1.5,8.6-6.7c0-5.3-4-7.2-8.6-7.2h-3.2V227.2z"/>
	<path class="st0" d="M59.1,206.1h10.3l17.9,45.6H77.1l-4-10.4H54.7l-4,10.4h-9.5L59.1,206.1 M64.1,215.2L64.1,215.2L57.3,234h13.3
		L64.1,215.2z"/>
	<polyline class="st0" points="96.1,213.3 83.1,213.3 83.1,206.1 118.4,206.1 118.4,213.3 105.4,213.3 105.4,251.7 96.1,251.7 
		96.1,213.3 	"/>
	<polyline class="st0" points="124.1,206.1 133.3,206.1 133.3,224.4 151.5,224.4 151.5,206.1 160.7,206.1 160.7,251.7 151.5,251.7 
		151.5,231.6 133.3,231.6 133.3,251.7 124.1,251.7 124.1,206.1 	"/>
	<path class="st0" d="M191.4,205.3c14.4,0,22.3,9.7,22.3,23.4c0,13.8-7.9,23.7-22.3,23.7c-14.6,0-22.3-9.7-22.3-23.7
		C169.1,214.8,176.9,205.3,191.4,205.3 M191.4,245.2c9.4,0,12.7-8.4,12.7-16.6c0-8.1-3.7-16.3-12.7-16.3c-9.1,0-12.7,8.2-12.7,16.3
		C178.6,236.9,182,245.2,191.4,245.2z"/>
	<polyline class="st0" points="222,206.1 231.2,206.1 231.2,244.5 248.9,244.5 248.9,251.7 222,251.7 222,206.1 	"/>
	<path class="st0" d="M274.7,205.3c14.4,0,22.3,9.7,22.3,23.4c0,13.8-7.9,23.7-22.3,23.7c-14.6,0-22.3-9.7-22.3-23.7
		C252.4,214.8,260.2,205.3,274.7,205.3 M274.7,245.2c9.4,0,12.7-8.4,12.7-16.6c0-8.1-3.7-16.3-12.7-16.3s-12.7,8.2-12.7,16.3
		C262,236.9,265.5,245.2,274.7,245.2z"/>
	<path class="st0" d="M340.9,214.9c-3.5-1.6-8.1-2.3-11.7-2.3c-10.7,0-16.6,7.2-16.6,16.6c0,9.2,5.7,16.3,15.5,16.3
		c2.5,0,4.4-0.3,6-0.6v-11.9h-9.7v-7.2H343v24.5c-4.8,1.3-9.8,2.3-14.8,2.3c-14.8,0-25.1-7.3-25.1-22.7c0-15.5,9.5-24.3,25.1-24.3
		c5.3,0,9.5,0.7,13.3,1.9L340.9,214.9"/>
	<polyline class="st0" points="364.7,233.7 348,206.1 358.7,206.1 369.5,225.2 380.3,206.1 390,206.1 373.7,233.7 373.7,251.7 
		364.7,251.7 364.7,233.7 	"/>
</g>
</svg>
