<?xml version="1.0" encoding="utf-8"?>
<!-- Generator: Adobe Illustrator 26.2.1, SVG Export Plug-In . SVG Version: 6.00 Build 0)  -->
<svg version="1.1" id="Layer_1" xmlns="http://www.w3.org/2000/svg" xmlns:xlink="http://www.w3.org/1999/xlink" x="0px" y="0px"
	 viewBox="0 0 400 400" style="enable-background:new 0 0 400 400;" xml:space="preserve">
<style type="text/css">
	.st0{fill:#231F20;}
</style>
<g>
	<polyline class="st0" points="70.3,165.7 79.2,165.7 79.2,167 75.4,167 75.4,181.8 74,181.8 74,167 70.3,167 70.3,165.7 	"/>
	<path class="st0" d="M80.3,164.5h1.3v7.3h0c0.2-0.5,1-1.9,2.9-1.9c3.3,0,3.3,3.3,3.3,4v7.9h-1.3v-7.9c0-0.8,0-2.7-2.2-2.7
		c-1.6,0-2.7,1.5-2.7,3.4v7.3h-1.3V164.5"/>
	<path class="st0" d="M91.9,176.4c0,4.4,2.8,4.4,3.3,4.4c0.8,0,1.9-0.4,2.5-1l0.1,1.5c-0.6,0.3-1.3,0.7-2.7,0.7
		c-4.6,0-4.6-4.9-4.6-6.1c0-4.4,2.2-6,4.2-6c3.4,0,3.8,3.6,3.8,6.5H91.9 M96.9,175.1c0-3.1-1.3-4-2.4-4c-1.8,0-2.7,2.5-2.7,4H96.9z"
		/>
	<path class="st0" d="M109.2,165.7h1.5l5.4,16.1h-1.5l-1.4-4.4h-6.4l-1.5,4.4h-1.4L109.2,165.7 M107.2,176h5.6l-2.7-8.8h0L107.2,176
		z"/>
	<path class="st0" d="M118,173.7c0-1.2-0.1-2.4-0.1-3.7h1.2c0,0.5,0.1,0.9,0.1,1.7h0c0.4-0.9,1.2-1.9,2.7-1.9c1.9,0,2.4,1.2,2.7,1.9
		c0.3-0.6,1.2-1.9,2.9-1.9c2.4,0,3,2,3,3.8v8.1h-1.3v-7.9c0-0.8,0-2.8-1.9-2.8c-1.7,0-2.4,1.5-2.4,3.1v7.6h-1.3v-8.2
		c0-1.5-0.7-2.5-1.8-2.5c-1.5,0-2.6,1.5-2.6,3.4v7.3H118V173.7"/>
	<path class="st0" d="M134.6,176.4c0,4.4,2.8,4.4,3.3,4.4c0.8,0,1.9-0.4,2.5-1l0.1,1.5c-0.6,0.3-1.3,0.7-2.7,0.7
		c-4.6,0-4.6-4.9-4.6-6.1c0-4.4,2.2-6,4.2-6c3.4,0,3.8,3.6,3.8,6.5H134.6 M139.7,175.1c0-3.1-1.3-4-2.4-4c-1.8,0-2.7,2.5-2.7,4
		H139.7z"/>
	<path class="st0" d="M143.7,173.7c0-1.2-0.1-2.4-0.1-3.7h1.2c0,0.7,0.1,1.4,0.1,1.9h0c0.9-1.7,1.8-2,3.1-2v1.4
		c-2.1,0-3.1,0.9-3.1,3.1v7.4h-1.3V173.7"/>
	<path class="st0" d="M150.1,165.3h1.6v2.1h-1.6V165.3z M150.2,170h1.3v11.8h-1.3V170z"/>
	<path class="st0" d="M161.2,171.8c-0.5-0.4-1.4-0.6-2.1-0.6c-1.8,0-3.4,1.2-3.4,4.4c0,4.3,2.4,5.1,3.7,5.1c0.5,0,1.6-0.2,2-0.6
		l0.1,1.5c-0.6,0.3-1.5,0.4-2.3,0.4c-2.5,0-4.9-1.9-4.9-6c0-3.6,1.6-6.1,4.9-6.1c0.9,0,1.6,0.2,2.2,0.4L161.2,171.8"/>
	<path class="st0" d="M170.5,179.2c0,0.9,0.1,1.8,0.1,2.6h-1.2l-0.1-1.7h0c-0.8,1.3-1.8,1.8-3.3,1.8c-1.8,0-3.3-1.5-3.3-3.4
		c0-3.8,4-3.8,5.7-3.8h0.9c0-1.5,0-3.6-2.4-3.6c-1.6,0-2.8,1.1-3,1.2l-0.2-1.4c1.1-0.6,1.9-1,3.2-1c3.6,0,3.6,3,3.6,3.9V179.2
		 M169.3,175.9c-2.8,0-5.1,0-5.1,2.7c0,1,0.7,2.2,2.2,2.2c0.6,0,2.9-0.3,2.9-3.5V175.9z"/>
	<path class="st0" d="M173.6,173.7c0-1.2-0.1-2.4-0.1-3.7h1.2c0,0.5,0.1,0.9,0.1,1.7h0c0.3-0.5,1-1.9,3-1.9c3.3,0,3.3,3.3,3.3,4v7.9
		h-1.3v-7.9c0-0.8,0-2.8-2.2-2.8c-1.6,0-2.7,1.5-2.7,3.4v7.3h-1.3V173.7"/>
	<path class="st0" d="M188.8,180.3c0.3,0.1,0.6,0.3,1.1,0.3c1.9,0,2-1.7,2-3.2v-11.6h1.4v11.7c0,2.4-0.4,4.6-3.4,4.6
		c-0.4,0-0.8-0.1-1.1-0.2V180.3"/>
	<path class="st0" d="M196.1,175.9c0-3,1-6.1,4.4-6.1c3.4,0,4.4,3.1,4.4,6.1c0,3-1,6-4.4,6C197,182,196.1,178.9,196.1,175.9
		 M203.4,175.9c0-0.9,0-4.8-3-4.8c-3,0-3,3.9-3,4.8c0,0.9,0,4.8,3,4.8C203.4,180.7,203.4,176.9,203.4,175.9z"/>
	<path class="st0" d="M215,178.2c0,1.2,0.1,2.4,0.1,3.7h-1.2c0-0.5-0.1-0.9-0.1-1.7h0c-0.1,0.5-1,1.9-3,1.9c-2.6,0-3.3-1.8-3.3-3.7
		V170h1.3v7.9c0,0.8,0,2.7,2.2,2.7c1.6,0,2.7-1.5,2.7-3.4V170h1.3V178.2"/>
	<path class="st0" d="M218.1,173.7c0-1.2-0.1-2.4-0.1-3.7h1.2c0,0.7,0.1,1.4,0.1,1.9h0c0.9-1.7,1.9-2,3.1-2v1.4
		c-2.1,0-3.1,0.9-3.1,3.1v7.4h-1.3V173.7"/>
	<path class="st0" d="M224.5,173.7c0-1.2-0.1-2.4-0.1-3.7h1.2c0,0.5,0.1,0.9,0.1,1.7h0c0.3-0.5,1-1.9,3-1.9c3.3,0,3.3,3.3,3.3,4v7.9
		h-1.3v-7.9c0-0.8,0-2.8-2.2-2.8c-1.6,0-2.7,1.5-2.7,3.4v7.3h-1.3V173.7"/>
	<path class="st0" d="M242.4,179.2c0,0.9,0.1,1.8,0.1,2.6h-1.2l-0.1-1.7h0c-0.8,1.3-1.8,1.8-3.3,1.8c-1.8,0-3.3-1.5-3.3-3.4
		c0-3.8,4-3.8,5.7-3.8h0.9c0-1.5,0-3.6-2.4-3.6c-1.6,0-2.8,1.1-3,1.2l-0.2-1.4c1.1-0.6,1.9-1,3.2-1c3.6,0,3.6,3,3.6,3.9V179.2
		 M241.1,175.9c-2.8,0-5.1,0-5.1,2.7c0,1,0.7,2.2,2.2,2.2c0.6,0,2.9-0.3,2.9-3.5V175.9z"/>
	<rect x="245.6" y="164.5" class="st0" width="1.3" height="17.3"/>
	<path class="st0" d="M255.1,175.9c0-3,1-6.1,4.4-6.1c3.4,0,4.4,3.1,4.4,6.1c0,3-1,6-4.4,6C256.1,182,255.1,178.9,255.1,175.9
		 M262.5,175.9c0-0.9,0-4.8-3-4.8c-3,0-3,3.9-3,4.8c0,0.9,0,4.8,3,4.8C262.5,180.7,262.5,176.9,262.5,175.9z"/>
	<path class="st0" d="M267,171.3h-1.8V170h1.8v-2.5c0-1.8,0.5-3.3,2.9-3.3c0.5,0,0.8,0.1,1,0.1v1.3c-0.2-0.1-0.6-0.2-1.1-0.2
		c-1.2,0-1.5,0.9-1.5,1.8v2.8h2.1v1.2h-2.1v10.5H267V171.3"/>
	<path class="st0" d="M72.9,204.2h7.9c6.8,0,13,2,13,9.4c0,7.3-5.3,9.9-12,9.9h-2.6v11.8h-6.2V204.2 M79.1,218.6h2.2
		c3.1,0,5.9-1,5.9-4.6c0-3.6-2.7-4.9-5.9-4.9h-2.2V218.6z"/>
	<path class="st0" d="M103.8,204.2h7l12.2,31.1h-6.9l-2.7-7.1h-12.6l-2.7,7.1h-6.5L103.8,204.2 M107.2,210.4L107.2,210.4l-4.6,12.8
		h9.1L107.2,210.4z"/>
	<polyline class="st0" points="129.1,209.1 120.2,209.1 120.2,204.2 144.3,204.2 144.3,209.1 135.4,209.1 135.4,235.3 129.1,235.3 
		129.1,209.1 	"/>
	<polyline class="st0" points="148.2,204.2 154.5,204.2 154.5,216.7 166.9,216.7 166.9,204.2 173.2,204.2 173.2,235.3 166.9,235.3 
		166.9,221.6 154.5,221.6 154.5,235.3 148.2,235.3 148.2,204.2 	"/>
	<path class="st0" d="M194.1,203.6c9.8,0,15.2,6.6,15.2,16c0,9.4-5.4,16.2-15.2,16.2c-10,0-15.2-6.6-15.2-16.2
		C178.9,210.1,184.2,203.6,194.1,203.6 M194.1,230.9c6.4,0,8.7-5.7,8.7-11.3c0-5.5-2.5-11.1-8.7-11.1c-6.2,0-8.7,5.6-8.7,11.1
		C185.4,225.2,187.7,230.9,194.1,230.9z"/>
	<polyline class="st0" points="215,204.2 221.3,204.2 221.3,230.4 233.4,230.4 233.4,235.3 215,235.3 215,204.2 	"/>
	<path class="st0" d="M251,203.6c9.8,0,15.2,6.6,15.2,16c0,9.4-5.4,16.2-15.2,16.2c-10,0-15.2-6.6-15.2-16.2
		C235.8,210.1,241.1,203.6,251,203.6 M251,230.9c6.4,0,8.7-5.7,8.7-11.3c0-5.5-2.5-11.1-8.7-11.1c-6.2,0-8.7,5.6-8.7,11.1
		C242.3,225.2,244.7,230.9,251,230.9z"/>
	<path class="st0" d="M296.2,210.2c-2.4-1.1-5.5-1.6-8-1.6c-7.3,0-11.3,4.9-11.3,11.3c0,6.3,3.9,11.1,10.6,11.1c1.7,0,3-0.2,4.1-0.4
		v-8.1H285v-4.9h12.6v16.7c-3.3,0.9-6.7,1.6-10.1,1.6c-10.1,0-17.1-5-17.1-15.5c0-10.6,6.5-16.6,17.1-16.6c3.6,0,6.5,0.5,9.1,1.3
		L296.2,210.2"/>
	<polyline class="st0" points="312.4,223 301,204.2 308.3,204.2 315.7,217.2 323.1,204.2 329.7,204.2 318.6,223 318.6,235.3 
		312.4,235.3 312.4,223 	"/>
</g>
</svg>
