<?xml version="1.0" encoding="utf-8"?>
<!-- Generator: Adobe Illustrator 26.2.1, SVG Export Plug-In . SVG Version: 6.00 Build 0)  -->
<svg version="1.1" id="Layer_1" xmlns="http://www.w3.org/2000/svg" xmlns:xlink="http://www.w3.org/1999/xlink" x="0px" y="0px"
	 viewBox="0 0 400 400" style="enable-background:new 0 0 400 400;" xml:space="preserve">
<style type="text/css">
	.st0{fill:#27A7E5;}
</style>
<g>
	<g>
		<path class="st0" d="M182.8,197.3c1.3,0.7,2.1,1.2,3,1.6c8.1,3.5,12.6,9.8,13.2,18.5c0.3,5,0.2,10.3-1,15.2
			c-2.7,10.4-10.7,15.4-20.6,17.7c-12.2,2.8-24.5,1.8-36.8,0.7c-2.3-0.2-2.7-1.6-2.7-3.5c0-6,0-12.1,0-18.1c0-24.8,0-49.5,0-74.3
			c0-5.8,0-6,5.7-6.3c12.3-0.7,24.6-1.7,36.7,1.6c10.9,3,17.3,9.6,18.2,19.1c1.2,13.5-3.1,22-14.1,27.1
			C184.1,196.7,183.7,196.9,182.8,197.3z M144.3,199.3c-0.1,0.4-0.2,0.8-0.4,1.2c-0.1,0.2-0.3,0.5-0.3,0.7c0,14.1-0.1,28.3,0.1,42.4
			c0,0.9,1.8,2.4,2.9,2.5c5.5,0.5,11,0.8,16.5,0.7c7.2-0.2,14.4-0.6,20.9-4.4c7.9-4.6,11.3-14,9.5-25.5c-1.3-8.3-5.9-14.2-14.1-15.3
			C167.8,200.1,156,200,144.3,199.3z M143.8,193.9c11.3,0,22.4,0.1,33.5-0.1c1.5,0,3-0.7,4.5-1.3c8.3-3.2,11.8-9.5,11.5-20.2
			c-0.3-8.4-4.7-14.4-12.7-16.9c-12-3.8-24.3-2.6-36.8-1.8C143.8,167.2,143.8,180.5,143.8,193.9z"/>
		<path class="st0" d="M115,197.3c2.6,1.3,4.8,2.2,6.7,3.5c9.6,6.5,10.9,16.2,9.7,26.5c-1.5,12.2-8.5,19.7-20.7,22.7
			c-12.5,3-25.3,2.1-37.9,0.7c-0.9-0.1-2.1-1.8-2.3-2.9c-0.3-2.8-0.1-5.8-0.1-8.6c0-28.2,0-56.3,0-84.5c0-5.6,0-5.7,5.5-6
			c12.4-0.7,24.8-1.7,37.1,1.7c10.9,3,17.2,9.7,18,19.7c1.1,13.2-3.4,21.6-14.4,26.5C116.1,196.7,115.8,196.9,115,197.3z M75.9,246
			c12,1.1,23.9,2.4,35.5-1.4c9.7-3.2,14-9.4,14.4-19.7c0.1-2.2,0.1-4.5-0.1-6.7c-0.6-8.7-5.6-14.9-14.1-16.6
			c-6.1-1.2-12.5-1.3-18.7-1.5c-5.6-0.2-11.2,0-17,0C75.9,215.6,75.9,230.6,75.9,246z M75.9,194.5c9.9,0,19.4,0.2,28.9,0
			c14.5-0.3,22.2-9.7,20.4-24.1c-1-7.7-5.2-12.4-12.2-14.8c-12.1-4.1-24.5-2.7-37.1-1.9C75.9,167.2,75.9,180.6,75.9,194.5z"/>
		<path class="st0" d="M211.3,204.7c0,2.1,0,3.6,0,5.2c0,12.4,0,24.9,0,37.3c0,2-0.1,3.8-2.8,3.8c-2.7,0-2.8-1.8-2.8-3.7
			c0-31.6,0-63.2,0-94.7c0-2.1,0.4-3.7,2.9-3.8c12.8-0.6,25.7-1.8,38.3,1.2c14.2,3.3,20.4,12.4,19.7,27.8
			c-0.7,14.7-6.1,21.5-20.3,25.5c-1.2,0.3-2.4,0.7-4.3,1.2c3.3,5.1,6.3,9.9,9.4,14.7c5.7,8.8,11.5,17.5,17,26.4
			c0.9,1.4,1.5,4.8,1.1,5c-2.3,1.2-4.3,0.3-5.8-2.1c-8.4-13.1-17.2-26-25.4-39.2c-2.2-3.5-4.5-4.8-8.5-4.6
			C224,204.9,218,204.7,211.3,204.7z M211.6,199.5c5.2,0,10.2,0.3,15.1-0.1c7.1-0.5,14.4-0.8,21.3-2.3c8.1-1.7,12-7.8,13-15.8
			c0.3-2.5,0.3-5,0.2-7.4c-0.4-10-5.9-17.3-15.8-18.6c-9.9-1.3-20-1.1-30.1-1.6c-3.3-0.2-4.1,1.4-4,4.5c0.2,12.3,0.1,24.6,0.1,36.9
			C211.3,196.4,211.5,197.6,211.6,199.5z"/>
		<path class="st0" d="M275.1,200c0.5,10.1-0.2,20.2,3.6,29.9c3.9,10.1,12.2,16.5,23,16.5c8.2,0.1,16.5-0.6,24.7-0.8
			c1.1,0,2.2,1,3.3,1.6c-0.9,1.1-1.7,3.1-2.6,3.1c-10.2,0.5-20.5,1.7-30.5,0.7c-13.7-1.4-21.7-10.8-24.5-23.7
			c-3.9-18.1-3.9-36.5-0.1-54.6c3.3-15.7,15.1-24.8,31-24.6c7.7,0.1,15.4,0.8,23.1,1.3c2.2,0.1,4.2,1,3.4,3.5
			c-0.3,0.8-2.6,1.5-4,1.5c-7.7-0.2-15.4-1-23.1-1c-13.9,0.1-24.3,10.1-26,25C275.6,185.6,275.5,192.8,275.1,200z"/>
	</g>
</g>
</svg>
