<?xml version="1.0" encoding="utf-8"?>
<!-- Generator: Adobe Illustrator 26.2.1, SVG Export Plug-In . SVG Version: 6.00 Build 0)  -->
<svg version="1.1" id="Layer_1" xmlns="http://www.w3.org/2000/svg" xmlns:xlink="http://www.w3.org/1999/xlink" x="0px" y="0px"
	 viewBox="0 0 400 400" style="enable-background:new 0 0 400 400;" xml:space="preserve">
<style type="text/css">
	.st0{fill:#27A7E5;}
</style>
<g>
	<g>
		<path class="st0" d="M174.8,196c1.9,1,3.1,1.8,4.4,2.3c11.9,5.1,18.5,14.4,19.3,27.1c0.4,7.3,0.3,15.1-1.5,22.3
			c-4,15.2-15.7,22.6-30.2,25.9c-17.9,4.1-35.9,2.6-53.9,1c-3.4-0.3-4-2.3-4-5.1c0-8.8,0-17.7,0-26.5c0-36.3,0-72.5,0-108.9
			c0-8.5,0-8.8,8.4-9.2c18-1,36-2.5,53.8,2.3c16,4.4,25.3,14.1,26.7,28c1.8,19.8-4.5,32.2-20.7,39.7
			C176.7,195.1,176.1,195.4,174.8,196z M118.4,198.9c-0.1,0.6-0.3,1.2-0.6,1.8c-0.1,0.3-0.4,0.7-0.4,1c0,20.7-0.1,41.5,0.1,62.1
			c0,1.3,2.6,3.5,4.2,3.7c8.1,0.7,16.1,1.2,24.2,1c10.5-0.3,21.1-0.9,30.6-6.4c11.6-6.7,16.6-20.5,13.9-37.4
			c-1.9-12.2-8.6-20.8-20.7-22.4C152.8,200.1,135.5,200,118.4,198.9z M117.7,191c16.6,0,32.8,0.1,49.1-0.1c2.2,0,4.4-1,6.6-1.9
			c12.2-4.7,17.3-13.9,16.8-29.6c-0.4-12.3-6.9-21.1-18.6-24.8c-17.6-5.6-35.6-3.8-53.9-2.6C117.7,151.9,117.7,171.4,117.7,191z"/>
		<path class="st0" d="M75.5,196c3.8,1.9,7,3.2,9.8,5.1c14.1,9.5,16,23.7,14.2,38.8c-2.2,17.9-12.5,28.9-30.3,33.3
			c-18.3,4.4-37.1,3.1-55.5,1c-1.3-0.1-3.1-2.6-3.4-4.2c-0.4-4.1-0.1-8.5-0.1-12.6c0-41.3,0-82.5,0-123.8c0-8.2,0-8.4,8.1-8.8
			c18.2-1,36.3-2.5,54.4,2.5c16,4.4,25.2,14.2,26.4,28.9c1.6,19.3-5,31.6-21.1,38.8C77.1,195.1,76.6,195.4,75.5,196z M18.2,267.4
			c17.6,1.6,35,3.5,52-2.1c14.2-4.7,20.5-13.8,21.1-28.9c0.1-3.2,0.1-6.6-0.1-9.8c-0.9-12.7-8.2-21.8-20.7-24.3
			c-8.9-1.8-18.3-1.9-27.4-2.2c-8.2-0.3-16.4,0-24.9,0C18.2,222.8,18.2,244.8,18.2,267.4z M18.2,191.9c14.5,0,28.4,0.3,42.3,0
			c21.2-0.4,32.5-14.2,29.9-35.3c-1.5-11.3-7.6-18.2-17.9-21.7c-17.7-6-35.9-4-54.4-2.8C18.2,151.9,18.2,171.5,18.2,191.9z"/>
		<path class="st0" d="M216.5,206.9c0,3.1,0,5.3,0,7.6c0,18.2,0,36.5,0,54.6c0,2.9-0.1,5.6-4.1,5.6c-4,0-4.1-2.6-4.1-5.4
			c0-46.3,0-92.6,0-138.7c0-3.1,0.6-5.4,4.2-5.6c18.8-0.9,37.7-2.6,56.1,1.8c20.8,4.8,29.9,18.2,28.9,40.7
			c-1,21.5-8.9,31.5-29.7,37.4c-1.8,0.4-3.5,1-6.3,1.8c4.8,7.5,9.2,14.5,13.8,21.5c8.4,12.9,16.8,25.6,24.9,38.7
			c1.3,2.1,2.2,7,1.6,7.3c-3.4,1.8-6.3,0.4-8.5-3.1c-12.3-19.2-25.2-38.1-37.2-57.4c-3.2-5.1-6.6-7-12.5-6.7
			C235.2,207.2,226.4,206.9,216.5,206.9z M217,199.2c7.6,0,14.9,0.4,22.1-0.1c10.4-0.7,21.1-1.2,31.2-3.4
			c11.9-2.5,17.6-11.4,19-23.1c0.4-3.7,0.4-7.3,0.3-10.8c-0.6-14.7-8.6-25.3-23.1-27.3c-14.5-1.9-29.3-1.6-44.1-2.3
			c-4.8-0.3-6,2.1-5.9,6.6c0.3,18,0.1,36,0.1,54.1C216.5,194.7,216.8,196.5,217,199.2z"/>
		<path class="st0" d="M310,200c0.7,14.8-0.3,29.6,5.3,43.8C321,258.6,333.2,268,349,268c12,0.1,24.2-0.9,36.2-1.2
			c1.6,0,3.2,1.5,4.8,2.3c-1.3,1.6-2.5,4.5-3.8,4.5c-14.9,0.7-30,2.5-44.7,1c-20.1-2.1-31.8-15.8-35.9-34.7
			c-5.7-26.5-5.7-53.5-0.1-80c4.8-23,22.1-36.3,45.4-36c11.3,0.1,22.6,1.2,33.8,1.9c3.2,0.1,6.2,1.5,5,5.1c-0.4,1.2-3.8,2.2-5.9,2.2
			c-11.3-0.3-22.6-1.5-33.8-1.5c-20.4,0.1-35.6,14.8-38.1,36.6C310.8,178.9,310.6,189.4,310,200z"/>
	</g>
</g>
</svg>
