<?xml version="1.0" encoding="utf-8"?>
<!-- Generator: Adobe Illustrator 26.2.1, SVG Export Plug-In . SVG Version: 6.00 Build 0)  -->
<svg version="1.1" id="Layer_1" xmlns="http://www.w3.org/2000/svg" xmlns:xlink="http://www.w3.org/1999/xlink" x="0px" y="0px"
	 viewBox="0 0 400 400" style="enable-background:new 0 0 400 400;" xml:space="preserve">
<style type="text/css">
	.st0{fill:#007DBD;}
	.st1{fill:#FFFFFF;}
</style>
<g>
	<g>
		<rect x="354.7" y="109.7" class="st0" width="35.3" height="181.2"/>
		<rect x="310.8" y="109.7" class="st0" width="35.3" height="181.2"/>
		<path class="st0" d="M266.4,251.5c-3,9.6-13.1,14.6-22.7,14.6c-28.8,0-30.8-22.7-31.3-32.8h91.8v-6.1c0-61.6-36.3-74.2-63.1-74.2
			c-58.5,0-64.6,51.5-64.6,68.1c0,55.5,29.3,73.2,66.6,73.2c23.2,0,49.5-10.6,59-42.9H266.4L266.4,251.5z"/>
		<path class="st0" d="M171.5,168.7c-2-26.7-24.2-64.1-78.2-64.1c-46.4,0-83.3,32.3-83.3,95.9c0,62.6,34.8,94.9,82.8,94.9
			c45.4,0,71.2-27.8,78.7-66.6h-37.8c-4.5,22.2-19.2,34.3-40.4,34.3c-31.8,0-44.9-29.3-44.9-61.6c0-51.5,26.7-63.1,44.9-63.1
			c31.3,0,37.3,20.2,40.4,31.3h37.8V168.7z"/>
		<path class="st1" d="M212.9,210.1c2-17.7,11.1-28.3,27.8-28.3c11.1,0,25.2,6.6,27.3,28.3H212.9z"/>
	</g>
</g>
</svg>
