<?xml version="1.0" encoding="utf-8"?>
<!-- Generator: Adobe Illustrator 26.2.1, SVG Export Plug-In . SVG Version: 6.00 Build 0)  -->
<svg version="1.1" id="Layer_1" xmlns="http://www.w3.org/2000/svg" xmlns:xlink="http://www.w3.org/1999/xlink" x="0px" y="0px"
	 viewBox="0 0 400 400" style="enable-background:new 0 0 400 400;" xml:space="preserve">
<g>
	<path d="M10,165.1h0.2c1.9,0.1,3.4,0.3,4.6,0.5c0.9,0.2,1.5,0.4,2,0.8c0.7,0.5,1.1,1.2,1.4,2.5c0.3,1.2,0.3,2.9,0.3,5.1v37.8
		c0,2,0,3.5-0.2,4.7c-0.1,0.9-0.4,1.5-0.7,2c-0.5,0.8-1.2,1.2-2.4,1.5c-1.2,0.3-2.8,0.5-5,0.6H9.9v3.1h0.3h25.3v-3.1h-0.2
		c-1.9-0.1-3.4-0.3-4.6-0.5c-0.9-0.2-1.5-0.4-2-0.8c-0.7-0.5-1.2-1.2-1.4-2.4c-0.3-1.2-0.3-2.9-0.3-5.2V174c0-2,0-3.5,0.2-4.7
		c0.1-0.9,0.4-1.5,0.7-2c0.5-0.8,1.2-1.2,2.4-1.5s2.8-0.5,5-0.6h0.2V162H10V165.1z"/>
	<path d="M40.4,165.1h0.2c1.9,0.1,3.4,0.3,4.5,0.6c0.8,0.2,1.5,0.5,2,0.8c0.7,0.5,1.1,1.3,1.4,2.5c0.3,1.2,0.3,2.8,0.3,5.1v32.2
		c0,7.9-0.2,13.4-0.9,17.9c-1,5.3-3.7,9.6-8.9,12.2l-0.2,0.1l1.3,3.1l0.2-0.1c2.5-0.8,5.7-2.6,8.9-5.5c3.1-2.9,5.2-6,6.5-9.9
		c1.3-3.9,1.7-8.6,1.7-14.6V174c0-2,0-3.5,0.2-4.7c0.1-0.9,0.3-1.5,0.6-2.1c0.5-0.8,1.1-1.2,2.2-1.5c1.1-0.3,2.6-0.5,4.7-0.6h0.2
		v-0.2V162h-25L40.4,165.1L40.4,165.1z"/>
	<path d="M98.4,160.5L98.4,160.5c-10.1,0-18.1,4-23.6,10.1c-5.5,6.1-8.5,14.4-8.5,22.9c0,9.2,3.4,17.1,9,22.7c5.6,5.6,13.3,9,21.9,9
		c8.7,0,16.7-3.1,22.4-8.9c5.8-5.7,9.4-14,9.4-24.3c0-9.5-3.6-17.4-9.3-22.9C114.1,163.7,106.4,160.5,98.4,160.5z M99.2,221.3
		c-6.6,0-12.3-3.2-16.3-8.6c-4.1-5.4-6.5-13-6.5-21.8c0-8.8,2.4-15.4,6.1-19.9c3.7-4.4,8.6-6.6,13.8-6.6h0.1
		c6.1,0,11.7,2.6,15.8,7.7c4.1,5.1,6.7,12.7,6.7,22.6c0,9-2.3,15.7-5.9,20.1C109.3,219.2,104.5,221.3,99.2,221.3z"/>
	<path d="M164.4,195c-3.2-2.9-7.3-5-11-6.9c-3.7-1.9-6.7-3.6-8.7-5.8c-2-2.1-3.1-4.6-3.1-8c0-2.5,0.8-5,2.4-6.9
		c1.7-1.9,4.2-3.1,7.8-3.1c4,0,6.6,1.6,8.5,3.9c1.8,2.3,2.9,5.4,3.7,8.4l0.1,0.2h0.2l3-0.5V176c-0.8-5.9-1.2-9.6-1.6-13v-0.2h-0.2
		c-3.6-1.1-7.6-2.2-12-2.2c-6.1,0-11.1,2-14.5,5.1c-3.4,3.1-5.2,7.4-5.2,12c0,5.4,2.4,9.3,5.6,12.3c3.2,2.9,7.1,4.9,10.1,6.6
		c3.5,1.9,6.6,3.6,8.7,5.8c2.1,2.1,3.4,4.6,3.4,8.1c0,3.4-1,6.2-2.9,8.1c-1.9,1.9-4.6,3-8.2,3c-4.8,0-8.3-2.3-10.7-5.4
		c-2.4-3.1-3.8-6.9-4.5-9.7l-0.1-0.3l-3.3,0.8v0.2c0.3,2.3,0.8,5.4,1.3,8.3c0.5,2.9,0.9,5.4,1.3,6.4v0.1h0.1c0.9,0.5,2.4,1.1,4.8,2
		c2.3,0.7,5.4,1.4,9.3,1.4c6.3,0,11.6-2,15.4-5.3c3.7-3.3,5.9-7.8,5.9-12.8C169.9,201.7,167.6,197.9,164.4,195L164.4,195z"/>
	<path d="M195.1,196.6v-0.7v-0.1H195c-0.9-0.1-1.3-0.1-1.5-0.3c-0.2-0.2-0.3-0.7-0.3-1.6v-8.4c0-0.9,0-1.4,0.3-1.6
		c0.2-0.2,0.7-0.3,1.5-0.4h0.1v-0.7v-0.1h-5.8v0.7v0.1h0.1c0.9,0.1,1.3,0.1,1.5,0.4c0.2,0.2,0.3,0.7,0.3,1.6v8.4
		c0,0.9,0,1.3-0.3,1.6c-0.2,0.2-0.7,0.3-1.5,0.4h-0.1v0.7v0.1h0.1L195.1,196.6L195.1,196.6z"/>
	<path d="M200.6,196L200.6,196L200.6,196c-0.7-0.2-1-0.2-1.2-0.4c-0.1-0.2-0.2-0.5-0.2-1.2v-4.9c0.6-0.5,1.4-1,2.2-1
		c0.7,0,1.1,0.2,1.4,0.6c0.3,0.4,0.4,1,0.4,1.7v3.5c0,0.7,0,1.1-0.2,1.3c-0.1,0.2-0.5,0.3-1.1,0.3h-0.1v0.6v0.1h0.1h4.5v-0.7v-0.1
		h-0.1c-0.6-0.1-0.9-0.1-1.1-0.3c-0.1-0.2-0.2-0.5-0.2-1.2v-4.1c0-1-0.3-1.8-0.8-2.4c-0.5-0.6-1.2-0.9-2.1-0.9
		c-0.6,0-1.2,0.3-1.8,0.6c-0.5,0.3-0.9,0.6-1.2,0.9v-1.6l-0.2,0.1c-0.9,0.4-1.9,0.7-2.9,0.9h-0.1v0.6v0.1h0.1c0.6,0.1,0.9,0.2,1,0.3
		c0.1,0.2,0.2,0.5,0.2,1.2v4.3c0,0.7,0,1-0.2,1.2c-0.2,0.2-0.5,0.3-1.2,0.3h-0.1v0.6v0.1h4.8L200.6,196L200.6,196z"/>
	<path d="M211.2,196.6l1.5-0.8l-0.2-0.6v-0.1l-0.1,0.1c-0.3,0.1-0.7,0.3-1.2,0.3c-0.3,0-0.5-0.1-0.7-0.3c-0.2-0.3-0.4-0.7-0.4-1.6
		v-5.3h2.2l0,0c0.2-0.1,0.3-0.4,0.3-0.6s0-0.3-0.2-0.4l0,0H210v-2.9l-0.4-0.1h-0.1l-1.4,1.5v1.5h-0.8l0,0l-0.7,0.7l0.1,0.3v0.1h1.4
		v6c0,0.9,0.2,1.5,0.6,1.9c0.4,0.4,0.9,0.7,1.6,0.7C210.5,196.9,210.9,196.8,211.2,196.6z"/>
	<path d="M214.3,195.5c0.7,0.9,1.8,1.4,3.1,1.4c0.7,0,2.2-0.4,3.5-2.1v-0.1v-0.1l-0.3-0.5l-0.1-0.1l-0.1,0.1c-0.8,0.7-1.5,1-2.4,1
		c-1.4,0-3-1.1-3-3.8c2.5-0.1,5.1-0.3,5.4-0.4c0.2,0,0.4-0.1,0.5-0.3c0.1-0.1,0.1-0.3,0.1-0.5c0-1.7-1.5-3.3-3.3-3.3l0,0
		c-1.1,0-2.3,0.6-3.2,1.6c-0.9,0.9-1.4,2.3-1.4,3.7C213.2,193.5,213.6,194.6,214.3,195.5L214.3,195.5z M217.3,187.9L217.3,187.9
		c1.1,0,1.8,0.9,1.8,1.9l0,0c0,0.1,0,0.2-0.1,0.2c0,0-0.1,0.1-0.3,0.1c-1.2,0-2.3,0.1-3.4,0.1C215.5,188.7,216.4,187.9,217.3,187.9z
		"/>
	<path d="M228.4,189.2c0.4-0.2,0.7-0.7,0.7-1.1c0-0.6-0.6-1.2-1.3-1.2c-1,0-1.8,1-2.5,2v-2.1l-0.2,0.1c-1,0.4-1.9,0.7-2.9,0.8h-0.1
		v0.6v0.1h0.1c0.6,0.1,0.9,0.1,1,0.3c0.1,0.2,0.2,0.5,0.2,1.2v4.4c0,0.7,0,1-0.2,1.2c-0.2,0.2-0.5,0.3-1.1,0.3H222v0.6v0.1h5.1v-0.7
		v-0.1H227c-0.8-0.1-1.2-0.1-1.4-0.3c-0.2-0.2-0.2-0.5-0.2-1.2v-3.8c0.5-1.2,1.1-1.7,1.6-1.7c0.3,0,0.5,0.1,0.8,0.4
		c0.1,0.1,0.2,0.1,0.3,0.1C228.1,189.3,228.2,189.3,228.4,189.2z"/>
	<path d="M234.5,196L234.5,196L234.5,196c-0.7-0.2-1-0.2-1.2-0.4c-0.1-0.2-0.2-0.5-0.2-1.2v-4.9c0.6-0.5,1.4-1,2.2-1
		c0.7,0,1.1,0.2,1.4,0.6c0.3,0.4,0.4,1,0.4,1.7v3.5c0,0.7,0,1.1-0.2,1.3c-0.1,0.2-0.5,0.3-1.1,0.3h-0.1v0.6v0.1h0.1h4.5v-0.7v-0.1
		h-0.1c-0.6-0.1-0.9-0.1-1.1-0.3c-0.1-0.2-0.2-0.5-0.2-1.2v-4.1c0-1-0.3-1.8-0.8-2.4c-0.5-0.6-1.2-0.9-2.1-0.9
		c-0.6,0-1.2,0.3-1.8,0.6c-0.5,0.3-0.9,0.6-1.2,0.9v-1.6l-0.2,0.1c-0.9,0.4-1.9,0.7-2.9,0.9h-0.1v0.6v0.1h0.1c0.6,0.1,0.9,0.2,1,0.3
		c0.1,0.2,0.2,0.5,0.2,1.2v4.3c0,0.7,0,1-0.2,1.2c-0.2,0.2-0.5,0.3-1.2,0.3h-0.1v0.6v0.1h4.8L234.5,196L234.5,196z"/>
	<path d="M245,191.3c-0.6,0.2-1.3,0.5-1.9,0.7c-1.2,0.4-1.8,1.1-1.8,2.2c0,1.4,1.1,2.7,2.6,2.7c0.4,0,0.8-0.2,1.2-0.5
		c0.4-0.2,0.8-0.5,1.2-0.8c0.1,0.3,0.2,0.6,0.5,0.9c0.3,0.2,0.7,0.4,1.1,0.4l0,0l0,0l1.9-1.1l-0.3-0.6v-0.1l-0.1,0.1
		c-0.2,0.1-0.5,0.2-0.7,0.2c-0.1,0-0.3-0.1-0.4-0.2c-0.1-0.2-0.2-0.5-0.2-0.9v-3.9c0-1.1-0.2-2-1-2.7c-0.5-0.4-1.2-0.6-1.8-0.6l0,0
		l0,0c-1.2,0.3-2.6,1.1-3.2,1.5c-0.2,0.1-0.4,0.3-0.5,0.4c-0.1,0.1-0.2,0.3-0.2,0.5c0,0.3,0.2,0.5,0.3,0.7c0.2,0.2,0.4,0.3,0.7,0.3
		s0.6-0.2,0.7-0.6c0.2-0.6,0.4-1.1,0.6-1.3c0.2-0.2,0.5-0.4,0.8-0.4c0.5,0,0.9,0.2,1.2,0.6c0.3,0.4,0.5,0.9,0.5,1.7v0.3
		C246,190.9,245.5,191.1,245,191.3z M246.2,194.7c-0.4,0.4-1.1,0.7-1.6,0.7c-0.6,0-1.4-0.5-1.4-1.5c0-0.4,0.1-0.6,0.3-0.8
		c0.2-0.2,0.5-0.4,0.9-0.6c0.4-0.2,1.2-0.6,1.7-0.8L246.2,194.7L246.2,194.7z"/>
	<path d="M249.7,188.3h1.4v6c0,0.9,0.2,1.5,0.6,1.9s0.9,0.7,1.6,0.7c0.2,0,0.6-0.1,0.9-0.3l1.5-0.8l-0.2-0.6v-0.1l-0.1,0.1
		c-0.3,0.1-0.7,0.3-1.2,0.3c-0.3,0-0.5-0.1-0.7-0.3c-0.2-0.3-0.4-0.7-0.4-1.6v-5.3h2.2l0,0c0.2-0.1,0.3-0.4,0.3-0.6s0-0.3-0.2-0.4
		l0,0H253v-2.9l-0.4-0.1h-0.1l-1.4,1.5v1.5h-0.8l0,0l-0.7,0.7L249.7,188.3L249.7,188.3z"/>
	<path d="M261.1,196.6v-0.7v-0.1H261c-0.7-0.1-1-0.1-1.2-0.3c-0.2-0.2-0.2-0.5-0.2-1.3v-7.4l-0.2,0.1c-0.9,0.4-1.9,0.6-3,0.8h-0.1
		v0.6v0.1h0.1c0.6,0.1,0.9,0.2,1.1,0.3c0.1,0.2,0.2,0.5,0.2,1.1v4.3c0,0.7,0,1.1-0.2,1.3c-0.2,0.2-0.5,0.3-1.2,0.3h-0.1v0.6v0.1h0.1
		L261.1,196.6L261.1,196.6z"/>
	<path d="M258.6,185.1c0.7,0,1.2-0.6,1.2-1.2c0-0.7-0.5-1.2-1.2-1.2l0,0c-0.6,0-1.2,0.5-1.2,1.2C257.4,184.5,258,185.1,258.6,185.1z
		"/>
	<path d="M266.7,186.9L266.7,186.9c-1,0-2.2,0.4-3.1,1.2c-0.9,0.9-1.6,2.1-1.6,3.9c0,1.2,0.4,2.4,1.2,3.3c0.8,0.9,2,1.5,3.5,1.5
		c1.1,0,2.2-0.4,3.1-1.3c0.9-0.9,1.5-2.1,1.5-3.9c0-1.3-0.5-2.5-1.3-3.4C269.2,187.5,268,186.9,266.7,186.9L266.7,186.9z
		 M268.5,195.2c-0.4,0.6-1,0.8-1.6,0.8c-0.8,0-1.5-0.5-2-1.3c-0.5-0.8-0.8-1.9-0.8-3.2c0-1.2,0.3-2.1,0.7-2.7c0.4-0.6,1-0.9,1.6-0.9
		l0,0c0.9,0,1.5,0.5,2,1.2c0.5,0.8,0.7,1.9,0.7,3.1C269.1,193.6,268.9,194.6,268.5,195.2z"/>
	<path d="M276.9,196L276.9,196L276.9,196c-0.7-0.2-1-0.2-1.2-0.4c-0.1-0.2-0.2-0.5-0.2-1.2v-4.9c0.6-0.5,1.4-1,2.2-1
		c0.7,0,1.1,0.2,1.4,0.6c0.3,0.4,0.4,1,0.4,1.7v3.5c0,0.7,0,1.1-0.2,1.3c-0.1,0.2-0.5,0.3-1.1,0.3h-0.1v0.6v0.1h0.1h4.5v-0.7v-0.1
		h-0.1c-0.6-0.1-0.9-0.1-1.1-0.3c-0.1-0.2-0.2-0.5-0.2-1.2v-4.1c0-1-0.3-1.8-0.8-2.4c-0.5-0.6-1.2-0.9-2.1-0.9
		c-0.6,0-1.2,0.3-1.8,0.6c-0.5,0.3-0.9,0.6-1.2,0.9v-1.6l-0.2,0.1c-0.9,0.4-1.9,0.7-2.9,0.9h-0.1v0.6v0.1h0.1c0.6,0.1,0.9,0.2,1,0.3
		c0.1,0.2,0.2,0.5,0.2,1.2v4.3c0,0.7,0,1-0.2,1.2c-0.2,0.2-0.5,0.3-1.2,0.3H272v0.6v0.1h4.8L276.9,196L276.9,196z"/>
	<path d="M288.8,195.6c0.1,0.3,0.2,0.6,0.5,0.9c0.3,0.2,0.7,0.4,1.1,0.4l0,0l0,0l1.9-1.1l-0.2-0.6v-0.1l-0.1,0.1
		c-0.2,0.1-0.5,0.2-0.7,0.2c-0.1,0-0.3-0.1-0.4-0.2c-0.1-0.2-0.2-0.5-0.2-0.9v-3.9c0-1.1-0.2-2-1-2.7c-0.5-0.4-1.2-0.6-1.8-0.6l0,0
		l0,0c-1.2,0.3-2.6,1.1-3.2,1.5c-0.2,0.1-0.4,0.3-0.5,0.4c-0.1,0.1-0.2,0.3-0.2,0.5c0,0.3,0.2,0.5,0.3,0.7c0.2,0.2,0.4,0.3,0.7,0.3
		c0.3,0,0.6-0.2,0.7-0.6c0.2-0.6,0.4-1.1,0.6-1.3c0.2-0.2,0.5-0.4,0.8-0.4c0.5,0,0.9,0.2,1.2,0.6c0.3,0.4,0.5,0.9,0.5,1.7v0.3
		c-0.2,0.2-0.7,0.4-1.3,0.6c-0.6,0.2-1.3,0.5-1.9,0.7c-1.2,0.4-1.8,1.1-1.8,2.2c0,1.4,1.1,2.7,2.6,2.7c0.4,0,0.8-0.2,1.2-0.5
		C288,196.1,288.4,195.8,288.8,195.6L288.8,195.6z M287,192.5c0.4-0.2,1.2-0.6,1.7-0.8v3c-0.4,0.4-1.1,0.7-1.6,0.7
		c-0.6,0-1.4-0.5-1.4-1.5c0-0.4,0.1-0.6,0.3-0.8C286.2,192.8,286.5,192.6,287,192.5z"/>
	<path d="M297.4,196.6v-0.7v-0.1h-0.1c-0.7-0.1-1-0.1-1.2-0.3c-0.2-0.2-0.2-0.5-0.2-1.2v-13h-0.2c-0.7,0.3-2,0.6-3.1,0.7h-0.1v0.6
		v0.1h0.1c0.7,0.1,1,0.1,1.2,0.3c0.2,0.1,0.2,0.5,0.2,1.2v10c0,0.7-0.1,1-0.2,1.2c-0.2,0.2-0.5,0.3-1.2,0.3h-0.1v0.6v0.1h0.1
		L297.4,196.6L297.4,196.6z"/>
	<path d="M302.9,200.1L302.9,200.1c0.7-0.2,1.4-0.6,2.1-1.3c1.4-1.3,1.8-2.8,1.8-5.5v-7.9c0-0.9,0-1.3,0.3-1.6
		c0.2-0.2,0.6-0.3,1.4-0.4h0.1v-0.1v-0.6v-0.1H303v0.7v0.1h0.1c0.9,0.1,1.3,0.1,1.5,0.4c0.2,0.2,0.3,0.7,0.3,1.6v7.2
		c0,1.8,0,3-0.2,4c-0.2,1.2-0.8,2.1-2,2.7h-0.1L302.9,200.1L302.9,200.1z"/>
	<path d="M313.9,196.9c1.1,0,2.2-0.4,3.1-1.3s1.5-2.1,1.5-3.9c0-1.3-0.5-2.5-1.3-3.4c-0.8-0.9-2-1.4-3.3-1.4l0,0
		c-1,0-2.2,0.4-3.1,1.2c-0.9,0.9-1.6,2.1-1.6,3.9c0,1.2,0.4,2.4,1.2,3.3C311.3,196.3,312.5,196.9,313.9,196.9L313.9,196.9z
		 M312.1,188.8c0.4-0.6,1-0.9,1.6-0.9l0,0c0.9,0,1.5,0.5,2,1.2c0.5,0.8,0.7,1.9,0.7,3.1c0,1.4-0.3,2.4-0.7,3c-0.4,0.6-1,0.8-1.6,0.8
		c-0.8,0-1.5-0.5-2-1.3c-0.5-0.8-0.8-1.9-0.8-3.2C311.4,190.3,311.7,189.4,312.1,188.8z"/>
	<path d="M320.1,188.2c0.3,0,0.4,0.1,0.5,0.2s0.1,0.4,0.1,1v4.1c0,1.2,0.3,2,0.8,2.5c0.5,0.5,1.2,0.8,1.9,0.8c0.6,0,1.1-0.2,1.7-0.5
		c0.5-0.3,1-0.6,1.4-1v1.3l0.2,0.2l0,0h0.1c0.4-0.1,0.9-0.3,1.5-0.4c0.6-0.1,1.2-0.3,1.6-0.3h0.1V196v-0.6v-0.1h-0.7
		c-0.4,0-0.6-0.1-0.7-0.2c-0.1-0.1-0.2-0.4-0.2-0.9V187h-0.1c-0.3,0.1-0.8,0.1-1.4,0.2c-0.6,0-1.3,0.1-1.9,0.1h-0.1v0.6v0.1l0.9,0.1
		c0.3,0,0.5,0.1,0.6,0.3c0.1,0.2,0.2,0.4,0.2,1v4.9c-0.7,0.6-1.5,0.9-2.2,0.9c-0.5,0-0.9-0.1-1.2-0.5c-0.3-0.3-0.5-0.9-0.5-1.8v-2.8
		c0-1.4,0-2.4,0.1-3v-0.2h-0.1c-0.3,0.1-0.9,0.1-1.5,0.2c-0.6,0-1.1,0.1-1.5,0.1h-0.1v0.6v0.1L320.1,188.2z"/>
	<path d="M335.7,196L335.7,196L335.7,196c-0.9-0.2-1.3-0.2-1.5-0.4c-0.2-0.2-0.2-0.5-0.2-1.2v-3.8c0.5-1.2,1.1-1.7,1.6-1.7
		c0.3,0,0.5,0.1,0.8,0.4c0.1,0.1,0.2,0.1,0.3,0.1c0.1,0,0.2,0,0.3-0.1c0.4-0.2,0.7-0.7,0.7-1.1c0-0.6-0.6-1.2-1.3-1.2
		c-1,0-1.8,1-2.5,2v-2.1l-0.2,0.1c-1,0.4-1.9,0.7-2.9,0.8h-0.1v0.6v0.1h0.1c0.6,0.1,0.9,0.1,1,0.3c0.1,0.2,0.2,0.5,0.2,1.2v4.4
		c0,0.7,0,1-0.2,1.2c-0.2,0.2-0.5,0.3-1.1,0.3h-0.1v0.6v0.1h5.1L335.7,196z"/>
	<path d="M343.2,196L343.2,196l-0.1-0.1c-0.6-0.1-0.9-0.1-1.1-0.3c-0.1-0.2-0.2-0.5-0.2-1.2v-4.9c0.6-0.5,1.4-1,2.2-1
		c0.7,0,1.1,0.2,1.4,0.6c0.3,0.4,0.4,1,0.4,1.7v3.5c0,0.7,0,1.1-0.2,1.3c-0.1,0.2-0.5,0.3-1.1,0.3h-0.1v0.6v0.1h0.1h4.5v-0.7v-0.1
		h-0.1c-0.6-0.1-0.9-0.1-1.1-0.3c-0.1-0.2-0.2-0.5-0.2-1.2v-4.1c0-1-0.3-1.8-0.8-2.4c-0.5-0.6-1.2-0.9-2.1-0.9
		c-0.6,0-1.2,0.3-1.8,0.6c-0.5,0.3-0.9,0.6-1.2,0.9v-1.6l-0.2,0.1c-0.9,0.4-1.9,0.7-2.9,0.9h-0.1v0.6v0.1h0.1c0.6,0.1,0.9,0.2,1,0.3
		c0.1,0.2,0.2,0.5,0.2,1.2v4.3c0,0.7,0,1-0.2,1.2c-0.2,0.2-0.5,0.3-1.2,0.3h-0.1v0.6v0.1h4.8L343.2,196L343.2,196z"/>
	<path d="M353.7,191.3c-0.6,0.2-1.3,0.5-1.9,0.7c-1.2,0.4-1.8,1.1-1.8,2.2c0,1.4,1.1,2.7,2.6,2.7c0.4,0,0.8-0.2,1.2-0.5
		c0.4-0.2,0.8-0.5,1.2-0.8c0.1,0.3,0.2,0.6,0.5,0.9c0.3,0.2,0.7,0.4,1.1,0.4l0,0l0,0l1.9-1.1l-0.3-0.6v-0.1l-0.1,0.1
		c-0.2,0.1-0.5,0.2-0.7,0.2c-0.1,0-0.3-0.1-0.4-0.2c-0.1-0.2-0.2-0.5-0.2-0.9v-3.9c0-1.1-0.2-2-1-2.7c-0.5-0.4-1.2-0.6-1.8-0.6l0,0
		l0,0c-1.2,0.3-2.6,1.1-3.2,1.5c-0.2,0.1-0.4,0.3-0.5,0.4c-0.1,0.1-0.2,0.3-0.2,0.5c0,0.3,0.2,0.5,0.3,0.7c0.2,0.2,0.4,0.3,0.7,0.3
		s0.6-0.2,0.7-0.6c0.2-0.6,0.4-1.1,0.6-1.3c0.2-0.2,0.5-0.4,0.8-0.4c0.5,0,0.9,0.2,1.2,0.6c0.3,0.4,0.5,0.9,0.5,1.7v0.3
		C354.7,190.9,354.2,191.1,353.7,191.3z M354.9,194.7c-0.4,0.4-1.1,0.7-1.6,0.7c-0.6,0-1.4-0.5-1.4-1.5c0-0.4,0.1-0.6,0.3-0.8
		c0.2-0.2,0.5-0.4,0.9-0.6c0.4-0.2,1.2-0.6,1.7-0.8L354.9,194.7L354.9,194.7z"/>
	<path d="M363.6,196.6v-0.7v-0.1h-0.1c-0.7-0.1-1-0.1-1.2-0.3c-0.2-0.2-0.2-0.5-0.2-1.2v-13h-0.2c-0.7,0.3-2,0.6-3.1,0.7h-0.1v0.6
		v0.1h0.1c0.7,0.1,1,0.1,1.2,0.3c0.2,0.1,0.2,0.5,0.2,1.2v10c0,0.7-0.1,1-0.2,1.2c-0.2,0.2-0.5,0.3-1.2,0.3h-0.1v0.6v0.1h0.1
		L363.6,196.6L363.6,196.6z"/>
	<path d="M378.5,191.8c0-1.3-0.5-2.5-1.3-3.4c-0.8-0.9-2-1.4-3.3-1.4l0,0c-1,0-2.2,0.4-3.1,1.2c-0.9,0.9-1.6,2.1-1.6,3.9
		c0,1.2,0.4,2.4,1.2,3.3c0.8,0.9,2,1.5,3.5,1.5c1.1,0,2.2-0.4,3.1-1.3C377.9,194.8,378.5,193.5,378.5,191.8L378.5,191.8z
		 M375.6,195.2c-0.4,0.6-1,0.8-1.6,0.8c-0.8,0-1.5-0.5-2-1.3c-0.5-0.8-0.8-1.9-0.8-3.2c0-1.2,0.3-2.1,0.7-2.7c0.4-0.6,1-0.9,1.6-0.9
		l0,0c0.9,0,1.5,0.5,2,1.2c0.5,0.8,0.7,1.9,0.7,3.1C376.3,193.6,376,194.6,375.6,195.2L375.6,195.2z"/>
	<path d="M379.4,188.3h1.4v6.1c0,0.7,0,1-0.2,1.2c-0.2,0.2-0.5,0.3-1.2,0.3h-0.1v0.6v0.1h5.2V196v-0.1h-0.1
		c-0.8-0.1-1.3-0.2-1.5-0.3c-0.2-0.2-0.3-0.5-0.3-1.3v-5.9h2.2l0,0c0.2-0.1,0.3-0.5,0.3-0.7c0-0.1,0-0.2-0.1-0.3l0,0h-2.4v-0.7v-0.2
		c0-1.7,0.2-2.6,0.5-3c0.2-0.3,0.5-0.6,1-0.6c0.6,0,1.2,0.4,1.6,0.7c0.1,0.1,0.3,0.2,0.4,0.2s0.2,0,0.3-0.1c0.2-0.2,0.4-0.4,0.4-0.6
		c0-0.1,0.1-0.2,0.1-0.3c0-0.2-0.1-0.4-0.2-0.5c-0.4-0.4-1-0.7-1.8-0.7l0,0l0,0c-0.9,0.1-1.6,0.5-2.4,1.1c-1.2,1-1.5,2.1-1.7,2.5
		c-0.2,0.5-0.2,1.1-0.2,1.8v0.3h-0.9l0,0l-0.6,0.7L379.4,188.3L379.4,188.3z"/>
	<path d="M198.7,203.4L198.7,203.4c-3.2,0-5.8,1.3-7.6,3.2c-1.8,2-2.7,4.6-2.7,7.4c0,3,1.1,5.5,2.9,7.3c1.8,1.8,4.3,2.9,7,2.9
		c2.8,0,5.4-1,7.2-2.8c1.9-1.8,3-4.5,3-7.8c0-3-1.2-5.6-3-7.4C203.7,204.4,201.3,203.4,198.7,203.4z M198.9,222.8
		c-2.1,0-3.9-1-5.2-2.7c-1.3-1.7-2.1-4.2-2.1-7c0-5.7,3-8.4,6.3-8.5l0,0c3.9,0,7.2,3.3,7.2,9.7C205.2,220.1,202.3,222.8,198.9,222.8
		z"/>
	<path d="M225.7,221.5c-0.8-0.8-1.4-1.6-2.4-3.1c-0.9-1.3-2.1-3.3-2.6-4.2c2.2-1,3.8-2.6,3.8-5.2c0-1.8-0.8-3.3-2.1-4.1
		c-1.2-0.8-2.7-1-4.9-1h-7.6v1v0.1h0.1c1.2,0.1,1.8,0.2,2.1,0.5s0.4,1,0.4,2.3v12.1c0,1.3-0.1,1.9-0.4,2.3c-0.3,0.3-1,0.4-2.2,0.5
		h-0.1v0.9v0.1h8.1v-0.9v-0.1h-0.1c-1.2-0.1-1.8-0.2-2.1-0.6c-0.3-0.3-0.4-1-0.4-2.3v-4.7h0.9c0.8,0,1.3,0.1,1.6,0.3
		c0.4,0.2,0.6,0.5,0.9,0.9c0.9,1.5,2,3.3,3.1,4.8c1.4,2,2.7,2.7,5,2.8c0.3,0,0.7,0,1.1,0h0.1v-0.1l0.1-0.8v-0.1H228
		C227.2,222.7,226.5,222.4,225.7,221.5z M215.2,206.6c0-0.4,0-0.7,0.1-0.9c0-0.2,0.1-0.3,0.2-0.3c0.2-0.2,0.7-0.3,1.6-0.3
		c1.1,0,2.2,0.3,3,1s1.3,1.8,1.3,3.4c0,1.6-0.5,2.8-1.6,3.7c-0.7,0.6-1.7,0.9-3.2,0.9h-1.3L215.2,206.6L215.2,206.6z"/>
	<path d="M246,222c-0.4-0.4-0.8-1.1-1.2-2.4c-1.9-5.2-4-11-5.8-16.2v-0.1l-1.1,0.3l-6.3,15.9c-0.5,1.3-0.9,2.1-1.3,2.4
		c-0.4,0.4-1,0.5-2,0.6h-0.1v0.9v0.1h6.8v-0.9v-0.1h-0.1c-0.8-0.1-1.3-0.2-1.7-0.3c-0.3-0.2-0.4-0.3-0.4-0.7c0-0.3,0.1-0.7,0.3-1.3
		c0.4-1.2,0.8-2.5,1.3-3.8h6.3c0.6,1.8,1.2,3.4,1.6,4.6c0.1,0.3,0.1,0.5,0.1,0.7c0,0.3-0.1,0.4-0.4,0.5c-0.3,0.1-0.8,0.2-1.5,0.3
		h-0.1v0.9v0.1h0.1h7.5v-0.9v-0.1h-0.1C247,222.5,246.4,222.4,246,222L246,222z M240.1,215h-5.2c0.9-2.4,1.8-4.9,2.7-7.3L240.1,215z
		"/>
	<path d="M263.5,218.5L263.5,218.5L263.5,218.5c-0.5,1.5-1.1,2.4-1.6,3c-0.7,0.7-1.6,0.9-3.3,0.9c-1.3,0-2.3-0.1-2.8-0.4
		c-0.2-0.1-0.4-0.3-0.5-0.7s-0.1-0.9-0.1-1.7v-11.9c0-1.3,0.1-1.9,0.4-2.3c0.3-0.3,1-0.4,2.1-0.5h0.1V204v-0.1h-8.1v1v0.1h0.1
		c1.2,0.1,1.9,0.2,2.2,0.5c0.3,0.3,0.4,1,0.4,2.3v12.1c0,1.3-0.1,2-0.4,2.3c-0.3,0.3-1,0.5-2.3,0.6h-0.1v0.9v0.1h13.9v-0.1
		c0.3-0.9,0.9-3.8,1.1-4.8v-0.1h-0.1L263.5,218.5z"/>
	<path d="M283.2,214.4c-1-0.9-2.3-1.6-3.5-2.2c-1.2-0.6-2.1-1.2-2.8-1.8c-0.6-0.7-1-1.5-1-2.5c0-1.6,1-3.2,3.2-3.2
		c1.3,0,2.1,0.5,2.7,1.2s0.9,1.7,1.2,2.7v0.1h0.1l0.9-0.2h0.1v-0.1c-0.2-1.9-0.4-3.1-0.5-4.2v-0.1h-0.1c-1.2-0.4-2.4-0.7-3.8-0.7
		c-2,0-3.6,0.6-4.7,1.6c-1.1,1-1.7,2.4-1.7,3.9c0,1.7,0.8,3,1.8,3.9c1,0.9,2.3,1.6,3.2,2.1c1.1,0.6,2.1,1.2,2.8,1.8
		c0.7,0.7,1.1,1.5,1.1,2.6c0,1.1-0.3,2-0.9,2.6c-0.6,0.6-1.5,0.9-2.6,0.9c-1.5,0-2.6-0.7-3.4-1.7c-0.8-1-1.2-2.2-1.5-3.1v-0.1
		l-1.1,0.3v0.1c0.2,1.5,0.6,4,0.8,4.7l0,0l0,0c0.3,0.2,0.8,0.4,1.5,0.6s1.7,0.5,3,0.5c2,0,3.7-0.6,4.9-1.7c1.2-1.1,1.9-2.5,1.9-4.1
		C285,216.6,284.3,215.3,283.2,214.4L283.2,214.4z"/>
	<path d="M304.4,218.2L304.4,218.2l-0.1,0.1c-1.5,3-3.1,4.6-6.1,4.6c-4.5,0-7.8-3.8-7.8-9.4c0-4.6,2.7-8.8,7.6-8.8
		c1.6,0,2.9,0.3,3.8,1s1.6,1.8,2,3.4v0.1l1.1-0.3v-0.1c-0.2-1.6-0.4-2.9-0.6-4.6v-0.1h-0.1c-0.8-0.1-2.9-0.8-5.4-0.8
		c-3.4,0-6.3,1.1-8.4,2.9c-2.1,1.9-3.3,4.5-3.3,7.8c0,2.4,0.8,5,2.6,6.9s4.5,3.2,8.3,3.2c2.2,0,4.7-0.6,5.6-0.8l0,0l0,0
		c0.6-1,1.3-3.3,1.7-4.7v-0.1h-0.1L304.4,218.2z"/>
	<path d="M306.8,204.8L306.8,204.8L306.8,204.8c1.3,0.2,2,0.3,2.3,0.6s0.4,1,0.4,2.3v12.1c0,1.3-0.1,1.9-0.4,2.3
		c-0.3,0.3-1,0.4-2.2,0.5h-0.1v0.9v0.1h0.1h8.1v-0.9v-0.1l0,0c-1.2-0.1-1.9-0.2-2.2-0.5c-0.3-0.3-0.4-1-0.4-2.3v-12.1
		c0-1.3,0.1-1.9,0.4-2.3c0.3-0.3,1-0.4,2.2-0.5h0.1V204v-0.1h-8.2L306.8,204.8L306.8,204.8z"/>
	<path d="M331.6,218.6L331.6,218.6L331.6,218.6c-0.5,1.3-1.1,2.3-1.6,2.9c-0.3,0.4-0.7,0.6-1.2,0.8c-0.6,0.2-1.3,0.2-2.5,0.2
		c-1.5,0-2.6,0-3.1-0.4c-0.3-0.2-0.4-0.4-0.5-0.8c-0.1-0.4-0.2-0.9-0.2-1.6v-5.6h2.8c1.3,0,2,0,2.4,0.3s0.5,0.8,0.7,1.9v0.1h1h0.1
		v-6h-1h-0.1v0.1c-0.2,1-0.3,1.5-0.7,1.8c-0.4,0.3-1.1,0.3-2.5,0.3h-2.7v-6.8c0-0.4,0-0.7,0.1-0.7c0.1-0.1,0.3-0.1,0.8-0.1h2.3
		c1.1,0,1.8,0,2.3,0.2c0.5,0.1,0.8,0.3,1,0.6c0.4,0.6,0.7,1.3,0.9,2.5v0.1l1-0.1h0.1v-0.1c-0.1-1.6-0.2-3.6-0.2-4.3v-0.1h-13.7v0.9
		v0.1h0.1c1.2,0.1,1.8,0.2,2.1,0.5c0.3,0.3,0.4,1,0.4,2.4v12c0,1.2-0.1,1.9-0.4,2.2c-0.3,0.4-1.1,0.5-2.5,0.6h-0.1v0.9v0.1h14.8
		v-0.1c0.3-0.9,0.9-3.8,1.1-4.8v-0.1h-0.1L331.6,218.6z"/>
	<path d="M347.5,204.8L347.5,204.8l0.1,0.1c1.1,0.1,1.7,0.2,2.2,0.5c0.5,0.3,0.6,0.6,0.7,1.3c0.1,0.8,0.2,2.2,0.2,5v7.2l-12.6-15.1
		h-4.6v1v0.1h0.1c1.4,0.1,2,0.3,2.6,1.1c0.3,0.4,0.4,0.6,0.5,0.9c0.1,0.4,0.1,1,0.1,2.1v6.6c0,2.7-0.1,4.2-0.2,5.2
		c-0.1,0.7-0.3,1.1-0.7,1.4c-0.4,0.3-1,0.4-1.9,0.5h-0.1v0.9v0.1h7.4v-0.9v-0.1h-0.1c-1-0.1-1.7-0.2-2.1-0.5
		c-0.4-0.3-0.6-0.7-0.7-1.5c-0.1-0.9-0.2-2.3-0.2-5.1v-7.3L351,224h1h0.1v-12.3c0-2.8,0.1-4.2,0.2-5.1c0.1-0.6,0.3-1,0.6-1.3
		c0.4-0.3,1-0.4,1.8-0.4h0.1v-0.1v-0.9v-0.1h-7.4L347.5,204.8L347.5,204.8z"/>
	<path d="M372.3,218.2L372.3,218.2L372.3,218.2c-1.6,3.1-3.2,4.7-6.2,4.7c-4.5,0-7.8-3.8-7.8-9.4c0-4.6,2.7-8.8,7.6-8.8
		c1.6,0,2.9,0.3,3.8,1c0.9,0.7,1.6,1.8,2,3.4v0.1l1.1-0.3v-0.1c-0.2-1.6-0.4-2.9-0.6-4.6v-0.1h-0.1c-0.8-0.1-2.9-0.8-5.4-0.8
		c-3.4,0-6.3,1.1-8.4,2.9c-2.1,1.9-3.3,4.5-3.3,7.8c0,2.4,0.8,5,2.6,6.9c1.8,1.9,4.5,3.2,8.3,3.2c2.2,0,4.7-0.6,5.6-0.8l0,0l0,0
		c0.6-1,1.3-3.3,1.7-4.7v-0.1h-0.1L372.3,218.2z"/>
	<path d="M389.9,218.7l-0.9-0.1h-0.1v0.1c-0.4,1.2-1,2.2-1.5,2.8c-0.3,0.4-0.7,0.6-1.2,0.8c-0.6,0.2-1.3,0.2-2.5,0.2
		c-1.5,0-2.6,0-3.1-0.4c-0.3-0.2-0.4-0.4-0.5-0.8c-0.1-0.4-0.2-0.9-0.2-1.6v-5.6h2.8c1.3,0,2,0,2.4,0.3c0.4,0.3,0.5,0.8,0.7,1.9v0.1
		h1h0.1v-6h-1h-0.1v0.1c-0.2,1-0.3,1.5-0.7,1.8s-1.1,0.3-2.5,0.3h-2.7v-6.8c0-0.4,0-0.7,0.1-0.7c0.1-0.1,0.3-0.1,0.8-0.1h2.3
		c1.1,0,1.8,0,2.3,0.2c0.5,0.1,0.8,0.3,1,0.6c0.4,0.6,0.7,1.3,0.9,2.5v0.1l1-0.1h0.1v-0.1c-0.1-1.6-0.2-3.6-0.2-4.3v-0.1h-13.7v0.9
		v0.1h0.1c1.2,0.1,1.8,0.2,2.1,0.5c0.3,0.3,0.4,1,0.4,2.4v12c0,1.2-0.1,1.9-0.4,2.2c-0.3,0.4-1.1,0.5-2.5,0.6h-0.1v0.9v0.1h14.8
		v-0.1C389.2,222.5,389.7,219.6,389.9,218.7L389.9,218.7L389.9,218.7z"/>
</g>
</svg>
