<?xml version="1.0" encoding="utf-8"?>
<!-- Generator: Adobe Illustrator 26.2.1, SVG Export Plug-In . SVG Version: 6.00 Build 0)  -->
<svg version="1.1" id="Layer_1" xmlns="http://www.w3.org/2000/svg" xmlns:xlink="http://www.w3.org/1999/xlink" x="0px" y="0px"
	 viewBox="0 0 400 400" style="enable-background:new 0 0 400 400;" xml:space="preserve">
<g>
	<path d="M0,163.2l0.2,0c2,0.1,3.6,0.3,4.8,0.6c0.9,0.2,1.6,0.5,2.1,0.8c0.8,0.5,1.2,1.3,1.5,2.6c0.3,1.3,0.3,3,0.3,5.4v39.8
		c0,2.1,0,3.7-0.2,4.9c-0.1,0.9-0.4,1.6-0.7,2.1c-0.5,0.8-1.3,1.3-2.5,1.6s-2.9,0.5-5.2,0.7l-0.3,0v3.3h0.3h26.6v-3.3l-0.2,0
		c-2-0.1-3.6-0.3-4.8-0.5c-0.9-0.2-1.6-0.4-2.1-0.8c-0.8-0.5-1.2-1.3-1.5-2.6c-0.3-1.3-0.3-3-0.3-5.4v-39.8c0-2.1,0-3.7,0.2-4.9
		c0.1-0.9,0.4-1.6,0.7-2.1c0.5-0.8,1.3-1.3,2.5-1.6c1.2-0.3,2.9-0.5,5.2-0.7l0.2,0v-3.3H0V163.2z"/>
	<path d="M32,163.2l0.2,0c2,0.1,3.6,0.3,4.7,0.6c0.9,0.2,1.6,0.5,2.1,0.8c0.8,0.5,1.2,1.3,1.5,2.6c0.3,1.3,0.3,3,0.3,5.3v33.9
		c0,8.3-0.2,14.1-1,18.8c-1.1,5.6-3.9,10.1-9.4,12.8l-0.2,0.1l1.4,3.2l0.2-0.1c2.6-0.8,6-2.7,9.3-5.8c3.3-3.1,5.5-6.3,6.8-10.4
		c1.3-4.1,1.8-9,1.8-15.4v-37.2c0-2.1,0-3.7,0.2-4.9c0.1-0.9,0.4-1.6,0.7-2.2c0.5-0.8,1.2-1.3,2.4-1.6c1.2-0.3,2.8-0.5,4.9-0.7
		l0.2,0V163v-3.1H32V163.2z"/>
	<path d="M93,158.4L93,158.4c-10.6,0-19.1,4.2-24.8,10.6c-5.8,6.5-8.9,15.1-8.9,24.1c0,9.7,3.6,18,9.5,23.9c5.9,5.9,14,9.4,23.1,9.4
		c9.2,0,17.5-3.3,23.6-9.3c6.1-6,9.9-14.7,9.9-25.6c0-10-3.8-18.3-9.8-24.2C109.6,161.7,101.5,158.4,93,158.4z M93.9,222.5
		c-6.9,0-12.9-3.4-17.2-9c-4.3-5.7-6.8-13.7-6.8-23c0-9.3,2.5-16.3,6.4-20.9c3.9-4.6,9.1-7,14.5-7h0.1c6.4,0,12.3,2.7,16.7,8.1
		c4.3,5.4,7,13.3,7,23.8c0,9.5-2.4,16.5-6.3,21.1S99.4,222.5,93.9,222.5z"/>
	<path d="M162.5,194.7c-3.4-3.1-7.7-5.3-11.6-7.3c-3.9-2-7-3.8-9.2-6.1s-3.3-4.8-3.3-8.4c0-2.6,0.8-5.3,2.6-7.2s4.4-3.3,8.2-3.3
		c4.3,0,7,1.7,8.9,4.1c1.9,2.4,3,5.7,3.9,8.8l0.1,0.2l0.2,0l3.1-0.5l0-0.3c-0.8-6.3-1.3-10.1-1.7-13.7l0-0.2l-0.2,0
		c-3.8-1.2-8-2.3-12.6-2.3c-6.5,0-11.7,2.1-15.2,5.3c-3.6,3.3-5.5,7.8-5.5,12.6c0,5.7,2.6,9.8,5.9,12.9s7.5,5.2,10.6,6.9
		c3.7,2,6.9,3.8,9.2,6.1c2.3,2.2,3.6,4.9,3.6,8.5c0,3.6-1.1,6.5-3.1,8.5s-4.9,3.2-8.6,3.2c-5.1,0-8.7-2.5-11.3-5.7
		c-2.6-3.2-4-7.2-4.8-10.2l-0.1-0.3l-3.5,0.8l0,0.2c0.3,2.4,0.8,5.7,1.3,8.7c0.5,3,1,5.7,1.3,6.7l0,0.1l0.1,0c1,0.5,2.5,1.2,5,2.1
		c2.4,0.7,5.7,1.5,9.8,1.5c6.7,0,12.3-2.1,16.2-5.6c3.9-3.4,6.2-8.2,6.2-13.5C168.3,201.8,165.9,197.8,162.5,194.7L162.5,194.7z"/>
	<path d="M194.8,196.4v-0.7v-0.1h-0.1c-0.9-0.1-1.4-0.1-1.6-0.4c-0.2-0.2-0.3-0.7-0.3-1.7v-8.9c0-0.9,0-1.4,0.3-1.6
		c0.2-0.2,0.7-0.3,1.6-0.4h0.1v-0.7v-0.1h-6.1v0.7v0.1h0.1c0.9,0.1,1.4,0.1,1.6,0.4c0.2,0.2,0.3,0.7,0.3,1.6v8.9
		c0,0.9,0,1.4-0.3,1.6c-0.2,0.2-0.7,0.3-1.6,0.4h-0.1v0.7v0.1h0.1H194.8z"/>
	<path d="M200.6,195.7v-0.1l-0.1,0c-0.6-0.1-1-0.1-1.1-0.3c-0.1-0.2-0.2-0.5-0.2-1.3v-5.1c0.6-0.5,1.5-1.1,2.3-1.1
		c0.7,0,1.2,0.2,1.5,0.6c0.3,0.4,0.4,1,0.4,1.8v3.7c0,0.8,0,1.2-0.2,1.4c-0.1,0.2-0.5,0.3-1.1,0.3l-0.1,0v0.7v0.1h0.1h4.8v-0.7v-0.1
		l-0.1,0c-0.6-0.1-1-0.1-1.1-0.3c-0.1-0.2-0.2-0.5-0.2-1.3v-4.3c0-1.1-0.3-1.9-0.8-2.6c-0.5-0.6-1.3-0.9-2.2-0.9
		c-0.7,0-1.3,0.3-1.9,0.7c-0.5,0.3-0.9,0.6-1.3,0.9v-1.7l-0.2,0.1c-1,0.4-2,0.7-3.1,0.9l-0.1,0v0.6v0.1l0.1,0c0.6,0.1,0.9,0.2,1,0.4
		c0.1,0.2,0.2,0.5,0.2,1.2v4.6c0,0.7,0,1.1-0.2,1.3c-0.2,0.2-0.5,0.3-1.3,0.3l-0.1,0v0.7v0.1h5.1L200.6,195.7L200.6,195.7z"/>
	<path d="M211.8,196.4l1.6-0.8l-0.2-0.6l0-0.1l-0.1,0.1c-0.3,0.1-0.8,0.3-1.3,0.3c-0.3,0-0.5-0.1-0.8-0.3c-0.2-0.3-0.4-0.8-0.4-1.6
		v-5.6h2.3l0,0c0.2-0.1,0.3-0.4,0.3-0.6c0-0.2,0-0.3-0.2-0.4l0,0h-2.4v-3l-0.4-0.1l-0.1,0l-1.5,1.6v1.5h-0.9h0l-0.7,0.7l0.1,0.3
		l0,0.1h1.5v6.3c0,0.9,0.2,1.6,0.6,2c0.4,0.5,1,0.7,1.7,0.7C211.1,196.7,211.4,196.6,211.8,196.4z"/>
	<path d="M215.1,195.2c0.8,0.9,1.9,1.5,3.3,1.5c0.7,0,2.3-0.4,3.7-2.2l0-0.1l0-0.1l-0.3-0.5l-0.1-0.1l-0.1,0.1
		c-0.8,0.7-1.6,1.1-2.5,1.1c-1.5,0-3.1-1.1-3.2-4c2.6-0.1,5.3-0.3,5.7-0.4c0.2,0,0.4-0.1,0.5-0.3c0.1-0.1,0.1-0.3,0.1-0.5
		c0-1.8-1.5-3.5-3.4-3.5h0c-1.2,0-2.4,0.6-3.3,1.7c-0.9,1-1.5,2.4-1.5,3.9C213.9,193.1,214.3,194.3,215.1,195.2L215.1,195.2z
		 M218.2,187.3L218.2,187.3c1.1,0,1.8,1,1.8,2v0c0,0.1,0,0.2-0.1,0.2c0,0-0.1,0.1-0.3,0.1c-1.2,0-2.4,0.1-3.6,0.1
		C216.4,188.1,217.3,187.3,218.2,187.3z"/>
	<path d="M229.9,188.7c0.5-0.2,0.8-0.7,0.8-1.2c0-0.6-0.6-1.2-1.4-1.2c-1.1,0-1.9,1.1-2.6,2.1v-2.2l-0.2,0.1c-1.1,0.4-2,0.7-3.1,0.9
		l-0.1,0v0.6v0.1l0.1,0c0.6,0.1,1,0.1,1.1,0.3c0.1,0.2,0.2,0.5,0.2,1.3v4.6c0,0.7,0,1.1-0.2,1.3c-0.2,0.2-0.5,0.3-1.2,0.3l-0.1,0
		v0.7v0.1h5.3v-0.7v-0.1l-0.1,0c-0.8-0.1-1.3-0.1-1.5-0.3c-0.2-0.2-0.2-0.5-0.2-1.3v-4c0.5-1.2,1.2-1.8,1.6-1.8
		c0.3,0,0.5,0.1,0.9,0.4c0.1,0.1,0.2,0.1,0.4,0.1C229.6,188.8,229.7,188.7,229.9,188.7z"/>
	<path d="M236.3,195.7v-0.1l-0.1,0c-0.7-0.1-1-0.1-1.1-0.3c-0.1-0.2-0.2-0.5-0.2-1.3v-5.1c0.6-0.5,1.5-1.1,2.3-1.1
		c0.7,0,1.2,0.2,1.5,0.6c0.3,0.4,0.4,1,0.4,1.8v3.7c0,0.8,0,1.2-0.2,1.4c-0.1,0.2-0.5,0.3-1.1,0.3l-0.1,0v0.7v0.1h0.1h4.8v-0.7v-0.1
		l-0.1,0c-0.6-0.1-1-0.1-1.1-0.3c-0.1-0.2-0.2-0.5-0.2-1.3v-4.3c0-1.1-0.3-1.9-0.8-2.6c-0.5-0.6-1.3-0.9-2.2-0.9
		c-0.7,0-1.3,0.3-1.9,0.7c-0.5,0.3-0.9,0.6-1.3,0.9v-1.7l-0.2,0.1c-1,0.4-2,0.7-3.1,0.9l-0.1,0v0.6v0.1l0.1,0c0.6,0.1,0.9,0.2,1,0.4
		c0.1,0.2,0.2,0.5,0.2,1.2v4.6c0,0.7,0,1.1-0.2,1.3c-0.2,0.2-0.5,0.3-1.3,0.3l-0.1,0v0.7v0.1h5.1L236.3,195.7L236.3,195.7z"/>
	<path d="M247.3,190.9c-0.6,0.2-1.4,0.5-2,0.7c-1.2,0.4-1.9,1.2-1.9,2.3c0,1.5,1.1,2.8,2.8,2.8c0.4,0,0.8-0.2,1.3-0.5
		c0.4-0.2,0.9-0.6,1.3-0.8c0.1,0.3,0.2,0.6,0.5,0.9c0.3,0.2,0.7,0.4,1.1,0.4h0l0,0l2-1.2l-0.3-0.7l0-0.1l-0.1,0.1
		c-0.2,0.1-0.5,0.2-0.7,0.2c-0.1,0-0.3-0.1-0.4-0.2c-0.1-0.2-0.2-0.5-0.2-1v-4.1c0-1.2-0.2-2.1-1-2.8c-0.5-0.4-1.2-0.6-1.9-0.6h0h0
		c-1.3,0.3-2.7,1.1-3.3,1.6c-0.2,0.1-0.4,0.3-0.5,0.4c-0.1,0.1-0.2,0.3-0.2,0.5c0,0.3,0.2,0.6,0.4,0.7c0.2,0.2,0.5,0.3,0.7,0.3
		c0.3,0,0.6-0.2,0.8-0.6c0.2-0.7,0.4-1.1,0.6-1.4c0.2-0.2,0.5-0.4,0.9-0.4c0.5,0,1,0.2,1.3,0.6s0.5,1,0.5,1.8v0.3
		C248.4,190.4,247.9,190.6,247.3,190.9z M248.7,194.4c-0.4,0.4-1.1,0.7-1.6,0.7c-0.6,0-1.4-0.5-1.4-1.6c0-0.4,0.1-0.6,0.3-0.9
		c0.2-0.2,0.5-0.4,1-0.6c0.4-0.2,1.3-0.6,1.8-0.8L248.7,194.4L248.7,194.4z"/>
	<path d="M252.3,187.6h1.5v6.3c0,0.9,0.2,1.6,0.6,2c0.4,0.5,1,0.7,1.7,0.7c0.2,0,0.6-0.1,1-0.3l1.6-0.8l-0.2-0.6l0-0.1l-0.1,0.1
		c-0.3,0.1-0.8,0.3-1.3,0.3c-0.3,0-0.5-0.1-0.8-0.3c-0.2-0.3-0.4-0.8-0.4-1.6v-5.6h2.3l0,0c0.2-0.1,0.3-0.4,0.3-0.6
		c0-0.2,0-0.3-0.2-0.4l0,0h-2.4v-3l-0.4-0.1l-0.1,0l-1.5,1.6v1.5h-0.9h0l-0.7,0.7L252.3,187.6L252.3,187.6z"/>
	<path d="M264.4,196.4v-0.7v-0.1l-0.1,0c-0.7-0.1-1.1-0.1-1.2-0.3c-0.2-0.2-0.2-0.6-0.2-1.3v-7.8l-0.2,0.1c-0.9,0.4-2,0.7-3.1,0.9
		l-0.1,0v0.6v0.1l0.1,0c0.7,0.1,1,0.2,1.1,0.3c0.1,0.2,0.2,0.5,0.2,1.2v4.6c0,0.7,0,1.1-0.2,1.3c-0.2,0.2-0.5,0.3-1.2,0.3l-0.1,0
		v0.7v0.1h0.1L264.4,196.4L264.4,196.4z"/>
	<path d="M261.7,184.3c0.7,0,1.2-0.6,1.2-1.2c0-0.7-0.5-1.3-1.2-1.3h0c-0.6,0-1.2,0.6-1.2,1.3C260.4,183.7,261,184.3,261.7,184.3z"
		/>
	<path d="M270.2,186.3L270.2,186.3c-1.1,0-2.3,0.4-3.3,1.3c-1,0.9-1.7,2.3-1.7,4.1c0,1.2,0.5,2.5,1.3,3.4c0.8,0.9,2.1,1.6,3.7,1.6
		c1.1,0,2.4-0.4,3.3-1.3c0.9-0.9,1.6-2.2,1.6-4.1c0-1.4-0.5-2.7-1.4-3.6C272.8,186.8,271.6,186.3,270.2,186.3L270.2,186.3z
		 M272.1,194.9c-0.4,0.6-1,0.8-1.7,0.8c-0.9,0-1.6-0.5-2.1-1.3c-0.5-0.8-0.8-2-0.8-3.4c0-1.2,0.3-2.2,0.7-2.8s1-0.9,1.7-0.9h0
		c0.9,0,1.6,0.5,2.1,1.3c0.5,0.8,0.7,2,0.7,3.2C272.8,193.3,272.5,194.3,272.1,194.9z"/>
	<path d="M281,195.7v-0.1l-0.1,0c-0.7-0.1-1-0.1-1.1-0.3c-0.1-0.2-0.2-0.5-0.2-1.3v-5.1c0.6-0.5,1.5-1.1,2.3-1.1
		c0.7,0,1.2,0.2,1.5,0.6c0.3,0.4,0.4,1,0.4,1.8v3.7c0,0.8,0,1.2-0.2,1.4c-0.1,0.2-0.5,0.3-1.1,0.3l-0.1,0v0.7v0.1h0.1h4.8v-0.7v-0.1
		l-0.1,0c-0.6-0.1-1-0.1-1.1-0.3c-0.1-0.2-0.2-0.5-0.2-1.3v-4.3c0-1.1-0.3-1.9-0.8-2.6c-0.5-0.6-1.3-0.9-2.2-0.9
		c-0.7,0-1.3,0.3-1.9,0.7c-0.5,0.3-0.9,0.6-1.3,0.9v-1.7l-0.2,0.1c-1,0.4-2,0.7-3.1,0.9l-0.1,0v0.6v0.1l0.1,0c0.6,0.1,0.9,0.2,1,0.4
		c0.1,0.2,0.2,0.5,0.2,1.2v4.6c0,0.7,0,1.1-0.2,1.3c-0.2,0.2-0.5,0.3-1.3,0.3l-0.1,0v0.7v0.1h5.1L281,195.7L281,195.7z"/>
	<path d="M293.4,195.3c0.1,0.3,0.2,0.6,0.5,0.9c0.3,0.2,0.7,0.4,1.1,0.4h0l0,0l2-1.2l-0.2-0.7l0-0.1l-0.1,0.1
		c-0.2,0.1-0.5,0.2-0.7,0.2c-0.1,0-0.3-0.1-0.4-0.2c-0.1-0.2-0.2-0.5-0.2-1v-4.1c0-1.2-0.2-2.1-1-2.8c-0.5-0.4-1.2-0.6-1.9-0.6h0h0
		c-1.3,0.3-2.7,1.1-3.3,1.6c-0.2,0.1-0.4,0.3-0.5,0.4c-0.1,0.1-0.2,0.3-0.2,0.5c0,0.3,0.2,0.6,0.4,0.7c0.2,0.2,0.5,0.3,0.7,0.3
		c0.3,0,0.6-0.2,0.8-0.6c0.2-0.7,0.4-1.1,0.6-1.4c0.2-0.2,0.5-0.4,0.9-0.4c0.5,0,1,0.2,1.3,0.6s0.5,1,0.5,1.8v0.3
		c-0.2,0.2-0.7,0.4-1.3,0.6c-0.6,0.2-1.4,0.5-2,0.7c-1.2,0.4-1.9,1.2-1.9,2.3c0,1.5,1.1,2.8,2.8,2.8c0.4,0,0.8-0.2,1.3-0.5
		C292.6,195.9,293,195.6,293.4,195.3L293.4,195.3z M291.5,192.1c0.4-0.2,1.3-0.6,1.8-0.8v3.2c-0.4,0.4-1.1,0.7-1.6,0.7
		c-0.6,0-1.4-0.5-1.4-1.6c0-0.4,0.1-0.6,0.3-0.9C290.8,192.5,291.1,192.3,291.5,192.1z"/>
	<path d="M302.5,196.4v-0.7v-0.1l-0.1,0c-0.7-0.1-1.1-0.1-1.2-0.3c-0.2-0.2-0.2-0.5-0.2-1.3v-13.6l-0.2,0c-0.7,0.3-2.1,0.6-3.3,0.8
		l-0.1,0v0.6v0.1l0.1,0c0.7,0.1,1.1,0.1,1.2,0.3c0.2,0.1,0.2,0.5,0.2,1.3V194c0,0.7-0.1,1.1-0.2,1.3c-0.2,0.2-0.5,0.3-1.2,0.3
		l-0.1,0v0.7v0.1h0.1L302.5,196.4L302.5,196.4z"/>
	<path d="M308.3,200.1L308.3,200.1c0.7-0.2,1.4-0.6,2.2-1.3c1.5-1.4,1.9-3,1.9-5.8v-8.3c0-0.9,0-1.4,0.3-1.6
		c0.2-0.2,0.6-0.3,1.5-0.4l0.1,0v-0.1v-0.6v-0.1h-6v0.7v0.1h0.1c0.9,0.1,1.4,0.1,1.6,0.4c0.2,0.2,0.3,0.7,0.3,1.6v7.6
		c0,1.9,0,3.1-0.2,4.2c-0.2,1.2-0.9,2.2-2.1,2.8l-0.1,0L308.3,200.1L308.3,200.1z"/>
	<path d="M319.9,196.7c1.1,0,2.4-0.4,3.3-1.3c0.9-0.9,1.6-2.2,1.6-4.1c0-1.4-0.5-2.7-1.4-3.6c-0.9-0.9-2.1-1.5-3.5-1.5h0
		c-1,0-2.3,0.4-3.3,1.3c-1,0.9-1.7,2.3-1.7,4.1c0,1.2,0.5,2.5,1.3,3.4C317.1,196.1,318.4,196.7,319.9,196.7L319.9,196.7z M318,188.2
		c0.4-0.6,1-0.9,1.7-0.9h0c0.9,0,1.6,0.5,2.1,1.3c0.5,0.8,0.7,2,0.7,3.2c0,1.5-0.3,2.5-0.7,3.1c-0.4,0.6-1,0.8-1.7,0.8
		c-0.9,0-1.6-0.5-2.1-1.3c-0.5-0.8-0.8-2-0.8-3.4C317.3,189.8,317.6,188.8,318,188.2z"/>
	<path d="M326.5,187.6c0.3,0,0.4,0.1,0.5,0.2c0.1,0.1,0.1,0.5,0.1,1v4.3c0,1.2,0.3,2.1,0.8,2.6s1.2,0.8,2,0.8c0.6,0,1.1-0.2,1.8-0.6
		c0.6-0.3,1-0.7,1.5-1v1.4l0.2,0.2l0,0l0.1,0c0.4-0.1,1-0.3,1.5-0.4c0.6-0.1,1.2-0.3,1.7-0.3l0.1,0v-0.1v-0.6v-0.1l-0.7,0
		c-0.4,0-0.6-0.1-0.8-0.2c-0.1-0.1-0.2-0.4-0.2-1v-7.5l-0.1,0c-0.3,0.1-0.9,0.1-1.5,0.2c-0.6,0-1.4,0.1-2,0.1h-0.1v0.6v0.1l0.9,0.1
		c0.4,0,0.5,0.1,0.7,0.3c0.1,0.1,0.2,0.4,0.2,1v5.1c-0.7,0.7-1.5,1-2.3,1c-0.5,0-0.9-0.1-1.3-0.5c-0.3-0.3-0.6-0.9-0.6-1.9v-3
		c0-1.5,0-2.5,0.1-3.2l0-0.2l-0.1,0c-0.3,0.1-1,0.1-1.6,0.2c-0.6,0-1.1,0.1-1.6,0.1h-0.1v0.6v0.1L326.5,187.6z"/>
	<path d="M342.8,195.7v-0.1l-0.1,0c-0.8-0.1-1.3-0.1-1.5-0.3c-0.2-0.2-0.2-0.5-0.2-1.3v-4c0.5-1.2,1.2-1.8,1.6-1.8
		c0.3,0,0.5,0.1,0.9,0.4c0.1,0.1,0.2,0.1,0.4,0.1c0.1,0,0.2,0,0.3-0.1c0.5-0.2,0.8-0.7,0.8-1.2c0-0.6-0.6-1.2-1.4-1.2
		c-1.1,0-1.9,1.1-2.6,2.1v-2.2l-0.2,0.1c-1.1,0.4-2,0.7-3.1,0.9l-0.1,0v0.6v0.1l0.1,0c0.6,0.1,1,0.1,1.1,0.3
		c0.1,0.2,0.2,0.5,0.2,1.3v4.6c0,0.7,0,1.1-0.2,1.3s-0.5,0.3-1.2,0.3l-0.1,0v0.7v0.1h5.3L342.8,195.7z"/>
	<path d="M350.7,195.7v-0.1l-0.1,0c-0.6-0.1-1-0.1-1.1-0.3c-0.1-0.2-0.2-0.5-0.2-1.3v-5.1c0.6-0.5,1.5-1.1,2.3-1.1
		c0.7,0,1.2,0.2,1.5,0.6c0.3,0.4,0.4,1,0.4,1.8v3.7c0,0.8,0,1.2-0.2,1.4c-0.1,0.2-0.5,0.3-1.1,0.3l-0.1,0v0.7v0.1h0.1h4.8v-0.7v-0.1
		l-0.1,0c-0.6-0.1-1-0.1-1.1-0.3c-0.1-0.2-0.2-0.5-0.2-1.3v-4.3c0-1.1-0.3-1.9-0.8-2.6c-0.5-0.6-1.3-0.9-2.2-0.9
		c-0.7,0-1.3,0.3-1.9,0.7c-0.5,0.3-0.9,0.6-1.3,0.9v-1.7l-0.2,0.1c-1,0.4-2,0.7-3.1,0.9l-0.1,0v0.6v0.1l0.1,0c0.6,0.1,0.9,0.2,1,0.4
		c0.1,0.2,0.2,0.5,0.2,1.2v4.6c0,0.7,0,1.1-0.2,1.3c-0.2,0.2-0.5,0.3-1.3,0.3l-0.1,0v0.7v0.1h5.1L350.7,195.7L350.7,195.7z"/>
	<path d="M361.8,190.9c-0.6,0.2-1.4,0.5-2,0.7c-1.2,0.4-1.9,1.2-1.9,2.3c0,1.5,1.1,2.8,2.8,2.8c0.4,0,0.8-0.2,1.3-0.5
		c0.4-0.2,0.9-0.6,1.3-0.8c0.1,0.3,0.2,0.6,0.5,0.9c0.3,0.2,0.7,0.4,1.1,0.4h0l0,0l2-1.2l-0.3-0.7l0-0.1l-0.1,0.1
		c-0.2,0.1-0.5,0.2-0.7,0.2c-0.1,0-0.3-0.1-0.4-0.2c-0.1-0.2-0.2-0.5-0.2-1v-4.1c0-1.2-0.2-2.1-1-2.8c-0.5-0.4-1.2-0.6-1.9-0.6h0h0
		c-1.3,0.3-2.7,1.1-3.3,1.6c-0.2,0.1-0.4,0.3-0.5,0.4c-0.1,0.1-0.2,0.3-0.2,0.5c0,0.3,0.2,0.6,0.4,0.7c0.2,0.2,0.5,0.3,0.7,0.3
		c0.3,0,0.6-0.2,0.8-0.6c0.2-0.7,0.4-1.1,0.6-1.4c0.2-0.2,0.5-0.4,0.9-0.4c0.5,0,1,0.2,1.3,0.6s0.5,1,0.5,1.8v0.3
		C362.8,190.4,362.3,190.6,361.8,190.9z M363.1,194.4c-0.4,0.4-1.1,0.7-1.6,0.7c-0.6,0-1.4-0.5-1.4-1.6c0-0.4,0.1-0.6,0.3-0.9
		c0.2-0.2,0.5-0.4,1-0.6c0.4-0.2,1.3-0.6,1.8-0.8L363.1,194.4L363.1,194.4z"/>
	<path d="M372.2,196.4v-0.7v-0.1l-0.1,0c-0.7-0.1-1.1-0.1-1.2-0.3c-0.2-0.2-0.2-0.5-0.2-1.3v-13.6l-0.2,0c-0.7,0.3-2.1,0.6-3.3,0.8
		l-0.1,0v0.6v0.1l0.1,0c0.7,0.1,1.1,0.1,1.2,0.3c0.2,0.1,0.2,0.5,0.2,1.3V194c0,0.7-0.1,1.1-0.2,1.3c-0.2,0.2-0.5,0.3-1.2,0.3
		l-0.1,0v0.7v0.1h0.1L372.2,196.4L372.2,196.4z"/>
	<path d="M387.9,191.3c0-1.4-0.5-2.7-1.4-3.6c-0.9-0.9-2.1-1.5-3.5-1.5h0c-1,0-2.3,0.4-3.3,1.3c-1,0.9-1.7,2.3-1.7,4.1
		c0,1.2,0.5,2.5,1.3,3.4c0.8,0.9,2.1,1.6,3.7,1.6c1.1,0,2.4-0.4,3.3-1.3C387.2,194.5,387.9,193.1,387.9,191.3L387.9,191.3z
		 M384.9,194.9c-0.4,0.6-1,0.8-1.7,0.8c-0.9,0-1.6-0.5-2.1-1.3c-0.5-0.8-0.8-2-0.8-3.4c0-1.2,0.3-2.2,0.7-2.8s1-0.9,1.7-0.9h0
		c0.9,0,1.6,0.5,2.1,1.3c0.5,0.8,0.7,2,0.7,3.2C385.6,193.3,385.3,194.3,384.9,194.9L384.9,194.9z"/>
	<path d="M388.8,187.6h1.5v6.4c0,0.7,0,1.1-0.2,1.3c-0.2,0.2-0.5,0.3-1.2,0.3l-0.1,0v0.7v0.1h5.5v-0.7v-0.1l-0.1,0
		c-0.9-0.1-1.3-0.2-1.5-0.4c-0.2-0.2-0.3-0.6-0.3-1.4v-6.3h2.3l0,0c0.2-0.1,0.3-0.5,0.3-0.7c0-0.1,0-0.2-0.1-0.3l0,0h-2.6v-0.8v-0.2
		c0-1.7,0.2-2.7,0.5-3.1c0.2-0.3,0.5-0.6,1.1-0.6c0.7,0,1.3,0.4,1.7,0.8c0.1,0.1,0.3,0.2,0.4,0.2c0.1,0,0.2,0,0.3-0.1
		c0.2-0.2,0.4-0.4,0.5-0.6c0-0.1,0.1-0.2,0.1-0.4c0-0.2-0.1-0.4-0.2-0.5c-0.4-0.4-1-0.7-1.8-0.8h0h0c-0.9,0.1-1.7,0.5-2.5,1.2
		c-1.2,1.1-1.6,2.2-1.7,2.7c-0.2,0.5-0.2,1.2-0.2,1.9v0.3h-0.9h0l-0.7,0.7L388.8,187.6L388.8,187.6z"/>
	<path d="M198.6,203.5L198.6,203.5c-3.4,0-6.1,1.3-8,3.4s-2.9,4.9-2.9,7.7c0,3.1,1.2,5.8,3,7.7c1.9,1.9,4.5,3,7.4,3
		c2.9,0,5.6-1.1,7.6-3c2-1.9,3.2-4.7,3.2-8.2c0-3.2-1.2-5.9-3.1-7.8C203.9,204.6,201.3,203.5,198.6,203.5z M198.9,224
		c-2.2,0-4.1-1.1-5.5-2.9c-1.4-1.8-2.2-4.4-2.2-7.3c0-6,3.2-8.9,6.7-8.9h0c4.1,0,7.5,3.5,7.5,10.2C205.5,221.2,202.4,224,198.9,224z
		"/>
	<path d="M227.1,222.7c-0.8-0.8-1.4-1.6-2.6-3.3c-0.9-1.4-2.2-3.4-2.8-4.5c2.3-1.1,4-2.8,4-5.5c0-1.9-0.8-3.4-2.2-4.3
		c-1.2-0.8-2.8-1.1-5.1-1.1h-8v1v0.1l0.1,0c1.2,0.1,1.9,0.2,2.2,0.5c0.3,0.3,0.4,1,0.4,2.4v12.8c0,1.3-0.1,2-0.4,2.4
		c-0.3,0.4-1,0.5-2.3,0.6h-0.1v1v0.1h8.6v-1v-0.1l-0.1,0c-1.3-0.1-1.9-0.2-2.3-0.6c-0.3-0.4-0.4-1.1-0.4-2.4v-4.9h0.9
		c0.8,0,1.3,0.1,1.7,0.3c0.4,0.2,0.6,0.5,0.9,0.9c0.9,1.6,2.1,3.5,3.2,5.1c1.4,2.1,2.8,2.8,5.2,2.9c0.3,0,0.7,0,1.1,0h0.1l0-0.1
		l0.1-0.8l0-0.1l-0.1,0C228.6,223.9,227.9,223.6,227.1,222.7z M216.1,206.9c0-0.4,0-0.7,0.1-0.9c0-0.2,0.1-0.3,0.2-0.4
		c0.2-0.2,0.7-0.3,1.6-0.3c1.2,0,2.3,0.3,3.1,1c0.8,0.7,1.4,1.9,1.4,3.6c0,1.7-0.5,2.9-1.7,3.9c-0.8,0.6-1.8,0.9-3.4,0.9H216
		L216.1,206.9L216.1,206.9z"/>
	<path d="M248.4,223.2c-0.5-0.4-0.8-1.1-1.3-2.5c-2-5.5-4.2-11.6-6.2-17l0-0.1l-1.1,0.3l-6.6,16.7c-0.5,1.4-0.9,2.2-1.4,2.6
		c-0.5,0.4-1.1,0.5-2.1,0.7l-0.1,0v1v0.1h7.2v-1v-0.1l-0.1,0c-0.8-0.1-1.4-0.2-1.8-0.3c-0.3-0.2-0.4-0.3-0.5-0.7
		c0-0.3,0.1-0.8,0.3-1.4c0.4-1.3,0.9-2.6,1.4-4h6.6c0.7,1.9,1.3,3.6,1.7,4.8c0.1,0.3,0.1,0.5,0.1,0.7c0,0.3-0.1,0.4-0.4,0.5
		c-0.3,0.1-0.8,0.2-1.5,0.3l-0.1,0v1v0.1h0.1h7.9v-1v-0.1l-0.1,0C249.5,223.7,248.9,223.6,248.4,223.2L248.4,223.2z M242.2,215.8
		h-5.5c0.9-2.5,1.9-5.2,2.8-7.7L242.2,215.8z"/>
	<path d="M266.8,219.5L266.8,219.5l-0.1,0.1c-0.5,1.4-1,2.5-1.6,3.1c-0.7,0.8-1.7,0.9-3.5,0.9c-1.3,0-2.4-0.1-3-0.4
		c-0.2-0.1-0.4-0.3-0.5-0.7c-0.1-0.4-0.1-1-0.1-1.8v-12.6c0-1.3,0.1-2,0.4-2.4c0.3-0.3,1-0.4,2.3-0.5l0.1,0v-1V204h-8.5v1v0.1h0.1
		c1.3,0.1,2,0.2,2.3,0.5c0.3,0.3,0.4,1,0.4,2.4v12.7c0,1.3-0.1,2.1-0.4,2.4s-1,0.5-2.4,0.6h-0.1v1v0.1h14.6l0-0.1c0.3-1,1-4,1.1-5
		l0-0.1l-0.1,0L266.8,219.5z"/>
	<path d="M287.6,215.2c-1.1-1-2.5-1.7-3.7-2.3c-1.2-0.6-2.3-1.2-2.9-1.9c-0.7-0.7-1-1.5-1-2.7c0-1.7,1-3.3,3.4-3.3
		c1.3,0,2.2,0.5,2.8,1.3c0.6,0.8,1,1.8,1.2,2.8l0,0.1l0.1,0l0.9-0.2l0.1,0l0-0.1c-0.2-2-0.4-3.2-0.5-4.4l0-0.1l-0.1,0
		c-1.2-0.4-2.6-0.7-4-0.7c-2.1,0-3.8,0.7-4.9,1.7c-1.1,1.1-1.8,2.5-1.8,4.1c0,1.8,0.8,3.2,1.9,4.2c1.1,1,2.4,1.7,3.4,2.2
		c1.2,0.6,2.2,1.2,2.9,1.9c0.7,0.7,1.1,1.5,1.1,2.7c0,1.1-0.3,2.1-1,2.7c-0.6,0.6-1.5,1-2.7,1c-1.6,0-2.8-0.8-3.6-1.8
		c-0.8-1-1.3-2.3-1.5-3.3l0-0.1l-1.2,0.3l0,0.1c0.2,1.5,0.6,4.3,0.9,5l0,0l0,0c0.3,0.2,0.8,0.4,1.6,0.7c0.8,0.2,1.8,0.5,3.2,0.5
		c2.1,0,3.9-0.7,5.2-1.8c1.3-1.1,2-2.6,2-4.4C289.5,217.5,288.7,216.1,287.6,215.2L287.6,215.2z"/>
	<path d="M309.9,219.1L309.9,219.1l-0.1,0.1c-1.6,3.1-3.3,4.8-6.5,4.8c-4.8,0-8.2-4-8.2-9.9c0-4.8,2.8-9.2,8-9.2c1.7,0,3,0.3,4,1.1
		c1,0.7,1.7,1.9,2.1,3.6l0,0.1l1.1-0.3l0-0.1c-0.2-1.7-0.4-3-0.6-4.8l0-0.1l-0.1,0c-0.9-0.1-3.1-0.9-5.7-0.9c-3.6,0-6.7,1.1-8.9,3.1
		c-2.2,2-3.5,4.8-3.5,8.2c0,2.6,0.9,5.2,2.8,7.2c1.9,2,4.8,3.4,8.8,3.4c2.3,0,5-0.6,5.9-0.8l0,0l0,0c0.6-1.1,1.4-3.5,1.8-4.9l0-0.1
		l-0.1,0L309.9,219.1z"/>
	<path d="M312.4,205v0.1h0.1c1.3,0.1,2,0.2,2.3,0.6c0.3,0.3,0.4,1,0.4,2.4v12.7c0,1.3-0.1,2-0.4,2.4c-0.3,0.4-1,0.5-2.3,0.6h-0.1v1
		v0.1h0.1h8.6v-1v-0.1H321c-1.3-0.1-2-0.2-2.3-0.5c-0.3-0.3-0.4-1-0.4-2.4v-12.7c0-1.3,0.1-2,0.4-2.4c0.3-0.4,1-0.5,2.3-0.6h0.1v-1
		V204h-8.7V205z"/>
	<path d="M338.5,219.6L338.5,219.6l-0.1,0.1c-0.4,1.3-1,2.3-1.6,3c-0.3,0.4-0.7,0.6-1.3,0.8c-0.6,0.2-1.4,0.2-2.6,0.2
		c-1.6,0-2.7,0-3.2-0.4c-0.3-0.2-0.4-0.4-0.5-0.8c-0.1-0.4-0.2-0.9-0.2-1.7v-5.9h2.9c1.4,0,2.1,0,2.5,0.3c0.4,0.3,0.6,0.9,0.8,2
		l0,0.1h1h0.1V211h-1h-0.1l0,0.1c-0.2,1.1-0.3,1.6-0.7,1.9c-0.4,0.3-1.1,0.4-2.6,0.4h-2.9v-7.1c0-0.5,0-0.7,0.1-0.8
		c0.1-0.1,0.3-0.1,0.8-0.1h2.4c1.1,0,1.9,0,2.5,0.2c0.5,0.1,0.8,0.3,1,0.7c0.4,0.7,0.7,1.3,1,2.7l0,0.1l1-0.1l0.1,0v-0.1
		c-0.1-1.7-0.2-3.8-0.2-4.6V204h-14.4v1v0.1l0.1,0c1.2,0.1,1.9,0.2,2.2,0.6c0.3,0.3,0.4,1.1,0.4,2.5v12.7c0,1.3-0.1,2-0.4,2.4
		c-0.4,0.4-1.1,0.5-2.6,0.6l-0.1,0v1v0.1h15.6l0-0.1c0.3-1,0.9-4,1.1-5l0-0.1l-0.1,0L338.5,219.6z"/>
	<path d="M355.2,205v0.1h0.1c1.1,0.1,1.8,0.2,2.3,0.5s0.6,0.7,0.7,1.4c0.1,0.9,0.2,2.3,0.2,5.3v7.6L345.4,204h-4.9v1v0.1l0.1,0
		c1.5,0.1,2.1,0.4,2.7,1.1c0.3,0.4,0.4,0.6,0.5,1c0.1,0.4,0.1,1,0.1,2.2v7c0,2.9-0.1,4.5-0.2,5.4c-0.1,0.8-0.3,1.2-0.7,1.5
		c-0.4,0.3-1.1,0.4-2,0.5H341v1v0.1h7.8v-1v-0.1h-0.1c-1.1-0.1-1.8-0.2-2.2-0.5c-0.4-0.3-0.6-0.7-0.7-1.5c-0.1-0.9-0.2-2.4-0.2-5.4
		v-7.7l13.5,16.5h1h0.1v-13c0-3,0.1-4.4,0.2-5.4c0.1-0.7,0.3-1.1,0.7-1.3c0.4-0.3,1-0.4,1.9-0.4h0.1V205v-0.9V204h-7.7L355.2,205
		L355.2,205z"/>
	<path d="M381.4,219.1L381.4,219.1l-0.1,0.1c-1.6,3.1-3.3,4.8-6.5,4.8c-4.8,0-8.2-4-8.2-9.9c0-4.8,2.8-9.2,8-9.2c1.7,0,3,0.3,4,1.1
		c1,0.7,1.7,1.9,2.1,3.6l0,0.1l1.1-0.3l0-0.1c-0.2-1.7-0.4-3-0.6-4.8l0-0.1l-0.1,0c-0.9-0.1-3.1-0.9-5.7-0.9c-3.6,0-6.7,1.1-8.9,3.1
		c-2.2,2-3.5,4.8-3.5,8.2c0,2.6,0.9,5.2,2.8,7.2c1.9,2,4.8,3.4,8.8,3.4c2.3,0,5-0.6,5.9-0.8l0,0l0,0c0.6-1.1,1.4-3.5,1.8-4.9l0-0.1
		l-0.1,0L381.4,219.1z"/>
	<path d="M399.9,219.7l-0.9-0.1l-0.1,0l0,0.1c-0.4,1.3-1,2.3-1.6,3c-0.3,0.4-0.7,0.6-1.3,0.8c-0.6,0.2-1.4,0.2-2.6,0.2
		c-1.6,0-2.7,0-3.2-0.4c-0.3-0.2-0.4-0.4-0.5-0.8c-0.1-0.4-0.2-0.9-0.2-1.7v-5.9h2.9c1.4,0,2.1,0,2.5,0.3c0.4,0.3,0.6,0.9,0.8,2
		l0,0.1h1h0.1V211h-1h-0.1l0,0.1c-0.2,1.1-0.3,1.6-0.7,1.9c-0.4,0.3-1.1,0.4-2.6,0.4h-2.9v-7.1c0-0.5,0-0.7,0.1-0.8
		c0.1-0.1,0.3-0.1,0.8-0.1h2.4c1.1,0,1.9,0,2.5,0.2c0.5,0.1,0.8,0.3,1,0.7c0.4,0.7,0.7,1.3,1,2.7l0,0.1l1-0.1l0.1,0v-0.1
		c-0.1-1.7-0.2-3.8-0.2-4.6V204h-14.4v1v0.1l0.1,0c1.2,0.1,1.9,0.2,2.2,0.6c0.3,0.3,0.4,1.1,0.4,2.5v12.7c0,1.3-0.1,2-0.4,2.4
		c-0.4,0.4-1.1,0.5-2.6,0.6l-0.1,0v1v0.1h15.6l0-0.1c0.3-1,0.9-4,1.1-5L399.9,219.7L399.9,219.7z"/>
</g>
</svg>
