<?xml version="1.0" encoding="utf-8"?>
<!-- Generator: Adobe Illustrator 16.0.4, SVG Export Plug-In . SVG Version: 6.00 Build 0)  -->
<!DOCTYPE svg PUBLIC "-//W3C//DTD SVG 1.1//EN" "http://www.w3.org/Graphics/SVG/1.1/DTD/svg11.dtd">
<svg version="1.1" id="Layer_1" xmlns="http://www.w3.org/2000/svg" xmlns:xlink="http://www.w3.org/1999/xlink" x="0px" y="0px"
	 width="170.49px" height="40px" viewBox="0 0 170.49 40" enable-background="new 0 0 170.49 40" xml:space="preserve">
<path fill="#FFFFFF" d="M170.49,8.295h-6.276l-4.666,16.625h-0.084l-4.836-16.625h-6.615l8.312,23.495
	c-0.594,3.054-1.781,3.394-3.902,3.394c-0.509,0-0.933-0.086-1.188-0.086v4.75c0.849,0,1.866,0.086,2.715,0.086
	c5.174,0,5.938-1.104,8.736-9.5L170.49,8.295z M142.923,2.188h-5.938v6.107h-3.053v4.241h3.053v13.742
	c0,2.883,0.934,4.919,6.022,4.919h0.764c0.933,0,1.866-0.085,2.799-0.085v-4.495c-0.424,0.085-0.849,0.085-1.272,0.085
	c-2.375,0-2.459-0.51-2.459-1.781V12.536h3.646V8.295h-3.646V2.188H142.923z M131.388,0.067h-5.938v5.514h5.938V0.067z
	 M125.45,30.772h5.938V8.295h-5.938V30.772z M122.312,15.25c0-5.004-3.478-7.549-7.803-7.549c-4.326,0-6.023,2.544-6.786,3.901
	h-0.085V8.295h-5.684v22.562h5.938V17.879c0-3.393,2.036-5.174,4.666-5.174c3.816,0,3.901,2.799,3.901,4.496v13.656h5.938V15.25
	H122.312z M98.901,8.295h-5.938v12.978c0,4.071-2.629,5.174-4.58,5.174c-1.781,0-3.817-0.679-3.817-4.156V8.295h-5.938v14.844
	c0,5.768,3.223,8.312,7.719,8.312c3.138,0,5.513-1.357,6.87-3.817h0.085v3.224h5.683V8.295H98.901z M75.66,15.25
	c0-5.004-3.393-7.549-7.719-7.549c-3.562,0-5.174,2.459-5.938,3.562c-1.442-2.375-2.969-3.562-6.192-3.562
	c-3.902,0-5.598,2.375-6.277,3.901h-0.084V8.295h-5.598v22.562h5.853V17.116c0-2.46,0.848-4.411,3.647-4.411
	c3.478,0,3.478,2.629,3.478,4.58v13.572h5.853V17.286c0-2.714,1.018-4.58,3.987-4.58c1.696,0,3.138,1.103,3.138,4.496v13.656h5.853
	V15.25z M41.053,15.25c0-5.004-3.393-7.549-7.719-7.549c-3.562,0-5.174,2.459-5.938,3.562c-1.526-2.375-2.969-3.562-6.192-3.562
	c-3.901,0-5.598,2.375-6.276,3.901h-0.085V8.295H9.246v22.562h5.853V17.116c0-2.46,0.848-4.411,3.647-4.411
	c3.478,0,3.478,2.629,3.478,4.58v13.572h5.853V17.286c0-2.714,1.018-4.58,3.987-4.58c1.696,0,3.138,1.103,3.138,4.496v13.656h5.853
	V15.25z M6.361,0.406H0v30.451h6.361V0.406z"/>
</svg>
