<?xml version="1.0" encoding="utf-8"?>
<!-- Generator: Adobe Illustrator 28.3.0, SVG Export Plug-In . SVG Version: 6.00 Build 0)  -->
<svg version="1.1" id="Layer_1" xmlns="http://www.w3.org/2000/svg" xmlns:xlink="http://www.w3.org/1999/xlink" x="0px" y="0px"
	 viewBox="0 0 400 400" style="enable-background:new 0 0 400 400;" xml:space="preserve">
<style type="text/css">
	.st0{fill:#007DBD;}
</style>
<path class="st0" d="M390,173.9h-14L365.6,211h-0.2l-10.8-37.1h-14.7l18.5,52.4c-1.3,6.8-4,7.6-8.7,7.6c-1.1,0-2.1-0.2-2.6-0.2v10.6
	c1.9,0,4.2,0.2,6.1,0.2c11.5,0,13.2-2.5,19.5-21.2L390,173.9z M328.6,160.3h-13.2v13.6h-6.8v9.5h6.8V214c0,6.4,2.1,11,13.4,11h1.7
	c2.1,0,4.2-0.2,6.2-0.2v-10c-0.9,0.2-1.9,0.2-2.8,0.2c-5.3,0-5.5-1.1-5.5-4v-27.6h8.1v-9.5h-8.1v-13.6H328.6z M302.8,155.6h-13.2
	v12.3h13.2V155.6z M289.6,224h13.2v-50.1h-13.2V224z M282.6,189.4c0-11.2-7.8-16.8-17.4-16.8c-9.6,0-13.4,5.7-15.1,8.7h-0.2v-7.4
	h-12.7v50.3h13.2v-28.9c0-7.6,4.5-11.5,10.4-11.5c8.5,0,8.7,6.2,8.7,10v30.4h13.2v-34.8H282.6z M230.4,173.9h-13.2v28.9
	c0,9.1-5.9,11.5-10.2,11.5c-4,0-8.5-1.5-8.5-9.3v-31.2h-13.2V207c0,12.9,7.2,18.5,17.2,18.5c7,0,12.3-3,15.3-8.5h0.2v7.2h12.7v-50.3
	H230.4z M178.6,189.4c0-11.2-7.6-16.8-17.2-16.8c-7.9,0-11.5,5.5-13.2,7.9c-3.2-5.3-6.6-7.9-13.8-7.9c-8.7,0-12.5,5.3-14,8.7h-0.2
	v-7.4h-12.5v50.3h13v-30.6c0-5.5,1.9-9.8,8.1-9.8c7.8,0,7.8,5.9,7.8,10.2v30.3h13v-30.2c0-6,2.3-10.2,8.9-10.2c3.8,0,7,2.5,7,10
	v30.4h13L178.6,189.4L178.6,189.4z M101.5,189.4c0-11.2-7.6-16.8-17.2-16.8c-7.9,0-11.5,5.5-13.2,7.9c-3.4-5.3-6.6-7.9-13.8-7.9
	c-8.7,0-12.5,5.3-14,8.7h-0.2v-7.4H30.6v50.3h13v-30.6c0-5.5,1.9-9.8,8.1-9.8c7.8,0,7.8,5.9,7.8,10.2v30.3h13v-30.2
	c0-6,2.3-10.2,8.9-10.2c3.8,0,7,2.5,7,10v30.4h13L101.5,189.4L101.5,189.4z M24.2,156.3H10v67.9h14.2V156.3z"/>
</svg>
