<?xml version="1.0" encoding="utf-8"?>
<!-- Generator: Adobe Illustrator 26.2.1, SVG Export Plug-In . SVG Version: 6.00 Build 0)  -->
<svg version="1.1" id="Layer_1" xmlns="http://www.w3.org/2000/svg" xmlns:xlink="http://www.w3.org/1999/xlink" x="0px" y="0px"
	 viewBox="0 0 400 400" style="enable-background:new 0 0 400 400;" xml:space="preserve">
<style type="text/css">
	.st0{fill:#253C69;}
</style>
<g>
	<g>
		<path class="st0" d="M188.2,135.8c0,3.2,0,6.4,0,9.6c0,29.7,0,59.5,0,89.2c0,2.3,0.2,4.6,0.8,6.8c1,3.1,2.7,4.5,6,4.7
			c2,0.1,4,0.3,6,0.2c2.5-0.1,2.4,1.4,2.3,3c0,1.7,0.2,3.5-2.3,3.4c-1.3,0-2.6,0-3.8,0c-8.4,0-16.8,0-25.3,0c-3.1,0-3.2-0.3-3.3-3.8
			c-0.1-2.8,1.6-2.8,3.6-2.7c1.3,0.1,2.6,0.1,3.8-0.1c3.9-0.5,5.7-2.2,6.3-6.1c0.4-2.3,0.6-4.7,0.6-7.1c0-32,0-64.1,0-96.1
			c0-4.5,0-4.5-4.6-4.5c-2.4,0-4.8,0-7.1,0c-3.2,0.1-2.4-2.3-2.5-4.1c-0.2-1.9,0.5-2.7,2.6-2.7c13.1,0.1,26.2,0.1,39.3,0
			c2.4,0,3.6,0.7,4.2,3.2c4.3,18.2,8.7,36.5,13.1,54.7c1.3,5.2,2.6,10.4,4.5,15.6c1.1-4.3,2.2-8.6,3.3-12.9
			c4.8-19.2,9.7-38.5,14.5-57.8c0.5-2.2,1.6-2.9,3.8-2.9c12.4,0.1,24.9,0.1,37.3,0c2.7,0,3.4,1,3.5,3.5c0,2.6-1,3.4-3.4,3.3
			c-2.6-0.1-5.1,0-7.7,0c-1.5,0-2.2,0.7-2.2,2.2c0,0.6,0,1.3,0,1.9c0,35.1,0,70.3,0,105.4c0,4.3,0.2,4.5,4.5,4.5c2,0,4-0.2,6-0.3
			c2.3-0.1,2.7,1.2,2.7,3.2c-0.1,1.8,0.1,3.5-2.6,3.5c-16.3-0.1-32.6-0.1-48.9,0c-2.3,0-2.5-1.3-2.5-3c0-1.8-0.3-3.6,2.5-3.6
			c3,0.1,6,0,9,0.1c1.8,0.1,2.7-0.3,2.7-2.3c-0.1-35.6-0.1-71.2-0.1-106.8c0-0.1-0.1-0.2-0.3-0.6c-2.3,8.7-4.4,17.1-6.6,25.5
			c-6.3,24.3-12.6,48.5-18.9,72.8c-1.3,5.1-2.8,10.2-3.9,15.4c-0.6,2.7-2.3,2.6-4.3,2.6c-2,0.1-3.1-0.6-3.7-2.7
			c-6.9-27.7-13.9-55.4-20.9-83c-2.5-10.1-5.1-20.2-7.6-30.3c-0.1-0.3-0.2-0.6-0.3-1C188.4,135.8,188.3,135.8,188.2,135.8z"/>
		<path class="st0" d="M352.2,185.4c0.9,1.2,2,1.3,2.9,1.6c14.2,5.1,21.4,15.3,21.4,30.4c0,7.5-0.2,15,1,22.4c0.9,5.2,3,6.7,8.1,5.8
			c1.3-0.2,3.1-1.5,3.9,0.8c0.9,2.3,0.2,3.7-2,4.8c-6,3.2-12.1,5-19,3.8c-6.8-1.2-11.2-5.1-13.6-11.3c-2.1-5.4-2.9-11.1-3.4-16.9
			c-0.7-7.7-0.1-15.4-1.1-23c-0.3-2.1-0.5-4.2-1-6.2c-1.8-6.7-4.8-9-11.8-9.1c-5.6-0.1-5.6-0.1-5.6,5.4c0,16.2,0,32.4,0,48.6
			c0,3.8,0,3.8,3.7,3.9c1.8,0,3.7,0.2,5.5,0.1c1.9-0.1,2.4,0.9,2.3,2.5c-0.1,1.6,0.7,3.8-2.2,3.8c-1.1,0-2.2,0-3.3,0
			c-12.2,0-24.3-0.1-36.5,0.1c-3.1,0-3.2-1.5-3.4-3.9c-0.2-2.7,1.5-2.7,3.3-2.8c1.1-0.1,2.2,0,3.3,0c4,0,4,0,4-3.9
			c0-35.2,0-70.5,0-105.7c0-4.1,0-4.1-4.1-4.1c-1.1,0-2.2,0-3.3,0c-3.2,0-3.5-0.4-3.6-3.7c-0.1-2.5,1-3.1,3.3-3.1
			c17,0.1,34-0.1,51.1,0.1c15.8,0.1,26.9,10.9,27.6,26.8c0.1,2.9,0.2,5.9-0.2,8.8c-1.3,10.2-7.5,16.6-16.5,20.6
			C359.8,183.5,356.2,184.5,352.2,185.4z M354.5,155.6c0-5.7,0.1-10.5,0-15.4c-0.1-4.3-1.6-6.1-5.7-7.2c-4.5-1.1-9.1-0.3-13.7-0.6
			c-2.3-0.1-3,0.8-3,3c0.1,7.8,0,15.5,0,23.3c0,6.7,0,13.3,0,20c0,1.6,0.3,2.9,2.4,2.9c4,0.1,8-0.1,12-1.1c4.1-1,6.6-3.6,7.4-7.8
			C355.1,166.8,354.1,160.7,354.5,155.6z"/>
		<path class="st0" d="M132.2,186.5c6.4,1,12,2.6,16.9,6.2c10.2,7.6,13.6,18,12.6,30.2c-0.7,8.4-4.2,15.5-10.3,21.5
			c-5.6,5.6-12.4,8.1-20,8.3c-16.9,0.3-33.8,0.1-50.8,0.1c-2.7,0-2.8-1.4-2.9-3.5c-0.1-2.3,0.7-3,3-2.9c7.7,0.2,6.3-0.4,6.3-6.4
			c0-34.5,0-69,0-103.5c0-4.1,0-4.1-4.1-4.1c-0.6,0-1.3,0-1.9,0c-3.5,0-5-2.3-3.6-5.5c0.6-1.5,1.9-1.2,3.1-1.2c9.5,0,19,0,28.5,0
			c6.8,0,13.5-0.1,20.3,0.1c13.6,0.3,24.9,10,27.4,23.3c3.1,16.5-4.8,30.3-20.6,36C135,185.5,133.9,185.9,132.2,186.5z M110.7,217.9
			c0,8.4,0.1,16.8,0,25.2c0,2.3,0.8,3.3,3.2,3.3c4.6-0.1,9.1-0.1,13.7-0.3c2.1-0.1,3.8-1.1,5.2-2.7c1.5-1.8,2.3-4,2.5-6.3
			c1.1-11.7,1.1-23.4-0.3-35c-1-7.8-4-10.4-11.8-11.7c-3.1-0.5-6.2-0.2-9.3-0.4c-2.4-0.2-3.2,0.9-3.1,3.2
			C110.7,201.5,110.7,209.7,110.7,217.9z M110.7,158c0,7.5,0,15,0,22.5c0,2.1,0.7,3.1,2.8,2.9c2.5-0.2,4.9-0.2,7.4-0.3
			c7.7-0.3,10.3-4.6,11.1-10.6c1.5-10.8,1.4-21.7,0.4-32.5c-0.5-5.4-3.1-7.4-8.6-7.6c-3.3-0.1-6.6,0.1-9.9-0.1
			c-2.4-0.1-3.2,0.8-3.2,3.2C110.7,143,110.7,150.5,110.7,158z"/>
		<path class="st0" d="M36.5,193.1c0-18.9,0-37.9,0-56.8c0-3.8,0-3.8-3.8-3.8c-1.1,0-2.2-0.1-3.3,0c-2.5,0.2-3.5-0.7-3.4-3.3
			c0.1-3.5,0.1-3.5,3.5-3.5c12.4,0,24.7,0.1,37.1,0c3.2,0,3.2,1.4,3.3,3.8c0.1,2.6-1.1,3-3.3,3c-7.1,0-6.3-1-6.3,6.3
			c0,30.9,0.1,61.9-0.1,92.8c-0.1,8.9-0.9,17.9-4.2,26.4c-4.1,10.3-11.9,15.5-22.7,16.2c-3.8,0.2-7.7,0.8-11.4-0.7
			c-7.8-3.2-10.8-9.8-11.6-17.5c-0.4-4.3-0.2-8.6,2.3-12.5c1.9-2.9,4.4-4.6,7.9-4.6c3.8,0.1,6.3,2.3,7.9,5.5c3,6,2,12.1-0.1,18.2
			c-0.5,1.4-1.8,3,0.6,3.9c2,0.8,4,0.8,5.3-1.4c0.8-1.4,1-2.9,1.3-4.5c1.2-7.8,1.1-15.7,1.1-23.5C36.5,222.3,36.5,207.7,36.5,193.1z
			"/>
	</g>
</g>
</svg>
