<?xml version="1.0" encoding="utf-8"?>
<!-- Generator: Adobe Illustrator 26.2.1, SVG Export Plug-In . SVG Version: 6.00 Build 0)  -->
<svg version="1.1" id="Layer_1" xmlns="http://www.w3.org/2000/svg" xmlns:xlink="http://www.w3.org/1999/xlink" x="0px" y="0px"
	 viewBox="0 0 400 400" style="enable-background:new 0 0 400 400;" xml:space="preserve">
<path d="M247,202.3h45c27.4,0,31.6,11.4,31.6,30.9c0,7.7,0.5,20.1,2.5,25.1h3.7c-2.2-3.3-2.8-17.4-2.8-24.6
	c0-19.1-3.3-30.4-23.6-33.1v-0.3c16.7-3.7,25.9-15,25.6-30.8c-0.5-20.6-11.9-30.6-36.4-30.6h-48.8v119.4h3.3V202.3z M247,142.2h46.3
	c22.7,0,32.1,10,32.3,26.9c0.2,20.9-16.4,29.8-33.9,29.8H247V142.2z M146.2,142.2h37.6c23.9,0,48.3,11.7,48.3,56.3
	c0,38.5-23.6,56.3-51.8,56.3h-34.1V142.2z M142.8,258.3h36.6c28.8,0,56-16.9,56-59.7c0-47-27.1-59.7-50.8-59.7h-41.8V258.3z
	 M131.5,224.7c0,25.1-10.4,33.1-29.4,33.1c-18.4,0-28.4-9.7-28.4-29.3v-7.2h-3.3v7.2c0,18.6,9.2,32.6,31.8,32.6
	c24.1,0,32.8-14,32.8-33.9v-88.3h-3.3V224.7z"/>
</svg>
