<svg id="Layer_1" data-name="Layer 1" xmlns="http://www.w3.org/2000/svg" viewBox="0 0 534.92 126"><defs><style>.cls-1{fill:#272525;}.cls-2{fill:#2e5095;}</style></defs><title>JEM_logo_web</title><path class="cls-1" d="M164.12,29.78c0-7.12.43-12.5,1-14.82.72-2.91,1.74-3.63,7.12-4.22l4.94-.58V9H131v1.16l4.94.58c5.67.59,6.69,1.31,7.42,4.22.58,2.32,1,7.7,1,14.82l-.14,74.56c0,10.61-.44,18.6-1.46,22.52-.43,1.75-1,3.2-2.18,3.2-.58,0-1-.44-1.88-1.6l-6.4-9.74c-1.45-1.89-2.62-2.9-4.65-2.9a9.44,9.44,0,0,0-9.16,9.3c0,6.25,5.24,9.88,12.21,9.88,13.52,0,22.09-11.19,27.18-21.36,4.79-9.59,6.25-18.6,6.25-32.12V29.78ZM264.83,79.92l-1-.43c-5.38,8.86-9,14.09-11.33,16.27a22.93,22.93,0,0,1-6.11,4.22c-6,2.9-16.71,3.92-25.29,3.92-3.92,0-5.23-1-6-3.92-.59-2.33-.88-6.83-.88-14.25V57.54l10.18.44c8.57.29,11.91,1.59,14.24,3.92,2,2,3.05,4.8,4.36,9.16l1.31,4.07,1.16-.3.58-36.91-1-.29-1.3,4.07a21.83,21.83,0,0,1-4.8,8.86c-3.34,3.2-7.27,3.93-15,4.36l-9.74.44v-44l12.94.72c11.77.73,17.73,3.2,21.36,6.69,2.76,2.9,4.94,7.12,8.87,16.42l1-.29L258.87,9H181.26v1.16l5,.58c5.37.59,6.39,1.31,7.12,4.22.58,2.32,1,7.85,1,14.82V85.3c0,7.12-.43,12.5-1,14.82-.73,2.91-1.75,3.63-7.12,4.22l-5,.58v1.16h78.05l5.52-26.16Zm92.72-54.5,2,65.69c.29,10.61,0,12.5-8,13.37l-3.78.44v1.16h44.76v-1.16l-4.65-.58c-5.81-.59-6.69-1.75-7.41-4.65s-1.16-7.27-1.46-14l-2-55.51c-.44-12.65.15-16.72,11.77-19.33l3-.73V9H358.42a96.44,96.44,0,0,1-6.54,22.38l-20.2,49-22.09-54.5C307,19.17,305.08,13.5,304.5,9H271.22v1l3.63,1.16c6.4,2,9.3,4.94,12.21,11.48L283,86.32c-.72,12.2-2.18,15-11,17.43L267,105.21v.87h36v-.87L298,103.75c-8.72-2.47-9.15-4.5-9.15-17l.43-58.86L323,106.52h1.89l32.7-81.1Z" transform="translate(-11.54 -9)"/><path class="cls-1" d="M409.14,31.64h2.34V44c0,4.35-3.13,5.38-5.06,5.38a4.38,4.38,0,0,1-4.7-3.79l2.3-.52a2.37,2.37,0,0,0,2.4,2.11c2.32,0,2.72-2,2.72-3.94Z" transform="translate(-11.54 -9)"/><path class="cls-1" d="M420.56,37.07a6.09,6.09,0,1,1-6.16,6.09A6.09,6.09,0,0,1,420.56,37.07Zm0,10.13a3.72,3.72,0,0,0,3.82-4,3.82,3.82,0,1,0-7.63,0A3.72,3.72,0,0,0,420.56,47.2Z" transform="translate(-11.54 -9)"/><path class="cls-1" d="M439.76,49h-2.2V47.17h-.05a4.06,4.06,0,0,1-3.81,2.08c-2.25,0-4.21-1.34-4.21-4.42V37.37h2.2v6.84c0,2.18,1.25,3,2.64,3,1.84,0,3.23-1.18,3.23-3.87v-6h2.2Z" transform="translate(-11.54 -9)"/><path class="cls-1" d="M443.09,37.37h2.2v1.78h0a3.94,3.94,0,0,1,3.48-2.08,3.14,3.14,0,0,1,1,.15l-.1,2.37a4.25,4.25,0,0,0-1.08-.17c-2.15,0-3.33,1.17-3.33,3.72V49h-2.2Z" transform="translate(-11.54 -9)"/><path class="cls-1" d="M452.15,37.37h2.2v1.78h0a4.08,4.08,0,0,1,3.81-2.08c2.25,0,4.21,1.35,4.21,4.43V49h-2.2V42.11c0-2.18-1.25-3-2.64-3-1.84,0-3.23,1.17-3.23,3.86v6h-2.2Z" transform="translate(-11.54 -9)"/><path class="cls-1" d="M465.8,38.78a6.82,6.82,0,0,1,4.6-1.71c3.42,0,4.84,1.86,4.84,3.87v5.92a16.51,16.51,0,0,0,.1,2.1h-2c-.05-.59-.07-1.17-.07-1.76h-.05a4.42,4.42,0,0,1-4.06,2c-2.16,0-4-1.22-4-3.47,0-3,2.86-4,6.38-4h1.61v-.49a2.5,2.5,0,0,0-2.76-2.45,4.79,4.79,0,0,0-3.3,1.32Zm6.21,4.6c-2.08,0-4.62.37-4.62,2.23,0,1.32,1,1.88,2.49,1.88a3.13,3.13,0,0,0,3.3-3.37v-.74Z" transform="translate(-11.54 -9)"/><path class="cls-1" d="M478.62,30.47h2.2V49h-2.2Z" transform="translate(-11.54 -9)"/><path class="cls-1" d="M494.76,37.07a6.09,6.09,0,1,1-6.17,6.09A6.09,6.09,0,0,1,494.76,37.07Zm0,10.13a3.72,3.72,0,0,0,3.81-4,3.82,3.82,0,1,0-7.63,0A3.72,3.72,0,0,0,494.76,47.2Z" transform="translate(-11.54 -9)"/><path class="cls-1" d="M504.55,39.27h-2.5v-1.9h2.5v-2.6c0-3.08,1.07-4.6,4-4.6a7.14,7.14,0,0,1,1.64.17l-.25,2a3.09,3.09,0,0,0-1.24-.22c-1.62,0-1.89,1-1.89,2.62v2.67h2.62v1.9h-2.64V49h-2.2Z" transform="translate(-11.54 -9)"/><path class="cls-1" d="M403.73,60.29h11.18v2.2h-8.83v5.16h8.22v2.2h-8.22v5.56h9.27v2.2H403.73Z" transform="translate(-11.54 -9)"/><path class="cls-1" d="M421.29,71.42,417.19,66H420l2.82,4.11L425.6,66h2.67l-4,5.41,4.7,6.19h-2.84l-3.42-4.87-3.43,4.87H416.6Z" transform="translate(-11.54 -9)"/><path class="cls-1" d="M430.81,66H433v1.67h.05a5,5,0,0,1,4-2,6.09,6.09,0,0,1,0,12.18,4.87,4.87,0,0,1-4-2H433V84.5h-2.2Zm2.2,5.8a3.83,3.83,0,1,0,3.82-4A3.72,3.72,0,0,0,433,71.81Z" transform="translate(-11.54 -9)"/><path class="cls-1" d="M447.42,72.62c0,2,1.89,3.37,3.92,3.37a4,4,0,0,0,3.18-1.73l1.66,1.27A6.06,6.06,0,0,1,451,77.9a5.76,5.76,0,0,1-6-6.09,5.88,5.88,0,0,1,6-6.09c4.08,0,5.65,3.13,5.65,6.11v.79Zm6.95-1.76A3.14,3.14,0,0,0,451,67.48a3.58,3.58,0,0,0-3.6,3.38Z" transform="translate(-11.54 -9)"/><path class="cls-1" d="M459.36,66h2.2V67.8h.05a3.94,3.94,0,0,1,3.48-2.08,3.14,3.14,0,0,1,1,.15l-.1,2.37a4.25,4.25,0,0,0-1.08-.17c-2.15,0-3.33,1.17-3.33,3.72v5.82h-2.2Z" transform="translate(-11.54 -9)"/><path class="cls-1" d="M469.69,60.24a1.62,1.62,0,0,1,0,3.23,1.62,1.62,0,1,1,0-3.23ZM468.59,66h2.2v11.6h-2.2Z" transform="translate(-11.54 -9)"/><path class="cls-1" d="M474.29,66h2v1.81h.05a4.14,4.14,0,0,1,3.72-2.1,3.76,3.76,0,0,1,3.62,2.15,4.18,4.18,0,0,1,3.67-2.15c3.57,0,4.4,2.54,4.4,5.14v6.75h-2.2V71.15c0-1.76-.37-3.38-2.5-3.38s-3,1.45-3,3.5v6.34h-2.2V71.54c0-2.2-.32-3.77-2.44-3.77-1.59,0-3,1.2-3,3.82v6h-2.2Z" transform="translate(-11.54 -9)"/><path class="cls-1" d="M496.79,72.62c0,2,1.89,3.37,3.92,3.37a4,4,0,0,0,3.18-1.73l1.66,1.27a6.06,6.06,0,0,1-5.14,2.37,5.75,5.75,0,0,1-6-6.09,5.87,5.87,0,0,1,6-6.09c4.08,0,5.65,3.13,5.65,6.11v.79Zm6.95-1.76a3.14,3.14,0,0,0-3.35-3.38,3.58,3.58,0,0,0-3.6,3.38Z" transform="translate(-11.54 -9)"/><path class="cls-1" d="M508.73,66h2.2V67.8H511a4.1,4.1,0,0,1,3.82-2.08c2.25,0,4.21,1.34,4.21,4.43v7.46H516.8V70.76c0-2.18-1.24-3-2.64-3-1.83,0-3.23,1.18-3.23,3.87v6h-2.2Z" transform="translate(-11.54 -9)"/><path class="cls-1" d="M528.55,67.92h-3.16v5.26c0,1.3,0,2.67,1.67,2.67a3.11,3.11,0,0,0,1.56-.35v2a5,5,0,0,1-2,.39c-3.4,0-3.45-2.08-3.45-3.94v-6h-2.54V66h2.54V62.76h2.2V66h3.16Z" transform="translate(-11.54 -9)"/><path class="cls-1" d="M531.44,67.43a6.82,6.82,0,0,1,4.6-1.71c3.42,0,4.84,1.86,4.84,3.86V75.5a16.58,16.58,0,0,0,.1,2.11h-2c0-.59-.07-1.18-.07-1.76h-.05a4.42,4.42,0,0,1-4.06,2.05c-2.16,0-4-1.22-4-3.47,0-3,2.86-4,6.38-4h1.61v-.48a2.5,2.5,0,0,0-2.76-2.45,4.79,4.79,0,0,0-3.3,1.32Zm6.21,4.6c-2.08,0-4.62.37-4.62,2.23,0,1.32,1,1.88,2.49,1.88a3.13,3.13,0,0,0,3.3-3.38V72Z" transform="translate(-11.54 -9)"/><path class="cls-1" d="M544.26,59.11h2.2v18.5h-2.2Z" transform="translate(-11.54 -9)"/><path class="cls-1" d="M403.56,88.93h3.5l5.5,13.11h.1l5.45-13.11h3.5v17.32h-2.35V92h-.05l-5.84,14.24H411.8L406,92h0v14.24h-2.35Z" transform="translate(-11.54 -9)"/><path class="cls-1" d="M427,101.26a3.64,3.64,0,0,0,3.91,3.38,4,4,0,0,0,3.18-1.74l1.66,1.27a6.06,6.06,0,0,1-5.13,2.37,5.76,5.76,0,0,1-6-6.09,5.88,5.88,0,0,1,6-6.09c4.08,0,5.65,3.13,5.65,6.12v.78Zm6.94-1.76a3.14,3.14,0,0,0-3.35-3.38A3.57,3.57,0,0,0,427,99.5Z" transform="translate(-11.54 -9)"/><path class="cls-1" d="M450.55,106.25h-2.2v-1.66h-.05a5,5,0,0,1-4,2,6.09,6.09,0,0,1,0-12.18,4.84,4.84,0,0,1,4,2h.05V87.76h2.2Zm-2.2-5.8a3.82,3.82,0,1,0-3.81,4A3.71,3.71,0,0,0,448.35,100.45Z" transform="translate(-11.54 -9)"/><path class="cls-1" d="M455.16,88.88a1.62,1.62,0,1,1-1.62,1.62A1.63,1.63,0,0,1,455.16,88.88Zm-1.11,5.78h2.21v11.59h-2.21Z" transform="translate(-11.54 -9)"/><path class="cls-1" d="M468.05,97.74a3.69,3.69,0,0,0-2.89-1.3c-2.4,0-3.62,1.93-3.62,4.11a3.72,3.72,0,0,0,3.74,3.94,3.42,3.42,0,0,0,2.81-1.3l1.57,1.57a5.7,5.7,0,0,1-4.4,1.78,6.08,6.08,0,0,1,0-12.15,5.92,5.92,0,0,1,4.45,1.83Z" transform="translate(-11.54 -9)"/><path class="cls-1" d="M472.82,88.88a1.62,1.62,0,1,1-1.62,1.62A1.63,1.63,0,0,1,472.82,88.88Zm-1.1,5.78h2.2v11.59h-2.2Z" transform="translate(-11.54 -9)"/><path class="cls-1" d="M477.42,94.66h2.2v1.78h.05a4.08,4.08,0,0,1,3.81-2.08c2.25,0,4.21,1.35,4.21,4.43v7.46h-2.2V99.4c0-2.18-1.25-3-2.64-3-1.84,0-3.23,1.17-3.23,3.86v6h-2.2Z" transform="translate(-11.54 -9)"/><path class="cls-1" d="M492.68,101.26c0,2,1.89,3.38,3.92,3.38a4,4,0,0,0,3.18-1.74l1.66,1.27a6.06,6.06,0,0,1-5.14,2.37,5.75,5.75,0,0,1-6-6.09,5.88,5.88,0,0,1,6-6.09c4.08,0,5.65,3.13,5.65,6.12v.78Zm6.95-1.76a3.14,3.14,0,0,0-3.35-3.38,3.58,3.58,0,0,0-3.6,3.38Z" transform="translate(-11.54 -9)"/><path class="cls-2" d="M111.5,76.92a11.27,11.27,0,0,0-10.21-19.18,8.45,8.45,0,0,1-8.45,13.91,11.29,11.29,0,0,0,18.66,5.27Z" transform="translate(-11.54 -9)"/><path class="cls-2" d="M92.74,76.38a11.27,11.27,0,0,1,.42-15.94c.2-.19.41-.36.62-.54a8.45,8.45,0,1,0-.72,16.78c-.1-.1-.22-.19-.32-.3Z" transform="translate(-11.54 -9)"/><path class="cls-2" d="M39,76.92a11.27,11.27,0,0,0-10.2-19.18,8.45,8.45,0,0,1-8.45,13.91A11.27,11.27,0,0,0,39,76.92Z" transform="translate(-11.54 -9)"/><path class="cls-2" d="M20.27,76.38a11.27,11.27,0,0,1,.42-15.94c.19-.19.41-.36.62-.54a8.45,8.45,0,1,0-.72,16.78c-.11-.1-.22-.19-.32-.3Z" transform="translate(-11.54 -9)"/><path class="cls-2" d="M71.64,20.33a11.26,11.26,0,0,0-19.17,10.2A8.45,8.45,0,0,1,66.37,39a11.15,11.15,0,0,0,4.85-2.72,11.27,11.27,0,0,0,.42-15.94Z" transform="translate(-11.54 -9)"/><path class="cls-2" d="M71.1,39.09a11.28,11.28,0,0,1-15.94-.42c-.19-.2-.36-.41-.54-.63a8.46,8.46,0,1,0,16.79.72l-.31.33Z" transform="translate(-11.54 -9)"/><path class="cls-2" d="M71.64,92.81A11.26,11.26,0,0,0,52.47,103a8.45,8.45,0,0,1,13.9,8.45,11.27,11.27,0,0,0,5.27-18.65Z" transform="translate(-11.54 -9)"/><path class="cls-2" d="M71.1,111.56a11.27,11.27,0,0,1-15.94-.42c-.19-.2-.36-.41-.53-.62a8.45,8.45,0,1,0,16.78.72c-.11.11-.2.22-.31.32Z" transform="translate(-11.54 -9)"/><path class="cls-2" d="M103.15,40.43a11.27,11.27,0,0,0-20.77-6.35,8.45,8.45,0,0,1,3.85,15.81,11.28,11.28,0,0,0,16.92-9.46Z" transform="translate(-11.54 -9)"/><path class="cls-2" d="M89.51,53.31a11.28,11.28,0,0,1-11-11.57c0-.28,0-.55.07-.82A8.45,8.45,0,1,0,90,53.3Z" transform="translate(-11.54 -9)"/><path class="cls-2" d="M51.91,91.68a11.27,11.27,0,0,0-20.78-6.35A8.45,8.45,0,0,1,35,101.14a11.13,11.13,0,0,0,5.35,1.51,11.28,11.28,0,0,0,11.57-11Z" transform="translate(-11.54 -9)"/><path class="cls-2" d="M38.26,104.55A11.26,11.26,0,0,1,27.29,93a7.36,7.36,0,0,1,.06-.82A8.45,8.45,0,1,0,38.7,104.55c-.14,0-.29,0-.44,0Z" transform="translate(-11.54 -9)"/><path class="cls-2" d="M91.59,108.62a11.27,11.27,0,0,0,6.35-20.77A8.45,8.45,0,0,1,82.13,91.7a11.28,11.28,0,0,0,9.46,16.92Z" transform="translate(-11.54 -9)"/><path class="cls-2" d="M78.71,95A11.29,11.29,0,0,1,90.28,84c.28,0,.55,0,.82.06A8.45,8.45,0,1,0,78.73,95.42c0-.15,0-.29,0-.44Z" transform="translate(-11.54 -9)"/><path class="cls-2" d="M40.35,57.37A11.26,11.26,0,0,0,46.69,36.6a8.45,8.45,0,0,1-15.81,3.86,11.27,11.27,0,0,0,9.47,16.91Z" transform="translate(-11.54 -9)"/><path class="cls-2" d="M27.47,43.73A11.28,11.28,0,0,1,39,32.75c.28,0,.55,0,.82.07A8.45,8.45,0,1,0,27.48,44.17c0-.15,0-.29,0-.44Z" transform="translate(-11.54 -9)"/></svg>