<?xml version="1.0" encoding="utf-8"?>
<!-- Generator: Adobe Illustrator 26.2.1, SVG Export Plug-In . SVG Version: 6.00 Build 0)  -->
<svg version="1.1" id="Layer_1" xmlns="http://www.w3.org/2000/svg" xmlns:xlink="http://www.w3.org/1999/xlink" x="0px" y="0px"
	 viewBox="0 0 400 400" style="enable-background:new 0 0 400 400;" xml:space="preserve">
<style type="text/css">
	.st0{fill:#003E6B;}
</style>
<g>
	<path class="st0" d="M35.1,183.1c0,8.1-4.1,12.2-12.6,12.2c-9.5,0-12.6-5.4-12.6-13.5v-1.6h8.8v3.4c0,2.3,1.3,3.7,3.7,3.7
		c2.2,0,3.4-1.2,3.4-4.7v-23.9h9.4L35.1,183.1"/>
	<path class="st0" d="M57.8,157.9c11.3,0,17.7,8.2,17.7,18.6c0,10.4-6.3,18.6-17.7,18.6c-11.3,0-17.7-8.2-17.7-18.6
		C40.3,166.2,46.6,157.9,57.8,157.9 M57.8,187.2c6,0,8.3-5.3,8.3-10.7c0-5.3-2.3-10.7-8.3-10.7s-8.3,5.3-8.3,10.7
		C49.5,181.8,51.8,187.2,57.8,187.2z"/>
	<path class="st0" d="M111.6,179.6c0,10.4-4.8,15.5-15.5,15.5c-10.8,0-15.5-5.1-15.5-15.5v-20.9h9.4v21.5c0,4.5,1.8,7,6.3,7
		c4.5,0,6.3-2.3,6.3-7v-21.5h9.4v20.9"/>
	<path class="st0" d="M117.7,158.7H136c6.3,0,12.6,2.9,12.6,10.1c0,3.8-1.9,7.5-5.6,8.9v0.1c3.8,0.9,5,5.1,5.3,8.6
		c0.1,1.5,0.3,6.7,1.5,8.1h-9.2c-0.7-1.2-1-4.7-1-5.7c-0.3-3.7-0.9-7.3-5.3-7.3h-7v13h-9.4v-35.9 M127.1,174.2h7.8
		c2.8,0,4.2-1.5,4.2-4.2c0-2.6-2.1-3.8-4.7-3.8H127v8.1H127.1z"/>
	<polyline class="st0" points="153.7,158.7 163.4,158.7 175.9,180.8 175.9,180.8 175.9,158.7 184.6,158.7 184.6,194.4 175.1,194.4 
		162.7,172.2 162.5,172.2 162.5,194.4 153.7,194.4 153.7,158.7 	"/>
	<path class="st0" d="M200.8,158.7h9.5l13.3,35.7h-9.7l-2.2-6.4h-12.4l-2.2,6.4h-9.5L200.8,158.7 M201.3,181.1h8.1l-4-12.6h-0.1
		L201.3,181.1z"/>
	<polyline class="st0" points="226.4,158.7 235.8,158.7 235.8,186.5 252.4,186.5 252.4,194.4 226.4,194.4 226.4,158.7 	"/>
	<path class="st0" d="M288.2,195.3c-10.7,0-17-8.3-17-18.7c0-10.5,6.3-18.7,17-18.7c10.7,0,17,8.2,17,18.7
		C305.2,187.1,298.9,195.3,288.2,195.3 M288.2,193.4c9.4,0,14.8-7.6,14.8-16.8c0-9.2-5.4-16.8-14.8-16.8s-14.8,7.6-14.8,16.8
		C273.4,185.8,278.8,193.4,288.2,193.4z"/>
	<polyline class="st0" points="312,176.8 312,194.4 309.8,194.4 309.8,158.7 332.4,158.7 332.4,160.6 312,160.6 312,174.9 
		330.4,174.9 330.4,176.8 312,176.8 	"/>
	<polyline class="st0" points="11.9,205.5 40.4,205.5 40.4,213 21.2,213 21.2,219.3 38.7,219.3 38.7,226.5 21.2,226.5 21.2,233.4 
		40.8,233.4 40.8,241.4 11.9,241.4 11.9,205.5 	"/>
	<polyline class="st0" points="46.1,205.5 55.6,205.5 68.1,227.7 68.2,227.7 68.2,205.5 77,205.5 77,241.4 67.4,241.4 54.9,219 
		54.9,219 54.9,241.4 46.1,241.4 46.1,205.5 	"/>
	<path class="st0" d="M83.3,205.5h15.4c11,0,17.6,6.7,17.6,17.7c0,11.7-6.7,18-17.6,18H83.3V205.5 M92.7,233.4h4.4
		c7-0.1,9.8-2.9,9.8-10.1c0-6.6-3.5-9.7-9.8-9.7h-4.4V233.4z"/>
	<path class="st0" d="M137.6,204.8c11.3,0,17.7,8.3,17.7,18.6c0,10.4-6.3,18.6-17.7,18.6c-11.3,0-17.7-8.2-17.7-18.6
		C120.1,213.2,126.4,204.8,137.6,204.8 M137.6,234.1c6,0,8.3-5.3,8.3-10.7c0-5.3-2.3-10.7-8.3-10.7c-6,0-8.3,5.3-8.3,10.7
		C129.3,228.8,131.6,234.1,137.6,234.1z"/>
	<path class="st0" d="M160.3,205.5h15.4c11,0,17.6,6.7,17.6,17.7c0,11.7-6.7,18-17.6,18h-15.4V205.5 M169.7,233.4h4.4
		c7-0.1,9.8-2.9,9.8-10.1c0-6.6-3.5-9.7-9.8-9.7h-4.4V233.4z"/>
	<path class="st0" d="M214.7,204.8c11.3,0,17.7,8.3,17.7,18.6c0,10.4-6.3,18.6-17.7,18.6c-11.3,0-17.7-8.2-17.7-18.6
		C197.1,213.2,203.4,204.8,214.7,204.8 M214.7,234.1c6,0,8.3-5.3,8.3-10.7c0-5.3-2.3-10.7-8.3-10.7c-6,0-8.3,5.3-8.3,10.7
		C206.5,228.8,208.7,234.1,214.7,234.1z"/>
	<polyline class="st0" points="237.4,205.5 246.9,205.5 259.3,227.7 259.5,227.7 259.5,205.5 268.3,205.5 268.3,241.4 258.6,241.4 
		246.3,219 246.2,219 246.2,241.4 237.4,241.4 237.4,205.5 	"/>
	<polyline class="st0" points="303,213.6 292.3,213.6 292.3,241.4 282.9,241.4 282.9,213.6 272.4,213.6 272.4,205.5 303,205.5 
		303,213.6 	"/>
	<rect x="307.1" y="205.5" class="st0" width="9.4" height="35.7"/>
	<path class="st0" d="M346.6,218.4c-0.4-3.7-3.4-5.6-7.2-5.6c-6,0-8.3,5.3-8.3,10.7c0,5.3,2.3,10.7,8.3,10.7c4.4,0,6.9-2.5,7.2-6.6
		h9.4c-0.4,9.2-7.3,14.6-16.4,14.6c-10.8,0-17.9-8.2-17.9-18.6c0-10.4,7-18.6,17.9-18.6c7.8,0,16.1,5,16.4,13.5h-9.4"/>
	<path class="st0" d="M368.1,229.4c0.1,4.2,2.8,5.6,6.7,5.6c2.8,0,5.7-1,5.7-3.7c0-3.2-5.1-3.8-10.3-5.3
		c-5.1-1.5-10.5-3.8-10.5-10.4c0-7.8,7.9-10.8,14.6-10.8c7.2,0,14.4,3.5,14.4,11.6h-9.4c0.1-3.2-2.9-4.2-5.7-4.2
		c-2.1,0-4.5,0.7-4.5,3.1c0,2.8,5.1,3.2,10.4,4.7c5.1,1.5,10.4,3.8,10.4,10.4c0,9.1-7.8,12-15.5,12c-8.2,0-15.5-3.7-15.5-12.7h9.2"
		/>
</g>
</svg>
