<?xml version="1.0" encoding="utf-8"?>
<!-- Generator: Adobe Illustrator 26.2.1, SVG Export Plug-In . SVG Version: 6.00 Build 0)  -->
<svg version="1.1" id="Layer_1" xmlns="http://www.w3.org/2000/svg" xmlns:xlink="http://www.w3.org/1999/xlink" x="0px" y="0px"
	 viewBox="0 0 400 400" style="enable-background:new 0 0 400 400;" xml:space="preserve">
<style type="text/css">
	.st0{fill:#003E6B;}
</style>
<g>
	<path class="st0" d="M87.4,188.5c0,5.5-2.8,8.3-8.6,8.3c-6.5,0-8.6-3.7-8.6-9.2v-1.1h6v2.3c0,1.6,0.9,2.5,2.5,2.5
		c1.5,0,2.3-0.8,2.3-3.2v-16.3h6.4V188.5"/>
	<path class="st0" d="M102.9,171.3c7.7,0,12.1,5.6,12.1,12.7c0,7.1-4.3,12.7-12.1,12.7c-7.7,0-12.1-5.6-12.1-12.7
		C90.9,176.9,95.2,171.3,102.9,171.3 M102.9,191.3c4.1,0,5.7-3.6,5.7-7.3c0-3.6-1.6-7.3-5.7-7.3c-4.1,0-5.7,3.6-5.7,7.3
		C97.2,187.6,98.8,191.3,102.9,191.3z"/>
	<path class="st0" d="M139.6,186.1c0,7.1-3.3,10.6-10.6,10.6c-7.4,0-10.6-3.5-10.6-10.6v-14.3h6.4v14.7c0,3.1,1.2,4.8,4.3,4.8
		c3.1,0,4.3-1.6,4.3-4.8v-14.7h6.4V186.1"/>
	<path class="st0" d="M143.8,171.8h12.5c4.3,0,8.6,2,8.6,6.9c0,2.6-1.3,5.1-3.8,6.1v0.1c2.6,0.6,3.4,3.5,3.6,5.9
		c0.1,1,0.2,4.6,1,5.5h-6.3c-0.5-0.8-0.7-3.2-0.7-3.9c-0.2-2.5-0.6-5-3.6-5h-4.8v8.9h-6.4V171.8 M150.2,182.4h5.3
		c1.9,0,2.9-1,2.9-2.9c0-1.8-1.4-2.6-3.2-2.6h-5.1V182.4z"/>
	<polyline class="st0" points="168.4,171.8 175,171.8 183.5,186.9 183.5,186.9 183.5,171.8 189.5,171.8 189.5,196.2 183,196.2 
		174.5,181 174.4,181 174.4,196.2 168.4,196.2 168.4,171.8 	"/>
	<path class="st0" d="M200.5,171.8h6.5l9.1,24.4h-6.6l-1.5-4.4h-8.5l-1.5,4.4h-6.5L200.5,171.8 M200.9,187.1h5.5l-2.7-8.6h-0.1
		L200.9,187.1z"/>
	<polyline class="st0" points="218,171.8 224.4,171.8 224.4,190.8 235.8,190.8 235.8,196.2 218,196.2 218,171.8 	"/>
	<path class="st0" d="M260.2,196.8c-7.3,0-11.6-5.7-11.6-12.8c0-7.2,4.3-12.8,11.6-12.8c7.3,0,11.6,5.6,11.6,12.8
		C271.8,191.2,267.5,196.8,260.2,196.8 M260.2,195.5c6.4,0,10.1-5.2,10.1-11.5c0-6.3-3.7-11.5-10.1-11.5c-6.4,0-10.1,5.2-10.1,11.5
		C250.1,190.3,253.8,195.5,260.2,195.5z"/>
	<polyline class="st0" points="276.5,184.2 276.5,196.2 275,196.2 275,171.8 290.4,171.8 290.4,173.1 276.5,173.1 276.5,182.9 
		289,182.9 289,184.2 276.5,184.2 	"/>
	<polyline class="st0" points="71.5,203.8 91,203.8 91,208.9 77.9,208.9 77.9,213.2 89.8,213.2 89.8,218.1 77.9,218.1 77.9,222.8 
		91.3,222.8 91.3,228.3 71.5,228.3 71.5,203.8 	"/>
	<polyline class="st0" points="94.9,203.8 101.4,203.8 109.9,218.9 110,218.9 110,203.8 116,203.8 116,228.3 109.4,228.3 100.9,213 
		100.9,213 100.9,228.3 94.9,228.3 94.9,203.8 	"/>
	<path class="st0" d="M120.3,203.8h10.5c7.5,0,12,4.6,12,12.1c0,8-4.6,12.3-12,12.3h-10.5V203.8 M126.7,222.8h3
		c4.8-0.1,6.7-2,6.7-6.9c0-4.5-2.4-6.6-6.7-6.6h-3V222.8z"/>
	<path class="st0" d="M157.4,203.3c7.7,0,12.1,5.7,12.1,12.7c0,7.1-4.3,12.7-12.1,12.7c-7.7,0-12.1-5.6-12.1-12.7
		C145.4,209,149.7,203.3,157.4,203.3 M157.4,223.3c4.1,0,5.7-3.6,5.7-7.3c0-3.6-1.6-7.3-5.7-7.3c-4.1,0-5.7,3.6-5.7,7.3
		C151.7,219.7,153.3,223.3,157.4,223.3z"/>
	<path class="st0" d="M172.9,203.8h10.5c7.5,0,12,4.6,12,12.1c0,8-4.6,12.3-12,12.3h-10.5V203.8 M179.3,222.8h3
		c4.8-0.1,6.7-2,6.7-6.9c0-4.5-2.4-6.6-6.7-6.6h-3V222.8z"/>
	<path class="st0" d="M210,203.3c7.7,0,12.1,5.7,12.1,12.7c0,7.1-4.3,12.7-12.1,12.7c-7.7,0-12.1-5.6-12.1-12.7
		C198,209,202.3,203.3,210,203.3 M210,223.3c4.1,0,5.7-3.6,5.7-7.3c0-3.6-1.6-7.3-5.7-7.3c-4.1,0-5.7,3.6-5.7,7.3
		C204.4,219.7,205.9,223.3,210,223.3z"/>
	<polyline class="st0" points="225.5,203.8 232,203.8 240.5,218.9 240.6,218.9 240.6,203.8 246.6,203.8 246.6,228.3 240,228.3 
		231.6,213 231.5,213 231.5,228.3 225.5,228.3 225.5,203.8 	"/>
	<polyline class="st0" points="270.3,209.3 263,209.3 263,228.3 256.6,228.3 256.6,209.3 249.4,209.3 249.4,203.8 270.3,203.8 
		270.3,209.3 	"/>
	<rect x="273.1" y="203.8" class="st0" width="6.4" height="24.4"/>
	<path class="st0" d="M300.1,212.6c-0.3-2.5-2.3-3.8-4.9-3.8c-4.1,0-5.7,3.6-5.7,7.3c0,3.6,1.6,7.3,5.7,7.3c3,0,4.7-1.7,4.9-4.5h6.4
		c-0.3,6.3-5,10-11.2,10c-7.4,0-12.2-5.6-12.2-12.7c0-7.1,4.8-12.7,12.2-12.7c5.3,0,11,3.4,11.2,9.2H300.1"/>
	<path class="st0" d="M314.8,220.1c0.1,2.9,1.9,3.8,4.6,3.8c1.9,0,3.9-0.7,3.9-2.5c0-2.2-3.5-2.6-7-3.6c-3.5-1-7.2-2.6-7.2-7.1
		c0-5.3,5.4-7.4,10-7.4c4.9,0,9.8,2.4,9.8,7.9h-6.4c0.1-2.2-2-2.9-3.9-2.9c-1.4,0-3.1,0.5-3.1,2.1c0,1.9,3.5,2.2,7.1,3.2
		c3.5,1,7.1,2.6,7.1,7.1c0,6.2-5.3,8.2-10.6,8.2c-5.6,0-10.6-2.5-10.6-8.7H314.8"/>
</g>
</svg>
