<?xml version="1.0" encoding="UTF-8" standalone="no"?>
<!-- Created with Inkscape (http://www.inkscape.org/) -->

<svg
   version="1.1"
   id="svg9"
   width="1000"
   height="1000"
   viewBox="0 0 1000 1000"
   sodipodi:docname="logo.svg"
   xml:space="preserve"
   inkscape:version="1.2 (dc2aedaf03, 2022-05-15)"
   inkscape:export-filename="logo.png"
   inkscape:export-xdpi="96"
   inkscape:export-ydpi="96"
   xmlns:inkscape="http://www.inkscape.org/namespaces/inkscape"
   xmlns:sodipodi="http://sodipodi.sourceforge.net/DTD/sodipodi-0.dtd"
   xmlns:xlink="http://www.w3.org/1999/xlink"
   xmlns="http://www.w3.org/2000/svg"
   xmlns:svg="http://www.w3.org/2000/svg"><defs
     id="defs13"><linearGradient
       inkscape:collect="always"
       id="linearGradient100793"><stop
         style="stop-color:#ffffff;stop-opacity:0"
         offset="1"
         id="stop100791" /><stop
         style="stop-color:#ffffff;stop-opacity:1"
         offset="1"
         id="stop100789" /></linearGradient><linearGradient
       inkscape:collect="always"
       id="linearGradient98759"><stop
         style="stop-color:#ffffff;stop-opacity:1"
         offset="0"
         id="stop98755" /><stop
         style="stop-color:#ffffff;stop-opacity:0"
         offset="0"
         id="stop98757" /></linearGradient><marker
       style="overflow:visible"
       id="EmptyTriangleIn"
       refX="0"
       refY="0"
       orient="auto-start-reverse"
       inkscape:stockid="EmptyTriangleIn"
       markerWidth="5.8241119"
       markerHeight="6.7330775"
       viewBox="0 0 5.8241121 6.7330776"
       inkscape:isstock="true"
       inkscape:collect="always"
       preserveAspectRatio="xMidYMid"><path
         transform="scale(0.5)"
         style="fill:context-fill;fill-rule:evenodd;stroke:context-stroke;stroke-width:2"
         d="M 5.77,0 -2.88,5 V -5 Z"
         id="path153" /></marker><linearGradient
       id="linearGradient87693"
       inkscape:swatch="solid"><stop
         style="stop-color:#073144;stop-opacity:1;"
         offset="0"
         id="stop87691" /></linearGradient><inkscape:path-effect
       effect="fill_between_many"
       method="originald"
       linkedpaths="#path88472,0,1"
       id="path-effect88528"
       is_visible="true"
       lpeversion="0"
       join="true"
       close="true"
       autoreverse="true" /><inkscape:path-effect
       effect="fill_between_many"
       method="originald"
       linkedpaths="#path88472,0,1"
       id="path-effect88532"
       is_visible="true"
       lpeversion="0"
       join="true"
       close="true"
       autoreverse="true" /><linearGradient
       inkscape:collect="always"
       xlink:href="#linearGradient98759"
       id="linearGradient98761"
       x1="159.37845"
       y1="93.014671"
       x2="368.82916"
       y2="93.014671"
       gradientUnits="userSpaceOnUse"
       gradientTransform="matrix(1.909214,0,0,1.909214,351.02019,146.40595)" /><marker
       style="overflow:visible"
       id="EmptyTriangleIn-2"
       refX="0"
       refY="0"
       orient="auto-start-reverse"
       inkscape:stockid="EmptyTriangleIn"
       markerWidth="5.8241119"
       markerHeight="6.7330775"
       viewBox="0 0 5.8241121 6.7330776"
       inkscape:isstock="true"
       inkscape:collect="always"
       preserveAspectRatio="xMidYMid"><path
         transform="scale(0.5)"
         style="fill:context-fill;fill-rule:evenodd;stroke:context-stroke;stroke-width:2"
         d="M 5.77,0 -2.88,5 V -5 Z"
         id="path153-4" /></marker><linearGradient
       inkscape:collect="always"
       xlink:href="#linearGradient100793"
       id="linearGradient100700"
       gradientUnits="userSpaceOnUse"
       x1="159.37845"
       y1="93.014671"
       x2="368.82916"
       y2="93.014671"
       gradientTransform="matrix(-1.909214,0,0,-1.909214,1134.3141,865.06484)" /></defs><sodipodi:namedview
     id="namedview11"
     pagecolor="#ffffff"
     bordercolor="#000000"
     borderopacity="0.25"
     inkscape:showpageshadow="2"
     inkscape:pageopacity="0.0"
     inkscape:pagecheckerboard="0"
     inkscape:deskcolor="#d1d1d1"
     showgrid="false"
     inkscape:zoom="0.35355339"
     inkscape:cx="905.09668"
     inkscape:cy="692.96465"
     inkscape:window-width="1920"
     inkscape:window-height="1027"
     inkscape:window-x="-8"
     inkscape:window-y="-8"
     inkscape:window-maximized="1"
     inkscape:current-layer="g15" /><g
     inkscape:groupmode="layer"
     inkscape:label="Image"
     id="g15"><g
       id="g7226"
       transform="matrix(1.2963334,0,0,1.2963334,-475.26356,-159.18138)"><path
         style="fill:#ffffff;fill-opacity:1;stroke:#f6f6f6;stroke-width:12.202;stroke-dasharray:none;stroke-opacity:1"
         d="m 493.25125,164.61388 c -10.60243,7.15814 -18.03019,16.22953 -25.1439,26.76606 -4.2048,-3.25664 -9.74704,-8.57838 -14.8204,-10.23534 -3.26095,-1.06523 -6.78603,2.3623 -5.70482,5.66181 1.62554,4.95833 11.65105,8.78226 15.65746,11.87208 l -17.43845,32.03822 c -4.16822,-2.56799 -11.10067,-6.00946 -16.02154,-6.41001 -2.84102,-0.23115 -5.60416,1.99239 -5.16809,5.00856 0.81476,5.62945 14.16493,8.30477 18.7561,9.51214 l -9.73306,35.68804 c -4.20835,-1.86992 -12.256,-3.56834 -16.85374,-2.82178 -2.88825,0.46934 -4.73514,3.43897 -3.51894,6.17692 2.81733,6.33994 13.56109,2.00946 18.29144,5.20272 2.0723,1.39838 0.79633,5.78591 0.63193,7.83715 -0.48031,6.01307 -0.69743,12.02771 -0.56251,18.06059 0.0556,2.56391 0.92496,5.7892 0.13164,8.27767 -1.95101,6.12166 -21.79329,-1.48835 -19.66778,8.91351 1.57104,7.69157 16.02388,-1.2442 19.72212,2.93169 1.82829,2.06409 1.60272,7.39063 2.09296,10.04173 1.41502,7.65545 2.45687,16.88692 6.2216,23.78892 -4.30253,1.79932 -15.39664,4.03226 -17.51921,8.42034 -1.41743,2.93084 1.01258,6.11932 4.09632,6.19321 4.70035,0.1136 11.79586,-3.4367 15.85611,-5.69158 3.91434,6.86109 6.18466,14.79673 9.73317,21.89956 1.47369,2.94995 4.98247,7.43198 5.16613,10.72545 0.27189,4.88688 -11.39483,6.92659 -13.34765,11.0677 -1.33963,2.84018 1.03185,6.3565 4.21123,5.74902 4.80711,-0.91801 10.48772,-6.16869 14.51435,-8.8871 6.32617,10.74425 14.30977,20.79844 23.11617,29.60484 -2.59102,3.05165 -12.35021,15.27595 -6.24406,18.37487 5.25076,2.66467 12.00161,-9.45401 13.9495,-13.10265 6.74223,3.96975 13.19847,7.51919 20.98501,9.02539 3.65765,0.70677 11.56619,-0.29774 14.3969,1.82488 3.62921,2.7225 0.006,20.26847 9.34375,15.99643 7.13635,-3.2651 -2.49292,-13.7906 1.85864,-17.60521 2.42231,-2.12379 7.79703,-2.52245 10.83005,-3.73702 7.65388,-3.0664 16.71908,-8.01127 21.66715,-14.83216 3.09673,3.07815 7.91098,8.48115 12.20895,9.64275 3.27966,0.8861 6.57886,-2.25001 5.59982,-5.59982 -1.32945,-4.54933 -8.46729,-8.49188 -11.72454,-11.74923 7.59088,-8.94148 12.60516,-24.0228 11.35518,-35.68804 l 0.4051,-0.40509 c 4.57079,0.7931 11.69955,1.43765 16.14882,-0.0704 3.28656,-1.11523 4.22988,-5.4943 1.10589,-7.44869 -4.31137,-2.69726 -14.52345,1.95401 -17.55442,-1.44776 -2.25104,-2.52621 -2.74108,-9.51613 -3.85637,-12.82942 -2.38667,-7.09183 -6.36591,-13.85961 -11.66029,-19.16131 3.60194,-3.59732 14.04288,-8.95158 14.64755,-14.32552 0.35729,-3.1778 -2.7062,-5.13219 -5.53495,-4.10323 -4.90177,1.78311 -9.86489,7.12655 -13.97911,10.31791 -5.00966,-6.5704 -8.29147,-15.22713 -9.9988,-23.2561 -0.4521,-2.1295 -1.88459,-5.86215 -0.84559,-7.94106 1.92515,-3.84977 12.72771,-0.89698 16.34438,-3.04649 3.32512,-1.97609 2.83031,-6.51993 -0.81442,-7.74014 -4.3749,-1.46563 -11.94816,-0.56729 -16.44641,0.21234 l -0.40509,-0.4051 c 2.06833,-11.7989 3.80277,-21.99554 9.32754,-32.84919 3.28446,3.01054 9.73842,8.15183 14.1572,9.04492 2.50226,0.50617 5.4494,-1.83506 5.23761,-4.45899 -0.37375,-4.61993 -11.294,-10.09031 -14.93388,-12.29137 5.2,-5.28663 9.84468,-12.02644 12.79504,-18.83762 1.26612,-2.9223 2.36065,-10.30116 4.93225,-12.08843 4.27736,-2.97394 18.94631,5.487 19.93303,-3.28132 0.96312,-8.56225 -14.51898,-3.40285 -17.83635,-7.51598 -2.04302,-2.53312 -1.02073,-9.78379 -1.52768,-13.07201 -1.26127,-8.1863 -4.43791,-15.35752 -8.15754,-22.66382 4.00916,-2.42444 10.55064,-5.59254 13.23695,-9.4728 2.20254,-3.18064 0.0235,-7.72613 -4.10648,-7.16676 -4.48382,0.60725 -10.18535,9.96542 -14.62366,8.22399 -3.95047,-1.55032 -6.92676,-7.19825 -10.37631,-9.78089 -6.39669,-4.78831 -13.3413,-7.1883 -20.62967,-10.19178 1.88984,-3.65805 6.70564,-17.73738 1.39581,-19.89776 -6.97775,-2.83878 -9.1654,13.82428 -9.10124,17.86995 l -0.40509,0.40509 c -11.85172,-2.22563 -26.0724,-0.75382 -36.49916,5.67758 -1.65579,-4.28622 -7.25765,-19.46854 -13.50359,-16.71219 -6.40805,2.82788 3.57727,17.2352 6.20378,20.76765 m -8.40091,19.1762 c 8.1892,-10.38077 20.9988,-18.95556 34.14861,-21.00562 25.05903,-3.90659 52.5571,12.61262 59.81066,37.12373 3.65326,12.34401 3.67716,25.55549 -1.38852,37.52035 -3.8084,8.9946 -10.55026,15.87019 -15.76966,23.97383 -6.5585,10.18331 -10.90629,21.72625 -12.48067,33.75158 -2.17418,16.6116 1.03938,33.31924 8.7018,48.16628 4.68973,9.08675 11.99448,16.35003 16.92986,25.247 8.1646,14.71722 8.27483,32.1046 2.04324,47.53718 -2.4358,6.0314 -6.56461,11.14246 -10.66504,16.10103 -4.79763,5.80252 -12.7253,10.22304 -19.71403,12.72974 -5.26885,1.88984 -10.4943,2.96009 -16.07868,3.3875 -37.18045,2.84607 -61.05666,-36.676 -73.7977,-66.17421 -28.96975,-67.07332 -16.44046,-141.6909 28.26013,-198.35839 m 2.4948,99.01664 c -8.13357,11.17374 0.38159,27.70938 14.11177,28.44466 6.44707,0.34555 12.37324,-3.81053 15.994,-8.88302 7.6064,-10.65618 -0.50304,-25.54578 -12.75812,-27.52892 -6.81604,-1.10269 -13.40165,2.54681 -17.34765,7.96728 m 7.2553,5.63306 c 6.70352,-9.65113 21.45208,-0.34163 15.05664,9.37909 -6.18827,9.4051 -21.49556,-0.10806 -15.05664,-9.37909 m -0.77101,64.11646 c -7.52859,10.05278 -7.80479,23.5092 0.30167,33.41749 10.01689,12.24505 30.88679,13.89119 40.98447,0.56885 4.20677,-5.54913 7.15178,-11.90563 6.67242,-19.03838 -1.60681,-23.90855 -33.20248,-34.65108 -47.95817,-14.94763 m 6.44731,7.2585 c 13.47428,-18.92642 41.75869,0.43408 28.47294,19.55096 -12.34566,17.76536 -41.14746,-1.74792 -28.47294,-19.55096 z"
         id="path82536" /><g
         id="g91161"
         transform="matrix(6.7906567,0,0,6.7906567,-276.36863,-493.8542)"
         style="fill:#ffffff;fill-opacity:1;stroke:#f6f6f6;stroke-width:1.36982;stroke-dasharray:none;stroke-opacity:1"><path
           style="fill:#ffffff;fill-opacity:1;stroke:#f6f6f6;stroke-width:1.36982;stroke-dasharray:none;stroke-opacity:1"
           d="m 789.28957,-542.28612 c -0.0292,0.17158 -0.16409,0.33865 -0.34129,0.42273 -0.0943,0.0448 -0.12254,0.0486 -0.41312,0.0567 l -0.31192,0.009 v 5.39261 c 0,3.42921 -0.006,5.42647 -0.0176,5.48562 -0.0329,0.17313 -0.15236,0.27357 -0.32556,0.27357 -0.11019,0 -0.21808,-0.0603 -0.26656,-0.14908 -0.0305,-0.0559 -0.0326,-0.29529 -0.0412,-4.69696 l -0.009,-4.63809 h -1.34712 -1.34713 l -0.009,4.62905 c -0.007,3.43191 -0.0144,4.64074 -0.0298,4.67426 -0.0234,0.0509 -0.10389,0.12997 -0.16337,0.16053 -0.0217,0.0111 -0.0828,0.0202 -0.13562,0.0202 -0.11326,-7e-5 -0.18579,-0.0381 -0.26129,-0.13712 l -0.0518,-0.0679 -0.005,-5.47334 -0.005,-5.47334 -0.31385,-0.009 c -0.30237,-0.008 -0.31808,-0.0106 -0.42937,-0.0629 -0.18864,-0.0887 -0.296,-0.22974 -0.34153,-0.44881 -0.0127,-0.0609 -0.0172,-0.92851 -0.0139,-2.64905 l 0.005,-2.55854 0.0418,-0.10352 c 0.0252,-0.0624 0.0794,-0.14325 0.13629,-0.20343 l 0.0945,-0.0999 -0.077,-0.0756 c -0.0906,-0.0889 -0.16113,-0.22433 -0.18648,-0.35799 -0.0198,-0.1046 -0.0267,-6.08712 -0.007,-6.13835 0.025,-0.0651 0.0734,-0.0676 0.20772,-0.0105 0.25845,0.10999 0.44579,0.13052 0.75913,0.0832 0.28096,-0.0424 0.42239,-0.11119 0.60717,-0.29527 0.15627,-0.15567 0.18615,-0.16162 0.28718,-0.0572 0.17005,0.17574 0.52577,0.39038 0.7586,0.45775 0.17447,0.0505 0.18697,0.0582 0.19872,0.12304 0.006,0.0328 0.008,1.36966 0.005,2.97084 l -0.005,2.91124 -0.0565,0.11753 c -0.0311,0.0646 -0.0913,0.15207 -0.13382,0.19428 l -0.0773,0.0768 0.0935,0.0988 c 0.0514,0.0543 0.11161,0.13779 0.13381,0.18544 l 0.0403,0.0866 v 2.64905 2.64904 l -0.049,0.0997 c -0.0637,0.12946 -0.17555,0.24101 -0.30193,0.30097 -0.0942,0.0447 -0.12253,0.0486 -0.41304,0.0567 l -0.31192,0.009 v 0.71178 0.71178 h 1.35617 1.35617 v -0.71197 -0.71197 l -0.31192,-0.008 c -0.29448,-0.008 -0.31822,-0.0108 -0.42465,-0.0589 -0.14117,-0.0637 -0.25614,-0.18358 -0.31407,-0.3274 l -0.0434,-0.10758 v -2.61288 -2.61288 l 0.0418,-0.10352 c 0.0252,-0.0624 0.0794,-0.14325 0.13629,-0.20344 l 0.0945,-0.0999 -0.077,-0.0755 c -0.0968,-0.0951 -0.16103,-0.22538 -0.1854,-0.37649 -0.0297,-0.1843 -0.0258,-5.78117 0.004,-5.84056 0.0174,-0.0347 0.0606,-0.0581 0.18507,-0.10053 0.31089,-0.10597 0.50829,-0.22124 0.70932,-0.4142 0.15904,-0.15266 0.18524,-0.15347 0.32212,-0.01 0.18188,0.19068 0.35525,0.27815 0.6317,0.31872 0.31907,0.0468 0.52316,0.0239 0.77028,-0.0866 0.12159,-0.0544 0.12644,-0.0551 0.16154,-0.0233 0.036,0.0326 0.0362,0.0521 0.0313,3.14433 l -0.005,3.1116 -0.0543,0.098 c -0.0298,0.0539 -0.09,0.1338 -0.13377,0.17755 l -0.0795,0.0795 0.0841,0.0829 c 0.0462,0.0456 0.10643,0.12843 0.13377,0.1841 l 0.0497,0.10122 0.003,2.5948 c 0.002,1.42714 -0.004,2.63368 -0.0122,2.68119 z m -0.21273,-5.32334 c -0.0303,-0.0581 -0.0797,-0.11718 -0.1235,-0.14799 l -0.073,-0.0513 -0.96595,3.7e-4 c -0.53127,2.3e-4 -0.97872,0.001 -0.99434,0.002 -0.0453,0.002 -0.17717,0.12456 -0.22086,0.20626 l -0.04,0.0749 v 2.61289 2.61288 l 0.0407,0.0761 c 0.0526,0.0985 0.12096,0.16283 0.2185,0.20581 0.0737,0.0325 0.13195,0.0345 0.9725,0.0345 0.9671,0 0.95229,0.002 1.08453,-0.0995 0.0318,-0.0243 0.0791,-0.0866 0.10495,-0.13861 l 0.0471,-0.0945 v -2.59823 -2.59823 z m -0.0987,-6.67426 c -0.12106,0.0363 -0.18839,0.0448 -0.35713,0.0449 -0.44496,3e-4 -0.72811,-0.0948 -0.98371,-0.33043 l -0.0798,-0.0735 -0.15426,0.12377 c -0.16843,0.13513 -0.43931,0.2846 -0.63155,0.34847 l -0.12243,0.0407 0.005,2.89511 0.005,2.89511 0.0392,0.0731 c 0.0515,0.0962 0.18117,0.21416 0.26975,0.24543 0.0565,0.0199 0.2463,0.025 0.93876,0.025 h 0.86795 l 0.085,-0.0434 c 0.10234,-0.0523 0.18182,-0.13107 0.23026,-0.2282 0.0353,-0.0708 0.0359,-0.11721 0.0366,-3.06632 l 5e-4,-2.99442 -0.14918,0.0448 z m -3.26463,6.67426 c -0.0304,-0.0583 -0.0797,-0.11718 -0.12396,-0.14831 l -0.0734,-0.0516 h -0.98632 c -0.66498,0 -0.99808,0.006 -1.02242,0.0193 -0.08,0.0428 -0.18214,0.18402 -0.20186,0.27912 -0.0134,0.0646 -0.0179,0.8833 -0.0146,2.65214 0.005,2.47089 0.006,2.56101 0.0391,2.62772 0.0453,0.0912 0.12876,0.17278 0.21844,0.21352 0.0673,0.0305 0.14021,0.0331 0.9729,0.0335 0.97745,4.6e-4 0.95762,0.003 1.09436,-0.10201 0.0339,-0.0259 0.0811,-0.0887 0.10477,-0.13958 l 0.0431,-0.0925 1.5e-4,-2.59725 1.5e-4,-2.59726 -0.0505,-0.0967 z m -0.058,-6.56056 c -0.23089,-0.0718 -0.50287,-0.22872 -0.72711,-0.41941 l -0.0671,-0.0571 -0.10699,0.099 c -0.22618,0.2094 -0.53826,0.31066 -0.95222,0.30894 -0.20523,-10e-4 -0.30774,-0.0196 -0.49061,-0.0898 -0.0216,-0.008 -0.0246,0.42786 -0.0205,2.98947 l 0.005,2.99917 0.04,0.0748 c 0.0509,0.0952 0.13365,0.17791 0.22882,0.22882 0.0742,0.0397 0.0811,0.04 0.96079,0.04 h 0.88603 l 0.0968,-0.0536 c 0.0533,-0.0295 0.12029,-0.0821 0.14895,-0.11686 0.11056,-0.13412 0.1043,0.0576 0.10089,-3.09086 l -0.003,-2.88163 z"
           id="path85086"
           transform="translate(-615.94469,703.15525)" /><g
           id="g85114"
           transform="rotate(-120.40743,-347.07778,-233.30381)"
           style="fill:#ffffff;fill-opacity:1;stroke:#f6f6f6;stroke-width:1.36982;stroke-dasharray:none;stroke-opacity:1"><g
             id="g85128"
             transform="matrix(0.79822143,0,0,0.79822143,-199.65573,7.9180438)"
             style="fill:#ffffff;fill-opacity:1;stroke:#f6f6f6;stroke-width:1.71609;stroke-dasharray:none;stroke-opacity:1"><path
               style="fill:#ffffff;fill-opacity:1;stroke:#f6f6f6;stroke-width:1.71609;stroke-dasharray:none;stroke-opacity:1"
               d="m -972.67452,35.908375 c -3.05285,-0.203269 -6.58575,-1.089807 -9.37723,-2.353071 -3.70804,-1.678042 -6.83831,-4.000214 -9.34711,-6.933993 -1.7967,-2.100993 -2.9475,-3.943336 -4.1215,-6.598298 -0.749,-1.693624 -1.3992,-4.081072 -1.7206,-6.317516 -0.2106,-1.465015 -0.2744,-3.8017978 -0.1481,-5.4190298 0.062,-0.791207 0.089,-1.014088 0.263,-2.133916 0.1718,-1.106878 0.5602,-2.725648 0.8961,-3.734354 0.2588,-0.776871 0.5785,-1.64361051 0.7221,-1.95768301 0.081,-0.1759767 0.1464,-0.3332276 0.1464,-0.3494464 0,-0.085215 0.9264,-1.97573689 1.2179,-2.48538439 0.3227,-0.5641074 0.664,-1.1248907 0.9623,-1.5811656 0.3082,-0.471351 1.23829,-1.7986936 1.29847,-1.8531396 0.0173,-0.015443 0.19432,-0.2302358 0.39384,-0.4773206 1.38774,-1.7188597 3.13622,-3.4101224 4.91586,-4.7550276 5.14461,-3.88781 11.43963,-5.848879 17.64875,-5.498061 1.18622,0.06704 1.39961,0.08952 2.65158,0.279564 2.24033,0.340076 4.54588,1.033512 6.79112,2.042551 1.0153,0.456289 2.0164,0.998083 3.44417,1.863978 0.95533,0.579377 2.51732,1.779469 3.80353,2.9222752 0.93351,0.8294333 2.42245,2.4465962 3.33385,3.6209607 2.26151,2.9140067 3.9904,6.40730099 4.83642,9.7721813 0.30614,1.217584 0.3552,1.443679 0.49966,2.302385 0.41423,2.462538 0.44868,5.6931928 0.0844,7.9179538 -0.34953,2.134767 -0.94967,4.238835 -1.66578,5.840195 -0.54389,1.216227 -1.06765,2.242482 -1.44764,2.8365 -0.10654,0.166558 -0.19371,0.313206 -0.19371,0.325887 0,0.0401 -0.93773,1.424662 -1.19016,1.757273 -0.133,0.175257 -0.2912,0.384579 -0.35156,0.46516 -0.80579,1.075784 -2.60481,2.945759 -3.7935,3.943122 -2.01063,1.687004 -4.06743,2.969188 -6.65403,4.148033 -2.31257,1.053963 -5.14466,1.848396 -7.91222,2.219477 -1.81088,0.242805 -4.10081,0.315451 -5.98633,0.18991 z m 4.91363,-0.82917 c 3.05281,-0.379952 5.24486,-0.908831 7.5187,-1.814047 0.31225,-0.1243 0.68431,-0.272431 0.82678,-0.329176 1.32675,-0.528352 3.52864,-1.756409 4.96343,-2.768246 2.07158,-1.460909 4.02838,-3.318779 5.50464,-5.226337 0.58115,-0.750929 1.48325,-2.081111 1.79316,-2.644075 0.085,-0.154433 0.1743,-0.306047 0.1984,-0.336933 0.0587,-0.07526 0.73097,-1.416657 0.95686,-1.909296 0.92741,-2.0226 1.57772,-4.42029 1.88859,-6.963313 0.12021,-0.983346 0.13824,-3.9979688 0.0296,-4.9417028 -0.32589,-2.829707 -0.89564,-5.066801 -1.89777,-7.45150651 -1.91745,-4.56281789 -5.18177,-8.63989409 -9.2596,-11.56508469 -5.51794,-3.958233 -12.12458,-5.615264 -18.64374,-4.676094 -1.68386,0.24259 -2.87486,0.523581 -4.49107,1.059614 -3.69696,1.226095 -6.98325,3.178764 -9.91095,5.888865 -2.02556,1.8750649 -3.88955,4.2640986 -5.2775,6.7641782 -1.0303,1.85570899 -2.036,4.463005 -2.4742,6.414136 -0.3303,1.470563 -0.4786,2.441278 -0.5907,3.868454 -0.1644,2.0912638 -0.056,4.1302828 0.3365,6.3186928 0.627,3.497886 2.2207,7.141104 4.3748,10.000838 1.07805,1.431186 2.73892,3.182449 4.0437,4.263634 4.2381,3.51196 9.38325,5.59787 15.02835,6.092739 0.73088,0.06406 4.47112,0.03068 5.08208,-0.04536 z"
               id="path85118" /><path
               style="fill:#ffffff;fill-opacity:1;stroke:#f6f6f6;stroke-width:1.71609;stroke-dasharray:none;stroke-opacity:1"
               d="m -974.27494,28.579611 c -1.07632,-0.08587 -2.63442,-0.40221 -3.67819,-0.746795 -4.76476,-1.572973 -8.60618,-5.520846 -10.24925,-10.533352 -0.61171,-1.865945 -0.86843,-3.48076 -0.86607,-5.447106 0,-2.5071988 0.50028,-4.5690988 1.66586,-6.9071558 0.77431,-1.553188 1.74661,-2.886569 3.07348,-4.21501311 1.01364,-1.0148075 1.54107,-1.4540671 2.55734,-2.12963579 2.08297,-1.3846557 4.43588,-2.2731265 6.79489,-2.5657446 0.78483,-0.097355 3.16725,-0.096787 3.93088,6.925e-4 3.9041,0.499599 7.36136,2.2328979 10.05373,5.0404432 2.07333,2.1620178 3.48135,5.1341208 3.98138,8.4040838 0.4366,2.8551138 0.19718,5.5942248 -0.73137,8.3671228 -0.15263,0.455783 -0.34287,0.973824 -0.42277,1.151193 -0.91796,2.037877 -1.81305,3.375593 -3.16603,4.731648 -2.37403,2.379421 -5.1043,3.846951 -8.5157,4.577215 -0.77082,0.165007 -1.80318,0.263664 -2.91197,0.278276 -0.67951,0.0089 -1.36178,0.0062 -1.51621,-0.0062 z m 2.33047,-0.584087 c 3.94742,-0.274633 7.57126,-1.960003 10.3333,-4.80581 1.34733,-1.388188 2.30361,-2.883882 3.05083,-4.771703 0.55254,-1.395986 0.94118,-3.011964 1.10778,-4.606288 0.0999,-0.955998 0.0393,-3.227719 -0.11211,-4.2003588 -0.56852,-3.652636 -2.24321,-6.827779 -4.76339,-9.03116141 -2.48922,-2.17630489 -5.16246,-3.41979699 -8.43716,-3.92465919 -1.17973,-0.181877 -3.31831,-0.182805 -4.49248,-0.00208 -1.5919,0.2452151 -2.83678,0.6444192 -4.40818,1.4136862 -3.16711,1.55032769 -5.70014,4.0690574 -7.26676,7.2256124 -1.08165,2.179352 -1.57861,4.254985 -1.57722,6.5871978 0,3.537775 1.16496,7.067288 3.275,9.939909 1.30263,1.773452 3.07272,3.334035 4.95125,4.365346 1.70936,0.938443 3.73152,1.576158 5.55943,1.75325 1.26129,0.122209 1.70949,0.131385 2.77971,0.05692 z"
               id="path85116" /></g></g></g><path
         style="fill:url(#linearGradient98761);fill-opacity:1;stroke:#f6f6f6;stroke-width:9.37248;stroke-dasharray:none;stroke-dashoffset:0;stroke-opacity:1;marker-end:url(#EmptyTriangleIn)"
         d="M 1046.4866,492.22723 C 1042.0562,278.14811 979.60721,132.83177 719.31148,222.00043"
         id="path93011"
         sodipodi:nodetypes="cc" /><path
         style="fill:url(#linearGradient100700);fill-opacity:1;stroke:#f6f6f6;stroke-width:9.37248;stroke-dasharray:none;stroke-dashoffset:0;stroke-opacity:1;marker-end:url(#EmptyTriangleIn-2)"
         d="m 438.84775,519.24356 c 4.43041,214.07915 66.87943,359.39548 327.17514,270.22683"
         id="path93011-5"
         sodipodi:nodetypes="cc" /><path
         d="M 0,0"
         id="path88530"
         class="UnoptimicedTransforms"
         style="fill:#d0c589;fill-opacity:1;stroke:#f6f6f6;stroke-width:1.06916;stroke-dasharray:none;stroke-opacity:1"
         inkscape:original-d="M 0,0"
         inkscape:path-effect="#path-effect88528"
         transform="matrix(1.9660396,0,0,1.9660396,375.17056,116.62229)" /></g><g
       id="g87703"
       transform="matrix(0.86666023,0,0,0.86666023,16.335064,24.539913)"><g
         id="g85084"
         transform="translate(-615.94469,703.15525)" /><g
         id="g91333"
         transform="matrix(1.1205042,0,0,1.1205042,-33.021972,-10.835678)" /></g><path
       d=""
       id="path88534"
       class="UnoptimicedTransforms"
       inkscape:original-d=""
       inkscape:path-effect="#path-effect88532" /></g></svg>
