<?xml version="1.0" encoding="UTF-8" standalone="no"?>
<!-- Created with Inkscape (http://www.inkscape.org/) -->

<svg
   version="1.1"
   id="svg9"
   width="1500"
   height="1000"
   viewBox="0 0 1500 1000"
   sodipodi:docname="logo.svg"
   xml:space="preserve"
   inkscape:version="1.2 (dc2aedaf03, 2022-05-15)"
   inkscape:export-filename="share-thumbnail.jpg"
   inkscape:export-xdpi="96"
   inkscape:export-ydpi="96"
   xmlns:inkscape="http://www.inkscape.org/namespaces/inkscape"
   xmlns:sodipodi="http://sodipodi.sourceforge.net/DTD/sodipodi-0.dtd"
   xmlns:xlink="http://www.w3.org/1999/xlink"
   xmlns="http://www.w3.org/2000/svg"
   xmlns:svg="http://www.w3.org/2000/svg"><defs
     id="defs13"><linearGradient
       inkscape:collect="always"
       id="linearGradient100793"><stop
         style="stop-color:#ffffff;stop-opacity:0"
         offset="1"
         id="stop100791" /><stop
         style="stop-color:#ffffff;stop-opacity:1"
         offset="1"
         id="stop100789" /></linearGradient><linearGradient
       inkscape:collect="always"
       id="linearGradient98759"><stop
         style="stop-color:#ffffff;stop-opacity:1"
         offset="0"
         id="stop98755" /><stop
         style="stop-color:#ffffff;stop-opacity:0"
         offset="0"
         id="stop98757" /></linearGradient><marker
       style="overflow:visible"
       id="EmptyTriangleIn"
       refX="0"
       refY="0"
       orient="auto-start-reverse"
       inkscape:stockid="EmptyTriangleIn"
       markerWidth="5.8241119"
       markerHeight="6.7330775"
       viewBox="0 0 5.8241121 6.7330776"
       inkscape:isstock="true"
       inkscape:collect="always"
       preserveAspectRatio="xMidYMid"><path
         transform="scale(0.5)"
         style="fill:context-fill;fill-rule:evenodd;stroke:context-stroke;stroke-width:2"
         d="M 5.77,0 -2.88,5 V -5 Z"
         id="path153" /></marker><linearGradient
       id="linearGradient87693"
       inkscape:swatch="solid"><stop
         style="stop-color:#073144;stop-opacity:1;"
         offset="0"
         id="stop87691" /></linearGradient><inkscape:path-effect
       effect="fill_between_many"
       method="originald"
       linkedpaths="#path88472,0,1"
       id="path-effect88528"
       is_visible="true"
       lpeversion="0"
       join="true"
       close="true"
       autoreverse="true" /><inkscape:path-effect
       effect="fill_between_many"
       method="originald"
       linkedpaths="#path88472,0,1"
       id="path-effect88532"
       is_visible="true"
       lpeversion="0"
       join="true"
       close="true"
       autoreverse="true" /><linearGradient
       inkscape:collect="always"
       xlink:href="#linearGradient98759"
       id="linearGradient98761"
       x1="159.37845"
       y1="93.014671"
       x2="368.82916"
       y2="93.014671"
       gradientUnits="userSpaceOnUse" /><marker
       style="overflow:visible"
       id="EmptyTriangleIn-2"
       refX="0"
       refY="0"
       orient="auto-start-reverse"
       inkscape:stockid="EmptyTriangleIn"
       markerWidth="5.8241119"
       markerHeight="6.7330775"
       viewBox="0 0 5.8241121 6.7330776"
       inkscape:isstock="true"
       inkscape:collect="always"
       preserveAspectRatio="xMidYMid"><path
         transform="scale(0.5)"
         style="fill:context-fill;fill-rule:evenodd;stroke:context-stroke;stroke-width:2"
         d="M 5.77,0 -2.88,5 V -5 Z"
         id="path153-4" /></marker><linearGradient
       inkscape:collect="always"
       xlink:href="#linearGradient100793"
       id="linearGradient100700"
       gradientUnits="userSpaceOnUse"
       x1="159.37845"
       y1="93.014671"
       x2="368.82916"
       y2="93.014671"
       gradientTransform="rotate(180,205.13519,188.20805)" /></defs><sodipodi:namedview
     id="namedview11"
     pagecolor="#ffffff"
     bordercolor="#000000"
     borderopacity="0.25"
     inkscape:showpageshadow="2"
     inkscape:pageopacity="0.0"
     inkscape:pagecheckerboard="0"
     inkscape:deskcolor="#d1d1d1"
     showgrid="false"
     inkscape:zoom="0.5"
     inkscape:cx="108"
     inkscape:cy="376"
     inkscape:window-width="2560"
     inkscape:window-height="1387"
     inkscape:window-x="-8"
     inkscape:window-y="-8"
     inkscape:window-maximized="1"
     inkscape:current-layer="g101662" /><g
     inkscape:groupmode="layer"
     inkscape:label="Image"
     id="g15"><g
       id="g101662"
       transform="matrix(1.9660396,0,0,1.9660396,375.17056,116.62229)"
       style="stroke-width:0.99998;stroke-dasharray:none"><g
         id="g91144"
         transform="matrix(0.19636567,0,0,0.19636567,255.46348,158.54736)"
         style="fill:#ffffff;fill-opacity:1;stroke-width:5.09244;stroke-dasharray:none"><path
           style="fill:#ffffff;fill-opacity:1;stroke-width:5.09244;stroke-dasharray:none"
           d="m -372.0502,-180.13739 c 3.575,-0.81923 9.984,-2.5799 14.24223,-3.91262 18.02304,-5.64075 60.41966,-3.96569 68.45697,2.70468 6.97062,5.7851 -1.32899,-10.13676 -11.07867,-21.25318 l -8.52232,-9.71699 -5.7991,-2.84758 -5.79911,-2.84757 -8,0.12341 -8,0.12342 -14.5,4.30076 -14.5,4.30077 -7.20793,0.0584 -7.20793,0.0584 0.59713,9.51739 c 0.32841,5.23457 0.67256,9.61797 0.76477,9.7409 0.0922,0.12293 1.90817,-0.9592 4.03548,-2.40474 3.77314,-2.56386 17.48188,-8.31871 19.8163,-8.31871 0.64374,0 -1.97242,1.83466 -5.81369,4.07703 -10.74611,6.2731 -26.77784,21.15616 -19.98413,18.55228 1.1,-0.42161 4.925,-1.43683 8.5,-2.25605 z"
           id="path88457" /><path
           style="fill:#ffffff;fill-opacity:1;stroke-width:5.09244;stroke-dasharray:none"
           d="m -431.5502,42.454766 c 6.05,-0.56809 18.65,-2.62635 28,-4.5739 27.29715,-5.68584 44.98915,-8.40376 60.54299,-9.30086 l 14.54298,-0.83879 4.30643,-2.19698 c 11.29857,-5.7641 13.86579,-9.61446 19.08696,-28.6269097 4.56602,-16.6268103 11.14421,-33.7372903 23.14058,-60.1907703 26.65301,-58.773196 23.2411,-110.842006 -7.63303,-116.486766 -1.6428,-0.30036 -7.03691,-1.35592 -11.98691,-2.3457 l -9,-1.7996 -18,-0.0387 -18,-0.0387 -6,1.85785 c -3.3,1.02182 -10.62708,3.60699 -16.2824,5.74484 -5.65532,2.13784 -13.35465,4.41382 -17.10961,5.05772 l -6.8272,1.17074 -3.27622,-1.35706 c -2.16908,-0.89846 -5.26458,-4.08498 -9.16012,-9.42947 -10.19154,-13.98228 -11.48461,-15.19689 -28.09588,-26.39124 -16.58772,-11.17848 -24.96105,-17.84117 -26.84435,-21.36015 -0.60885,-1.13765 1.62481,0.12409 5.26947,2.97658 3.47947,2.72321 12.3573,8.61162 19.72852,13.08535 18.62942,11.30656 22.19785,14.2494 30.68112,25.30234 4.08848,5.32691 8.38559,9.98745 9.54915,10.35675 l 2.11556,0.67145 2.9084,-2.9084 2.9084,-2.9084 1.12829,-11.44835 1.12828,-11.44835 -1.73804,-5.91993 -1.73804,-5.91993 -6.17266,-6.15132 c -15.36474,-15.31156 -61.78979,-33.53077 -82.2274,-32.26955 l -7.05473,0.43535 -6.39618,3.40913 c -44.93917,23.95233 -89.11772,136.98877 -77.53813,198.391176 2.10579,11.16624 20.97485,68.35621 23.33039,70.71175 l 1.06739,1.06739 6.61481,-1.24813 c 10.26302,-1.93649 20.03106,0.63965 34.77167,9.17036 6.825,3.94978 21.15489,9.09487 35.60957,12.78548 6.62684,1.69198 10.99806,2.44675 22.64994,3.91095 0.55,0.0691 5.95,-0.33915 12,-0.90725 z"
           id="path88455" /><path
           style="fill:#ffffff;fill-opacity:1;stroke-width:5.09244;stroke-dasharray:none"
           d="m -409.19781,508.42759 c 2.72296,-0.58397 6.99463,-2.3579 9.4926,-3.94207 l 4.54177,-2.88031 4.0182,-8.30793 c 10.07899,-20.83912 9.97558,-20.24441 39.14966,-225.15057 13.24634,-93.03655 24.69384,-172.082364 25.43889,-175.657364 0.74506,-3.575 1.66532,-9.69516 2.04503,-13.60035 l 0.69039,-7.10034 -1.57109,-5.40435 c -2.74665,-9.44816 -12.38473,-16.45003 -26.91184,-19.55092 l -7.246,-1.5467 -9.5,0.56895 c -5.225,0.31292 -16.7,1.89517 -25.5,3.5161 -23.91946,4.40588 -34.82283,5.42092 -51.8621,4.82806 l -15.1379,-0.52671 -13,-3.27408 -13,-3.27408 -11.5,-0.0609 -11.5,-0.0609 -4.96346,2.28131 c -13.13579,6.03747 -14.81076,12.28537 -11.58259,43.20492 12.81443,122.737114 14.6997,132.783904 50.57152,269.500004 4.76223,18.15 11.54123,45.15 15.06445,60 14.37468,60.58773 24.01753,80.53411 41.5834,86.01596 5.4481,1.70022 4.83355,1.67592 10.67907,0.42228 z"
           id="path88453" /><path
           style="fill:#ffffff;fill-opacity:1;stroke-width:5.09244;stroke-dasharray:none"
           d="m -151.42287,558.23935 c -0.86538,-3.9875 -3.58343,-19.175 -6.04009,-33.75 -17.92878,-106.36844 -32.55753,-178.34895 -52.69981,-259.30856 -4.89993,-19.69471 -9.77191,-39.04471 -10.82663,-43 -1.05472,-3.95529 -5.36447,-20.69144 -9.57722,-37.19144 -9.53142,-37.33152 -13.10486,-46.7148 -20.96383,-55.04774 l -3.2559,-3.45226 h -3.05014 c -4.61047,0 -5.86661,0.77801 -9.56282,5.92286 l -3.39589,4.72683 -6.8219,1.68347 c -8.02854,1.98124 -10.86031,4.28552 -14.06968,11.44881 -2.81839,6.29064 -4.09028,6.9446 -9.38569,4.8258 -5.85478,-2.34262 -9.46955,-2.06928 -11.79907,0.89223 -2.99577,3.8085 -3.05319,3.3119 -0.95394,-8.25 2.30838,-12.71377 1.36107,-11.38761 8.86777,-12.41422 10.44199,-1.42803 15.2721,-5.92083 16.57358,-15.41617 0.75703,-5.52313 3.92299,-9.41961 7.65362,-9.41961 6.45799,0 9.80655,-5.63955 10.78193,-18.158634 0.99316,-12.7473 3.74976,-17.87525 9.58264,-17.82606 3.49222,0.0294 4.65843,1.77788 5.40411,8.10208 1.21615,10.31426 4.67665,11.4246 12.10062,3.88261 9.72823,-9.8829 15.96375,-3.71919 10.31101,10.19228 -4.36797,10.749634 -2.77059,14.807724 5.82874,14.807724 h 4.67126 l 2.1254,2.1254 2.12539,2.12539 -0.49011,6.62461 c -0.26955,3.64353 -2.17083,13.31079 -4.22506,21.48281 l -3.73495,14.85821 1.20265,4.29544 c 0.69961,2.49876 2.65923,5.69514 4.68498,7.64179 6.73424,6.47127 7.40021,9.73914 4.75785,23.34635 -2.11379,10.88521 -1.35992,14.68879 6.04507,30.5 7.96137,16.99918 8.33223,18.40484 9.49823,36 1.04822,15.81795 2.6329,23.34782 6.53355,31.04538 1.39681,2.75648 3.67215,9.2667 5.0563,14.46715 1.38416,5.20045 3.73256,12.05009 5.21868,15.22142 l 2.70202,5.76605 0.0429,17 0.0428,17 2.84751,8.5 2.84752,8.5 0.66022,17.5 0.66021,17.5 3.80046,9 c 7.64937,18.11474 8.02278,20.21338 10.58671,59.5 1.1561,17.71464 2.5383,23.81648 8.0694,35.62324 4.76094,10.16273 5.88678,14.70765 5.91466,23.87676 0.0127,4.16884 0.88355,9.90929 2.15324,14.19316 2.62297,8.84977 2.19973,10.30684 -2.99386,10.30684 h -3.93101 z"
           id="path88451" /><path
           style="fill:#ffffff;fill-opacity:1;stroke-width:5.09244;stroke-dasharray:none"
           d="m -126.2502,594.28935 1.2,-1.2 1.2,1.2 c 0.66,0.66 2.235,1.2 3.5,1.2 h 2.3 l -10e-4,-4.25 c -0.006,-19.83255 -18.28932,-127.42973 -38.61589,-227.25 -6.04469,-29.68442 -11.96609,-54.47864 -21.73277,-91 -12.30431,-46.01057 -17.67627,-72.43219 -19.7228,-97.00536 l -1.12527,-13.5114 1.67288,-32.24162 c 4.51928,-87.100514 -34.41178,-151.067064 -93.16917,-153.083694 l -4.60138,-0.15793 -2.73535,6.61689 c -5.21499,12.6152203 -7.94629,27.98448 -7.96145,44.79978 -0.009,10.22606 -1.15392,9.84616 -2.11697,-0.70256 -0.38734,-4.24276 -0.40869,-1.41411 -0.0474,6.28589 1.72476,36.76291 0.44099,52.88887 -7.88127,99.000004 -2.68017,14.85 -7.16029,40.275 -9.95583,56.5 -2.79554,16.225 -9.5486,54.25 -15.00679,84.5 -11.3291,62.78731 -17.34043,98.42936 -22.51586,133.5 -6.39638,43.34417 -11.80923,64.65245 -20.53208,80.82678 -4.32923,8.02748 -4.54527,8.63304 -2.70135,7.57191 0.72624,-0.41793 0.90083,-0.33791 0.41667,0.19098 -0.45834,0.50068 -0.97359,0.68533 -1.14502,0.41033 -0.45066,-0.72297 -4.52165,3.12814 -4.52165,4.27743 0,0.5321 0.7875,0.36705 1.75,-0.36679 0.9625,-0.73384 0.48121,0.0558 -1.06954,1.75485 -1.55074,1.69901 -3.57574,3.03182 -4.5,2.96181 -0.92425,-0.07 -1.6001,0.33877 -1.50189,0.90841 0.0982,0.56965 -0.57678,1.08778 -1.5,1.15141 -0.92321,0.0636 -3.70357,0.87989 -6.17857,1.81391 -5.75235,2.17083 -14.04856,1.53517 -20.07239,-1.53796 -2.43519,-1.24234 -4.54011,-2.19226 -4.67761,-2.11093 -0.1375,0.0813 -0.27374,-0.055 -0.30276,-0.30286 -0.12751,-1.08941 -6.32528,-7.04928 -7.33067,-7.04928 -0.61266,0 -1.11661,-0.675 -1.11988,-1.5 -0.009,-2.23968 -2.46745,-6.1361 -3.47776,-5.5117 -0.48441,0.29938 -1.20636,0.0175 -1.60434,-0.6265 -0.45192,-0.73122 -0.29014,-0.90292 0.4309,-0.45729 1.74724,1.07985 1.45312,0.21522 -2.25197,-6.62009 -6.46308,-11.92293 -14.27173,-36.17286 -36.96163,-114.78442 -37.68042,-130.54782 -54.40152,-215.96066 -58.63254,-299.500004 -1.28811,-25.43307 -2.69921,-41.97009 -3.92519,-46 l -10.24237,-23.93498284 -1.6511,-0.32662486 -2.10621,-0.7817331 1.90379,2.03149647 c 4.4215,4.71808883 8.78067,24.19418433 9.91283,31.63468433 0.5337,3.50744 1.25701,13.12716 1.60736,21.37716 4.39023,103.379444 22.18217,190.434154 75.58126,369.813564 21.97852,73.83077 32.95997,90.32588 60.56377,90.97217 l 5.60003,0.13112 -4.37188,1.87669 -4.37189,1.8767 -5.58489,-0.38699 c -32.44916,-2.24845 -56.3979,-54.87641 -88.8651,-195.28325 -7.55428,-32.66907 -8.97594,-39.17781 -13.48952,-61.75858 -7.21174,-36.07924 -12.78407,-68.95217 -17.50057,-103.24142 -4.06815,-29.57575 -4.73938,-34.96145 -7.0441,-56.5198 -3.90702,-36.546104 -11.48325,-51.980204 -25.51582,-51.980204 -15.57717,0 -22.42373,20.45288 -45.35834,135.500004 -12.4236,62.32066 -24.55904,111.01582 -47.59955,191 -23.71263,82.31742 -32.05325,117.29544 -41.61009,174.5 -2.15931,12.925 -4.41566,25.89329 -5.01411,28.81842 l -1.65128,4.85581 -8.60173,-0.24281 c -11.40915,-0.32205 -10.88857,-0.0449 -10.30954,-17.43142 1.1786,-35.39036 14.72184,-95.97231 45.15756,-202 23.3453,-81.3271 33.18182,-121.29947 48.10923,-195.5 16.3941,-81.491174 27.08463,-118.979184 42.1716,-147.881414 8.02682,-15.3770397 21.57074,-23.6487997 34.69147,-21.1873397 l 3.61017,0.67726996 1.94857,3.19574004 c 1.07171,1.75766 1.95025,2.66277 1.9523,2.01137 0.007,-2.24508 -8.21572,-24.8184803 -9.55483,-26.2301103 -0.738,-0.77797 -0.27162,1.24703 1.0364,4.5 1.30802,3.25296 2.69962,7.2126703 3.09245,8.7993603 l 0.71424,2.88487 -4.39226,-0.65211 c -5.64228,-0.83769 -14.86625,1.50655 -21.14226,5.37323996 -4.83096,2.97639004 -5.74215,2.97961004 -3.5,0.0124 0.6875,-0.90983996 -0.68442,0.40473 -3.04871,2.92125004 -19.05107,20.2777497 -33.69338,65.3943197 -53.59054,165.1256237 -14.28256,71.58903 -24.02335,111.07107 -48.59042,196.94985 -33.80038,118.15557 -52.42311,209.34133 -45.11138,220.88691 l 0.87832,1.38691 2.85637,-0.81348 c 1.571,-0.44741 7.02133,-0.87148 12.11184,-0.94239 10.51539,-0.14646 10.53514,-0.1578 13.16073,-7.55722 l -2.56768,5.56127 0.26403,-0.33878 c -0.26115,0.33508 3.91054,-3.27839 6.71709,-12.72747 5.2549,-17.69216 3.72942,-35.2984 12.6995,-78.95575 3.95667,-19.2571 15.16028,-61.66241 29.98703,-113.5 15.5039,-54.205 20.90833,-74.30943 31.32029,-116.51122 7.70302,-31.22186 8.6103,-35.35715 17.6592,-80.48878 21.27662,-106.117774 28.59677,-128.979304 41.30399,-128.996264 11.75647,-0.0157 18.87299,14.27516 22.15809,44.49626 5.27671,48.542714 14.35577,111.199294 20.57609,142.000004 0.55537,2.75 2.78113,13.775 4.94614,24.5 21.79631,107.97449 49.9176,204.08835 67.40047,230.36348 20.0315,30.10549 45.65411,36.11062 68.44323,16.04093 18.22895,-16.0537 26.92742,-41.41069 35.12884,-102.40441 1.1463,-8.525 2.49705,-17.975 3.00167,-21 0.50462,-3.025 1.21019,-7.975 1.56794,-11 1.8144,-15.34186 6.60762,-42.0122 14.82697,-82.5 5.63756,-27.77012 7.42995,-37.89531 12.65717,-71.5 2.89708,-18.6247 4.61968,-30.83772 6.8491,-48.55948 1.75507,-13.95111 3.0991,-15.35956 11.75419,-12.31755 l 5.73007,2.01396 2.58018,-1.89341 c 1.41911,-1.04138 3.94521,-4.49604 5.61357,-7.67703 3.29657,-6.28541 5.57574,-7.94343 12.46662,-9.06907 l 4.5,-0.73508 5.67055,-5.88117 c 6.6264,-6.87252 6.53221,-6.84887 10.47624,-2.63117 7.42945,7.94496 9.99924,14.84882 19.8212,53.25068 4.22008,16.49962 10.83811,42.37432 14.70674,57.49932 19.26765,75.32997 31.64269,133.20083 49.28986,230.5 5.73399,31.61485 13.26762,76.75669 15.52057,93 0.99171,7.15 1.85075,11.2225 1.90897,9.05 0.14207,-5.30076 1.52128,-3.59909 3.52719,4.35184 0.8883,3.52101 2.17359,7.57101 2.85619,9 l 1.2411,2.59816 7.7048,0.54744 c 4.23764,0.30109 8.02095,0.86359 8.40736,1.25 1.00016,1.00016 1.79665,0.87514 3.16923,-0.49744 z"
           id="path88449"
           sodipodi:nodetypes="scssccssscsscscscssssssssssssssssssssssscssscccssssscccsssssssssscsssssscssssscssssssscssscssssssssssssssssssscssscssssssssscsss" /><path
           style="fill:#ffffff;fill-opacity:1;stroke-width:5.09244;stroke-dasharray:none"
           d="m -728.4863,580.45362 c -2.40723,-2.40722 -2.53373,-7.80528 -0.63365,-27.03835 3.68077,-37.25772 15.66567,-88.48942 44.99607,-192.34425 23.34185,-82.65021 30.69219,-112.57275 47.10899,-191.77629 16.48471,-79.531203 25.5981,-112.728627 38.34787,-139.690119 3.68326,-7.788866 8.68391,-16.424714 11.11253,-19.190776 5.62239,-6.4035434 15.4187,-11.02840556 23.39509,-11.04488044 5.80662,-0.0119971 6.20914,0.22443647 8.70245,5.11174644 6.2278,12.207497 8.66443,31.68581 12.1606,97.211319 0.58196,10.90718 0.48322,10.47364 -2.57773,-11.316538 -4.21867,-30.031585 -11.30669,-42.103955 -24.72038,-42.103955 -15.72635,0 -21.40952,16.268565 -44.06833,126.149593 -16.65894,80.78542 -23.88789,110.00092 -50.05965,202.31408 -23.44476,82.69445 -29.72816,108.94071 -40.11291,167.55491 -3.49143,19.70651 -6.67572,36.36019 -7.07619,37.00817 -1.26799,2.05166 -14.34486,1.38525 -16.57476,-0.84466 z"
           id="path90783" /><path
           style="fill:#ffffff;fill-opacity:1;stroke-width:5.09244;stroke-dasharray:none"
           d="m -416.26147,517.25432 c -8.19321,-0.61488 -14.0612,-2.84786 -20.07374,-7.63868 -2.88909,-2.30207 -8.08659,-7.78571 -10.73555,-11.32662 -16.53394,-22.10115 -32.14761,-64.72873 -50.40817,-137.62159 -20.09016,-80.19624 -32.08019,-142.10762 -42.50563,-219.48082 -0.62659,-4.65032 -1.13926,-8.66892 -1.13926,-8.93023 0,-0.30995 0.32511,-0.47511 0.93523,-0.47511 0.88643,0 0.94643,0.0882 1.1498,1.6895 0.83776,6.59656 3.94463,27.68747 5.15534,34.99686 9.83038,59.3489 26.64802,127.81365 56.20402,228.80704 15.37711,52.54387 21.4989,70.74804 29.07241,86.4516 4.73152,9.81077 8.72486,15.7995 13.70979,20.56029 3.32457,3.17508 4.96726,4.32114 8.7632,6.11391 4.79593,2.26503 8.45155,3.01437 17.6781,3.62365 l 3.46109,0.22855 -2.97838,1.25509 c -4.96612,2.09273 -4.62712,2.02132 -8.28825,1.74656 z"
           id="path90785" /><path
           style="fill:#ffffff;fill-opacity:1;stroke-width:5.09244;stroke-dasharray:none"
           d="m -723.84979,581.81221 c -3.20665,-0.625 -4.53585,-1.33729 -5.31798,-2.84975 -2.65372,-5.13176 0.57379,-36.32784 7.15068,-69.11603 6.68513,-33.32776 16.19465,-70.34991 38.90116,-151.44863 23.32467,-83.30652 28.84875,-105.81566 45.9606,-187.27707 16.29612,-77.578152 23.70757,-105.825857 34.67836,-132.171821 4.75437,-11.417431 11.16398,-23.457501 14.94267,-28.068892 3.08038,-3.7592056 8.5774,-7.410806 14.32537,-9.5161564 4.06631,-1.48940064 11.75604,-2.11066781 14.10122,-1.13926351 2.69873,1.11785351 6.65327,10.71607591 8.62658,20.93793991 2.48424,12.868523 5.60876,48.737573 6.60074,75.775536 l 0.23376,6.371517 -1.56803,-10.239938 c -1.94822,-12.72274 -3.44515,-19.940762 -5.28867,-25.50139 -3.21101,-9.685387 -7.35179,-15.501153 -12.82447,-18.012127 -2.47013,-1.133342 -3.37268,-1.298169 -7.15048,-1.305856 -5.39491,-0.01097 -7.56942,0.932754 -11.07494,4.806481 -8.44389,9.330795 -14.90697,32.679745 -32.61758,117.83642 -18.10001,87.029 -23.39638,108.50487 -50.50745,204.79874 -24.30076,86.3122 -28.77305,104.93337 -40.05999,166.7972 -2.74011,15.01858 -5.49878,29.84346 -6.13038,32.94415 -0.63159,3.10075 -1.14835,5.70228 -1.14835,5.78125 0,0.079 -0.768,0.35685 -1.70666,0.61753 -2.0065,0.55724 -7.21774,0.54704 -10.12616,-0.02 z"
           id="path90856" /></g><path
         style="fill:#ffffff;fill-opacity:1;stroke:none;stroke-width:1.02974;stroke-dasharray:none"
         d="M 74.497182,9.5368718 C 68.943883,13.28613 65.053406,18.037505 61.327417,23.556288 c -2.202375,-1.705749 -5.105264,-4.49315 -7.762568,-5.361025 -1.708007,-0.55794 -3.554359,1.237317 -2.988047,2.965516 0.851418,2.597057 6.102538,4.599937 8.201,6.218312 l -9.133841,16.78084 c -2.18321,-1.345048 -5.81426,-3.14761 -8.391693,-3.357407 -1.488056,-0.121069 -2.935322,1.043567 -2.706918,2.623364 0.426752,2.948566 7.419244,4.349836 9.823988,4.982226 l -5.097942,18.69253 c -2.204231,-0.97942 -6.419393,-1.86901 -8.827576,-1.47798 -1.512799,0.24583 -2.480151,1.80125 -1.843135,3.23532 1.475646,3.32071 7.102968,1.05251 9.580612,2.72506 1.08542,0.73244 0.417099,3.03052 0.330988,4.10491 -0.251576,3.1495 -0.365298,6.29982 -0.294627,9.4597 0.02914,1.34291 0.48447,3.03224 0.06895,4.33564 -1.021894,3.20638 -11.4148,-0.77956 -10.301506,4.66868 0.822871,4.02866 8.39292,-0.65168 10.329967,1.53555 0.957613,1.08112 0.839463,3.87103 1.096242,5.259616 0.741152,4.00974 1.286849,8.84496 3.258723,12.46006 -2.253561,0.94244 -8.064386,2.112 -9.176137,4.41037 -0.742419,1.5351 0.530361,3.20515 2.145551,3.24385 2.461929,0.0595 6.178388,-1.80006 8.305045,-2.98111 2.050239,3.59367 3.239376,7.75017 5.098,11.47046 0.771882,1.54511 2.609698,3.89269 2.705896,5.61773 0.142409,2.55963 -5.968337,3.62798 -6.991179,5.79699 -0.701663,1.48762 0.540457,3.32938 2.20574,3.0112 2.517851,-0.48083 5.493216,-3.23101 7.602266,-4.65485 3.313495,5.62758 7.49511,10.89372 12.107688,15.5063 -1.357114,1.59838 -6.468739,8.00117 -3.270485,9.62431 2.75022,1.39569 6.286152,-4.95178 7.306408,-6.86285 3.531418,2.07926 6.913039,3.93837 10.991439,4.72728 1.915792,0.37019 6.058091,-0.15595 7.540746,0.95583 1.900895,1.42598 0.0032,10.61613 4.894032,8.37854 3.737846,-1.71018 -1.30573,-7.22318 0.97351,-9.22118 1.268746,-1.11239 4.083896,-1.3212 5.672516,-1.95736 4.00892,-1.60611 8.75705,-4.19611 11.34873,-7.76873 1.62199,1.61226 4.14358,4.44222 6.39475,5.05064 1.71781,0.46412 3.44585,-1.1785 2.93305,-2.93305 -0.69633,-2.38283 -4.43496,-4.44784 -6.14103,-6.15396 3.97592,-4.68333 6.60228,-12.58256 5.94757,-18.69253 l 0.21218,-0.21218 c 2.39407,0.41541 6.12794,0.75301 8.45836,-0.0369 1.72142,-0.58413 2.21551,-2.87778 0.57924,-3.90144 -2.25819,-1.41276 -7.60703,1.02346 -9.19458,-0.7583 -1.17904,-1.32317 -1.43571,-4.98432 -2.01987,-6.71974 -1.25008,-3.71453 -3.33431,-7.25933 -6.10738,-10.03623 1.88661,-1.88419 7.35532,-4.68862 7.67203,-7.50336 0.18714,-1.664456 -1.41744,-2.688116 -2.89907,-2.149176 -2.56743,0.93395 -5.16699,3.732716 -7.32192,5.404276 -2.62394,-3.44142 -4.34287,-7.975606 -5.23713,-12.180986 -0.2368,-1.11538 -0.9871,-3.07045 -0.4429,-4.15933 1.00835,-2.01642 6.66647,-0.46982 8.56079,-1.59568 1.74162,-1.03503 1.48245,-3.41498 -0.42657,-4.0541 -2.29147,-0.76766 -6.25816,-0.29713 -8.61423,0.11122 l -0.21218,-0.21218 c 1.08334,-6.17998 1.9918,-11.52073 4.88554,-17.20561 1.72032,1.57685 5.10075,4.26973 7.4152,4.73751 1.31062,0.26512 2.85426,-0.96116 2.74333,-2.33551 -0.19576,-2.41981 -5.91552,-5.28506 -7.822,-6.43792 2.72363,-2.76901 5.1564,-6.29916 6.70173,-9.86669 0.66316,-1.53063 1.23645,-5.3955 2.58339,-6.331626 2.24038,-1.557677 9.92362,2.873956 10.44044,-1.718677 0.50446,-4.484697 -7.60469,-1.78233 -9.34225,-3.936688 -1.07008,-1.326785 -0.53463,-5.124512 -0.80016,-6.8468 -0.66062,-4.287787 -2.32447,-8.043899 -4.27272,-11.870764 2.0999,-1.269862 5.52617,-2.929236 6.93319,-4.961623 1.15364,-1.665941 0.0123,-4.046758 -2.15087,-3.753773 -2.34852,0.318061 -5.33484,5.219643 -7.65952,4.307527 -2.06916,-0.81202 -3.62807,-3.770271 -5.43486,-5.122993 -3.35043,-2.5080002 -6.98785,-3.7650582 -10.80532,-5.3382072 0.98985,-1.915997 3.51225,-9.290409 0.73109,-10.421966 -3.654776,-1.486883 -4.800616,7.240826 -4.767006,9.359849 l -0.21218,0.212177 c -6.207642,-1.165733 -13.656089,-0.394836 -19.117376,2.973776 -0.867259,-2.245016 -3.801379,-10.197149 -7.072849,-8.753441 -3.356381,1.481178 1.873686,9.027383 3.24939,10.877594 M 70.096904,19.581146 C 74.386209,14.143949 81.095566,9.6526868 87.983119,8.5789148 101.10843,6.5327378 115.51125,15.185095 119.31049,28.02342 c 1.91349,6.465496 1.92601,13.385348 -0.72727,19.652254 -1.99475,4.71115 -5.52597,8.31242 -8.25977,12.55691 -3.43518,5.33377 -5.71245,11.37968 -6.53707,17.67826 -1.13878,8.70075 0.5444,17.45181 4.55779,25.228326 2.45637,4.75942 6.28242,8.56375 8.86745,13.22377 4.27642,7.70852 4.33416,16.81561 1.0702,24.89882 -1.27581,3.1591 -3.43838,5.83615 -5.58609,8.43333 -2.51288,3.03922 -6.6652,5.35458 -10.32573,6.66753 -2.759696,0.98985 -5.496656,1.55042 -8.421623,1.77429 -19.474219,1.4907 -31.979996,-19.21 -38.653442,-34.66045 C 40.121281,88.345084 46.683821,49.262204 70.096904,19.581146 m 1.306717,51.862518 c -4.260167,5.85253 0.199865,14.5135 7.391402,14.89862 3.376819,0.18099 6.480804,-1.99586 8.377267,-4.65271 3.984048,-5.58145 -0.263478,-13.38026 -6.682394,-14.41898 -3.570077,-0.57756 -7.019455,1.33396 -9.086275,4.17307 m 3.800148,2.95046 c 3.511143,-5.05503 11.236078,-0.17894 7.886304,4.91254 -3.241264,4.92616 -11.258856,-0.0566 -7.886304,-4.91254 m -0.403835,33.582646 c -3.943296,5.2654 -4.087962,12.31355 0.158005,17.50327 5.246605,6.41366 16.177756,7.27587 21.466675,0.29795 2.2034,-2.9065 3.745926,-6.23588 3.49485,-9.97184 -0.84161,-12.52272 -17.390655,-18.149396 -25.119325,-7.82921 m 3.376943,3.80183 c 7.0575,-9.9132 21.872188,0.22736 14.913434,10.24032 -6.466358,9.30506 -21.552038,-0.91552 -14.913434,-10.24032 z"
         id="path82536"
         transform="matrix(0.97109643,0,0,0.97109643,-12.283766,15.149062)" /><g
         id="g91161"
         transform="matrix(3.4539776,0,0,3.4539776,-331.39678,-310.51078)"
         style="fill:#ffffff;fill-opacity:1;stroke-width:0.289515;stroke-dasharray:none"><path
           style="fill:#ffffff;fill-opacity:1;stroke-width:0.289515;stroke-dasharray:none"
           d="m 789.28957,-542.28612 c -0.0292,0.17158 -0.16409,0.33865 -0.34129,0.42273 -0.0943,0.0448 -0.12254,0.0486 -0.41312,0.0567 l -0.31192,0.009 v 5.39261 c 0,3.42921 -0.006,5.42647 -0.0176,5.48562 -0.0329,0.17313 -0.15236,0.27357 -0.32556,0.27357 -0.11019,0 -0.21808,-0.0603 -0.26656,-0.14908 -0.0305,-0.0559 -0.0326,-0.29529 -0.0412,-4.69696 l -0.009,-4.63809 h -1.34712 -1.34713 l -0.009,4.62905 c -0.007,3.43191 -0.0144,4.64074 -0.0298,4.67426 -0.0234,0.0509 -0.10389,0.12997 -0.16337,0.16053 -0.0217,0.0111 -0.0828,0.0202 -0.13562,0.0202 -0.11326,-7e-5 -0.18579,-0.0381 -0.26129,-0.13712 l -0.0518,-0.0679 -0.005,-5.47334 -0.005,-5.47334 -0.31385,-0.009 c -0.30237,-0.008 -0.31808,-0.0106 -0.42937,-0.0629 -0.18864,-0.0887 -0.296,-0.22974 -0.34153,-0.44881 -0.0127,-0.0609 -0.0172,-0.92851 -0.0139,-2.64905 l 0.005,-2.55854 0.0418,-0.10352 c 0.0252,-0.0624 0.0794,-0.14325 0.13629,-0.20343 l 0.0945,-0.0999 -0.077,-0.0756 c -0.0906,-0.0889 -0.16113,-0.22433 -0.18648,-0.35799 -0.0198,-0.1046 -0.0267,-6.08712 -0.007,-6.13835 0.025,-0.0651 0.0734,-0.0676 0.20772,-0.0105 0.25845,0.10999 0.44579,0.13052 0.75913,0.0832 0.28096,-0.0424 0.42239,-0.11119 0.60717,-0.29527 0.15627,-0.15567 0.18615,-0.16162 0.28718,-0.0572 0.17005,0.17574 0.52577,0.39038 0.7586,0.45775 0.17447,0.0505 0.18697,0.0582 0.19872,0.12304 0.006,0.0328 0.008,1.36966 0.005,2.97084 l -0.005,2.91124 -0.0565,0.11753 c -0.0311,0.0646 -0.0913,0.15207 -0.13382,0.19428 l -0.0773,0.0768 0.0935,0.0988 c 0.0514,0.0543 0.11161,0.13779 0.13381,0.18544 l 0.0403,0.0866 v 2.64905 2.64904 l -0.049,0.0997 c -0.0637,0.12946 -0.17555,0.24101 -0.30193,0.30097 -0.0942,0.0447 -0.12253,0.0486 -0.41304,0.0567 l -0.31192,0.009 v 0.71178 0.71178 h 1.35617 1.35617 v -0.71197 -0.71197 l -0.31192,-0.008 c -0.29448,-0.008 -0.31822,-0.0108 -0.42465,-0.0589 -0.14117,-0.0637 -0.25614,-0.18358 -0.31407,-0.3274 l -0.0434,-0.10758 v -2.61288 -2.61288 l 0.0418,-0.10352 c 0.0252,-0.0624 0.0794,-0.14325 0.13629,-0.20344 l 0.0945,-0.0999 -0.077,-0.0755 c -0.0968,-0.0951 -0.16103,-0.22538 -0.1854,-0.37649 -0.0297,-0.1843 -0.0258,-5.78117 0.004,-5.84056 0.0174,-0.0347 0.0606,-0.0581 0.18507,-0.10053 0.31089,-0.10597 0.50829,-0.22124 0.70932,-0.4142 0.15904,-0.15266 0.18524,-0.15347 0.32212,-0.01 0.18188,0.19068 0.35525,0.27815 0.6317,0.31872 0.31907,0.0468 0.52316,0.0239 0.77028,-0.0866 0.12159,-0.0544 0.12644,-0.0551 0.16154,-0.0233 0.036,0.0326 0.0362,0.0521 0.0313,3.14433 l -0.005,3.1116 -0.0543,0.098 c -0.0298,0.0539 -0.09,0.1338 -0.13377,0.17755 l -0.0795,0.0795 0.0841,0.0829 c 0.0462,0.0456 0.10643,0.12843 0.13377,0.1841 l 0.0497,0.10122 0.003,2.5948 c 0.002,1.42714 -0.004,2.63368 -0.0122,2.68119 z m -0.21273,-5.32334 c -0.0303,-0.0581 -0.0797,-0.11718 -0.1235,-0.14799 l -0.073,-0.0513 -0.96595,3.7e-4 c -0.53127,2.3e-4 -0.97872,0.001 -0.99434,0.002 -0.0453,0.002 -0.17717,0.12456 -0.22086,0.20626 l -0.04,0.0749 v 2.61289 2.61288 l 0.0407,0.0761 c 0.0526,0.0985 0.12096,0.16283 0.2185,0.20581 0.0737,0.0325 0.13195,0.0345 0.9725,0.0345 0.9671,0 0.95229,0.002 1.08453,-0.0995 0.0318,-0.0243 0.0791,-0.0866 0.10495,-0.13861 l 0.0471,-0.0945 v -2.59823 -2.59823 z m -0.0987,-6.67426 c -0.12106,0.0363 -0.18839,0.0448 -0.35713,0.0449 -0.44496,3e-4 -0.72811,-0.0948 -0.98371,-0.33043 l -0.0798,-0.0735 -0.15426,0.12377 c -0.16843,0.13513 -0.43931,0.2846 -0.63155,0.34847 l -0.12243,0.0407 0.005,2.89511 0.005,2.89511 0.0392,0.0731 c 0.0515,0.0962 0.18117,0.21416 0.26975,0.24543 0.0565,0.0199 0.2463,0.025 0.93876,0.025 h 0.86795 l 0.085,-0.0434 c 0.10234,-0.0523 0.18182,-0.13107 0.23026,-0.2282 0.0353,-0.0708 0.0359,-0.11721 0.0366,-3.06632 l 5e-4,-2.99442 -0.14918,0.0448 z m -3.26463,6.67426 c -0.0304,-0.0583 -0.0797,-0.11718 -0.12396,-0.14831 l -0.0734,-0.0516 h -0.98632 c -0.66498,0 -0.99808,0.006 -1.02242,0.0193 -0.08,0.0428 -0.18214,0.18402 -0.20186,0.27912 -0.0134,0.0646 -0.0179,0.8833 -0.0146,2.65214 0.005,2.47089 0.006,2.56101 0.0391,2.62772 0.0453,0.0912 0.12876,0.17278 0.21844,0.21352 0.0673,0.0305 0.14021,0.0331 0.9729,0.0335 0.97745,4.6e-4 0.95762,0.003 1.09436,-0.10201 0.0339,-0.0259 0.0811,-0.0887 0.10477,-0.13958 l 0.0431,-0.0925 1.5e-4,-2.59725 1.5e-4,-2.59726 -0.0505,-0.0967 z m -0.058,-6.56056 c -0.23089,-0.0718 -0.50287,-0.22872 -0.72711,-0.41941 l -0.0671,-0.0571 -0.10699,0.099 c -0.22618,0.2094 -0.53826,0.31066 -0.95222,0.30894 -0.20523,-10e-4 -0.30774,-0.0196 -0.49061,-0.0898 -0.0216,-0.008 -0.0246,0.42786 -0.0205,2.98947 l 0.005,2.99917 0.04,0.0748 c 0.0509,0.0952 0.13365,0.17791 0.22882,0.22882 0.0742,0.0397 0.0811,0.04 0.96079,0.04 h 0.88603 l 0.0968,-0.0536 c 0.0533,-0.0295 0.12029,-0.0821 0.14895,-0.11686 0.11056,-0.13412 0.1043,0.0576 0.10089,-3.09086 l -0.003,-2.88163 z"
           id="path85086"
           transform="translate(-615.94469,703.15525)" /><g
           id="g85114"
           transform="rotate(-120.40743,-347.07778,-233.30381)"
           style="fill:#ffffff;fill-opacity:1;stroke-width:0.289515;stroke-dasharray:none"><g
             id="g85128"
             transform="matrix(0.79822143,0,0,0.79822143,-199.65573,7.9180438)"
             style="fill:#ffffff;fill-opacity:1;stroke-width:0.362701;stroke-dasharray:none"><path
               style="fill:#ffffff;fill-opacity:1;stroke-width:0.362701;stroke-dasharray:none"
               d="m -972.67452,35.908375 c -3.05285,-0.203269 -6.58575,-1.089807 -9.37723,-2.353071 -3.70804,-1.678042 -6.83831,-4.000214 -9.34711,-6.933993 -1.7967,-2.100993 -2.9475,-3.943336 -4.1215,-6.598298 -0.749,-1.693624 -1.3992,-4.081072 -1.7206,-6.317516 -0.2106,-1.465015 -0.2744,-3.8017978 -0.1481,-5.4190298 0.062,-0.791207 0.089,-1.014088 0.263,-2.133916 0.1718,-1.106878 0.5602,-2.725648 0.8961,-3.734354 0.2588,-0.776871 0.5785,-1.64361051 0.7221,-1.95768301 0.081,-0.1759767 0.1464,-0.3332276 0.1464,-0.3494464 0,-0.085215 0.9264,-1.97573689 1.2179,-2.48538439 0.3227,-0.5641074 0.664,-1.1248907 0.9623,-1.5811656 0.3082,-0.471351 1.23829,-1.7986936 1.29847,-1.8531396 0.0173,-0.015443 0.19432,-0.2302358 0.39384,-0.4773206 1.38774,-1.7188597 3.13622,-3.4101224 4.91586,-4.7550276 5.14461,-3.88781 11.43963,-5.848879 17.64875,-5.498061 1.18622,0.06704 1.39961,0.08952 2.65158,0.279564 2.24033,0.340076 4.54588,1.033512 6.79112,2.042551 1.0153,0.456289 2.0164,0.998083 3.44417,1.863978 0.95533,0.579377 2.51732,1.779469 3.80353,2.9222752 0.93351,0.8294333 2.42245,2.4465962 3.33385,3.6209607 2.26151,2.9140067 3.9904,6.40730099 4.83642,9.7721813 0.30614,1.217584 0.3552,1.443679 0.49966,2.302385 0.41423,2.462538 0.44868,5.6931928 0.0844,7.9179538 -0.34953,2.134767 -0.94967,4.238835 -1.66578,5.840195 -0.54389,1.216227 -1.06765,2.242482 -1.44764,2.8365 -0.10654,0.166558 -0.19371,0.313206 -0.19371,0.325887 0,0.0401 -0.93773,1.424662 -1.19016,1.757273 -0.133,0.175257 -0.2912,0.384579 -0.35156,0.46516 -0.80579,1.075784 -2.60481,2.945759 -3.7935,3.943122 -2.01063,1.687004 -4.06743,2.969188 -6.65403,4.148033 -2.31257,1.053963 -5.14466,1.848396 -7.91222,2.219477 -1.81088,0.242805 -4.10081,0.315451 -5.98633,0.18991 z m 4.91363,-0.82917 c 3.05281,-0.379952 5.24486,-0.908831 7.5187,-1.814047 0.31225,-0.1243 0.68431,-0.272431 0.82678,-0.329176 1.32675,-0.528352 3.52864,-1.756409 4.96343,-2.768246 2.07158,-1.460909 4.02838,-3.318779 5.50464,-5.226337 0.58115,-0.750929 1.48325,-2.081111 1.79316,-2.644075 0.085,-0.154433 0.1743,-0.306047 0.1984,-0.336933 0.0587,-0.07526 0.73097,-1.416657 0.95686,-1.909296 0.92741,-2.0226 1.57772,-4.42029 1.88859,-6.963313 0.12021,-0.983346 0.13824,-3.9979688 0.0296,-4.9417028 -0.32589,-2.829707 -0.89564,-5.066801 -1.89777,-7.45150651 -1.91745,-4.56281789 -5.18177,-8.63989409 -9.2596,-11.56508469 -5.51794,-3.958233 -12.12458,-5.615264 -18.64374,-4.676094 -1.68386,0.24259 -2.87486,0.523581 -4.49107,1.059614 -3.69696,1.226095 -6.98325,3.178764 -9.91095,5.888865 -2.02556,1.8750649 -3.88955,4.2640986 -5.2775,6.7641782 -1.0303,1.85570899 -2.036,4.463005 -2.4742,6.414136 -0.3303,1.470563 -0.4786,2.441278 -0.5907,3.868454 -0.1644,2.0912638 -0.056,4.1302828 0.3365,6.3186928 0.627,3.497886 2.2207,7.141104 4.3748,10.000838 1.07805,1.431186 2.73892,3.182449 4.0437,4.263634 4.2381,3.51196 9.38325,5.59787 15.02835,6.092739 0.73088,0.06406 4.47112,0.03068 5.08208,-0.04536 z"
               id="path85118" /><path
               style="fill:#ffffff;fill-opacity:1;stroke-width:0.362701;stroke-dasharray:none"
               d="m -974.27494,28.579611 c -1.07632,-0.08587 -2.63442,-0.40221 -3.67819,-0.746795 -4.76476,-1.572973 -8.60618,-5.520846 -10.24925,-10.533352 -0.61171,-1.865945 -0.86843,-3.48076 -0.86607,-5.447106 0,-2.5071988 0.50028,-4.5690988 1.66586,-6.9071558 0.77431,-1.553188 1.74661,-2.886569 3.07348,-4.21501311 1.01364,-1.0148075 1.54107,-1.4540671 2.55734,-2.12963579 2.08297,-1.3846557 4.43588,-2.2731265 6.79489,-2.5657446 0.78483,-0.097355 3.16725,-0.096787 3.93088,6.925e-4 3.9041,0.499599 7.36136,2.2328979 10.05373,5.0404432 2.07333,2.1620178 3.48135,5.1341208 3.98138,8.4040838 0.4366,2.8551138 0.19718,5.5942248 -0.73137,8.3671228 -0.15263,0.455783 -0.34287,0.973824 -0.42277,1.151193 -0.91796,2.037877 -1.81305,3.375593 -3.16603,4.731648 -2.37403,2.379421 -5.1043,3.846951 -8.5157,4.577215 -0.77082,0.165007 -1.80318,0.263664 -2.91197,0.278276 -0.67951,0.0089 -1.36178,0.0062 -1.51621,-0.0062 z m 2.33047,-0.584087 c 3.94742,-0.274633 7.57126,-1.960003 10.3333,-4.80581 1.34733,-1.388188 2.30361,-2.883882 3.05083,-4.771703 0.55254,-1.395986 0.94118,-3.011964 1.10778,-4.606288 0.0999,-0.955998 0.0393,-3.227719 -0.11211,-4.2003588 -0.56852,-3.652636 -2.24321,-6.827779 -4.76339,-9.03116141 -2.48922,-2.17630489 -5.16246,-3.41979699 -8.43716,-3.92465919 -1.17973,-0.181877 -3.31831,-0.182805 -4.49248,-0.00208 -1.5919,0.2452151 -2.83678,0.6444192 -4.40818,1.4136862 -3.16711,1.55032769 -5.70014,4.0690574 -7.26676,7.2256124 -1.08165,2.179352 -1.57861,4.254985 -1.57722,6.5871978 0,3.537775 1.16496,7.067288 3.275,9.939909 1.30263,1.773452 3.07272,3.334035 4.95125,4.365346 1.70936,0.938443 3.73152,1.576158 5.55943,1.75325 1.26129,0.122209 1.70949,0.131385 2.77971,0.05692 z"
               id="path85116" /></g></g></g><path
         style="fill:url(#linearGradient98761);fill-opacity:1;stroke:#f6f6f6;stroke-width:4.59141845;stroke-dasharray:none;stroke-dashoffset:0;stroke-opacity:1;marker-end:url(#EmptyTriangleIn)"
         d="M 364.26846,181.1328 C 361.94792,69.00335 329.23864,-7.1098262 192.90205,39.594556"
         id="path93011"
         sodipodi:nodetypes="cc"
         transform="matrix(0.97109643,0,0,0.97109643,-12.283766,15.149062)" /><path
         style="fill:url(#linearGradient100700);fill-opacity:1;stroke:#f6f6f6;stroke-width:4.59141816;stroke-dasharray:none;stroke-dashoffset:0;stroke-opacity:1;marker-end:url(#EmptyTriangleIn-2)"
         d="m 46.001948,195.2833 c 2.32054,112.12947 35.02982,188.24264 171.366402,141.53826"
         id="path93011-5"
         sodipodi:nodetypes="cc"
         transform="matrix(0.97109643,0,0,0.97109643,-12.283766,15.149062)" /><path
         d="M 0,0"
         id="path88530"
         class="UnoptimicedTransforms"
         style="fill:#d0c589;fill-opacity:1;stroke-width:0.99998;stroke-dasharray:none"
         inkscape:original-d="M 0,0"
         inkscape:path-effect="#path-effect88528" /></g><g
       id="g87703"
       transform="matrix(0.86666023,0,0,0.86666023,16.335064,24.539913)"><g
         id="g85084"
         transform="translate(-615.94469,703.15525)" /><g
         id="g91333"
         transform="matrix(1.1205042,0,0,1.1205042,-33.021972,-10.835678)" /></g><path
       d=""
       id="path88534"
       class="UnoptimicedTransforms"
       inkscape:original-d=""
       inkscape:path-effect="#path-effect88532" /></g></svg>
