<?xml version="1.0" encoding="utf-8"?>
<!-- Generator: Adobe Illustrator 26.2.1, SVG Export Plug-In . SVG Version: 6.00 Build 0)  -->
<svg version="1.1" id="Layer_1" xmlns="http://www.w3.org/2000/svg" xmlns:xlink="http://www.w3.org/1999/xlink" x="0px" y="0px"
	 viewBox="0 0 400 400" style="enable-background:new 0 0 400 400;" xml:space="preserve">
<style type="text/css">
	.st0{fill:#A6A7AA;}
	.st1{fill:#AA182C;}
	.st2{fill:#3D51A0;}
	.st3{fill:#3D50A3;}
</style>
<g>
	<path class="st0" d="M25.1,193.2h7.3c0.6-2,2.3-3.4,4.5-3.4c2.6,0,4.8,2.2,4.8,4.8c0,2.6-2.2,4.8-4.8,4.8c-2.2,0-4-1.5-4.5-3.4
		h-9.2L10,215.5l4.1,2.5h18.3c0.6-2,2.3-3.4,4.5-3.4c2.6,0,4.8,2.2,4.8,4.8c0,2.6-2.2,4.8-4.8,4.8c-2.2,0-4-1.5-4.5-3.4H18.7
		l27.2,16.7v-74.6L25.1,193.2"/>
	<polyline class="st1" points="92.6,168.1 106,168.1 112.2,191.5 112.3,191.5 118.3,168.1 131.8,168.1 131.8,203.2 123.2,203.2 
		123.2,176.5 123,176.5 115.7,203.2 108.7,203.2 101.4,176.5 101.2,176.5 101.2,203.2 92.6,203.2 92.6,168.1 	"/>
	<path class="st1" d="M145,174.5h-8.3v-6.4h8.3V174.5z M136.6,177.7h8.3v25.6h-8.3V177.7z"/>
	<path class="st1" d="M166,187.1c0-2.2-1.9-3.7-4.1-3.7c-4.7,0-5.4,4-5.4,7.5c0,3.4,1.5,6.7,5,6.7c2.9,0,4.4-1.6,4.8-4.4h8
		c-0.7,6.9-6,10.8-12.9,10.8c-7.6,0-13.3-5.3-13.3-13c0-8,5.1-13.9,13.3-13.9c6.3,0,12,3.4,12.6,10.1h-8"/>
	<path class="st1" d="M177.4,177.7h8v4.5h0.1c1.2-3.2,4.1-5,7.6-5c0.6,0,1.3,0,1.9,0.1v7.6c-1-0.3-2-0.4-3.2-0.4
		c-4.1,0-6.3,2.9-6.3,6v12.6h-8.3v-25.5"/>
	<path class="st1" d="M207.9,177c7.9,0,13.5,5.9,13.5,13.5s-5.6,13.5-13.5,13.5s-13.5-5.9-13.5-13.5C194.6,182.8,200,177,207.9,177
		 M207.9,197.6c4,0,5.1-3.8,5.1-7c0-3.2-1.2-7.2-5.1-7.2s-5.1,4-5.1,7.2C202.9,193.8,204.1,197.6,207.9,197.6z"/>
	<path class="st1" d="M224.3,168.1h8.3v12.4h0.1c1.8-2.3,4.1-3.5,7.3-3.5c7.2,0,10.8,6.3,10.8,12.9c0,7.2-3.4,14-11.4,14
		c-2.9,0-5.4-1.3-7-3.7h-0.1v2.9h-7.9v-35.1 M232.5,190.2c0,4.5,1.3,7.3,5.1,7.3s5-4,5-7.3c0-3.2-1.3-6.9-5-6.9
		C235.2,183.4,232.5,184.9,232.5,190.2z"/>
	<path class="st1" d="M262.5,174.5h-8.3v-6.4h8.3V174.5z M254.1,177.7h8.3v25.6h-8.3V177.7z"/>
	<path class="st1" d="M279.1,177c7.9,0,13.5,5.9,13.5,13.5s-5.6,13.5-13.5,13.5c-7.9,0-13.5-5.9-13.5-13.5
		C265.7,182.8,271.2,177,279.1,177 M279.1,197.6c4,0,5.1-3.8,5.1-7c0-3.2-1.2-7.2-5.1-7.2s-5.1,4-5.1,7.2
		C274,193.8,275.2,197.6,279.1,197.6z"/>
	<rect x="295.8" y="168.1" class="st1" width="8.3" height="35.1"/>
	<path class="st1" d="M320.8,177c7.9,0,13.5,5.9,13.5,13.5s-5.6,13.5-13.5,13.5c-7.9,0-13.5-5.9-13.5-13.5S312.9,177,320.8,177
		 M320.8,197.6c4,0,5.1-3.8,5.1-7c0-3.2-1.2-7.2-5.1-7.2c-4,0-5.1,4-5.1,7.2C315.7,193.8,316.9,197.6,320.8,197.6z"/>
	<path class="st1" d="M362,200.1c0,4.2-0.7,12-12.7,12c-6,0-11.6-1.3-12.6-8.2h8.3c0.1,1.2,0.6,1.8,1.5,2.2c0.7,0.4,1.8,0.6,3.1,0.6
		c4,0,4.4-2.8,4.4-6v-2.3h-0.1c-1.5,2.3-4.1,3.8-6.7,3.8c-7.8,0-11.3-5.6-11.3-12.7c0-6.7,4-12.4,11.3-12.4c3.1,0,5.4,1.3,6.9,4h0.1
		v-3.2h8v22.4 M348.9,183.4c-3.7,0-4.8,3.2-4.8,6.4c0,3.1,1.3,6,4.8,6c3.5,0,5.1-2.8,5.1-6C354.1,186.5,352.7,183.4,348.9,183.4z"/>
	<path class="st1" d="M379.7,205.5c-2,5.6-5,6.3-10.7,6.3h-4v-6.7h2.9c1.9,0,3.4-1,3.4-2.9c0-1.3-1.6-5.3-2-6.7l-6.6-17.7h8.9
		l4.8,16.7h0.1l4.8-16.7h8.6L379.7,205.5"/>
	<path class="st2" d="M93.2,213.6h6.3c2.5,0,4.5,1.2,4.5,4.5c0,2.3-1,4.1-2.9,4.4l0,0c1.8,0.1,2.6,1.2,2.8,3.7c0,1.2,0,2.5,0.1,3.7
		c0,0.9,0.4,1.3,0.9,1.6h-3.2c-0.3-0.3-0.4-0.9-0.4-1.6c-0.1-1-0.1-2-0.1-3.4c0-1.9-0.6-2.8-2.6-2.8h-2.3v7.8h-2.9V213.6
		 M98.3,221.5c1.8,0,2.8-1,2.8-2.9c0-1.9-0.9-2.9-2.6-2.9h-2.3v5.7h2.2V221.5z"/>
	<path class="st2" d="M108.7,225v0.7c0,1.8,0.3,4.1,2.2,4.1s2.2-2.2,2.2-2.9h2.5c0,2.9-1.8,4.8-4.7,4.8c-2.2,0-4.8-0.6-4.8-6.9
		c0-3.5,0.7-7.2,5-7.2c3.7,0,4.7,2.2,4.7,6v1.5h-7 M112.9,223.2v-0.7c0-1.8-0.6-2.9-2-2.9c-1.8,0-2.2,1.8-2.2,3.4v0.3H112.9z"/>
	<path class="st2" d="M123.6,221.9v-0.3c0-1-0.4-2-1.8-2c-1,0-1.9,0.4-1.9,1.8c0,1,0.4,1.5,1.9,1.9l1.8,0.6c2,0.7,2.9,1.8,2.9,3.8
		c0,2.9-2,4.1-4.8,4.1c-3.4,0-4.4-1.6-4.4-4.1v-0.4h2.3v0.4c0,1.6,0.6,2.3,2,2.3s2.2-0.7,2.2-1.9c0-1-0.6-1.6-1.5-1.9l-2.2-0.7
		c-2-0.7-2.8-1.8-2.8-3.8c0-2.5,1.8-3.7,4.5-3.7c3.4,0,4.1,2,4.1,3.7v0.6h-2.5"/>
	<path class="st2" d="M132.8,217.7c4,0,5,2.9,5,7c0,4.1-1.3,7-5,7s-5-2.9-5-7C127.8,220.4,129,217.7,132.8,217.7 M132.8,229.7
		c1.9,0,2.3-1.6,2.3-5c0-2.9-0.3-5-2.3-5c-1.9,0-2.3,2-2.3,5C130.6,228,130.9,229.7,132.8,229.7z"/>
	<path class="st2" d="M146.7,229.8L146.7,229.8c-0.7,1.2-2,1.9-3.5,1.9c-2,0-3.4-0.9-3.4-4.4V218h2.6v9.5c0,1.5,0.7,2,1.8,2
		c1.2,0,2.2-0.7,2.2-2.2V218h2.6v13.3h-2.5v-1.5"/>
	<path class="st2" d="M151.8,218h2.6v2l0,0c0.6-1.5,1.6-2.5,3.1-2.5c0.3,0,0.4,0,0.6,0.1v2.8c-0.1,0-0.7-0.1-1.2-0.1
		c-1.2,0-2.6,0.6-2.6,3.1v8h-2.6V218"/>
	<path class="st2" d="M168.5,226.4c-0.1,3.2-1.3,5.3-4.5,5.3c-3.8,0-5-2.9-5-7c0-4.1,1-7,5-7c4,0,4.5,3.1,4.5,4.8h-2.6
		c0-1.2-0.3-2.8-1.9-2.8c-1.9,0-2.3,2-2.3,5s0.3,5,2.3,5c1.5,0,2-1.2,2-3.2H168.5"/>
	<path class="st2" d="M172.9,225v0.7c0,1.8,0.3,4.1,2.2,4.1s2.2-2.2,2.2-2.9h2.5c0,2.9-1.8,4.8-4.7,4.8c-2.2,0-4.8-0.6-4.8-6.9
		c0-3.5,0.7-7.2,5-7.2c3.7,0,4.7,2.2,4.7,6v1.5h-7 M177.2,223.2v-0.7c0-1.8-0.6-2.9-2-2.9c-1.8,0-2.2,1.8-2.2,3.4v0.3H177.2z"/>
	<path class="st2" d="M190.6,213.6h3.7l4.7,17.7H196l-1-4.4h-5.1l-1.2,4.4h-2.9L190.6,213.6 M194.4,224.7l-2-8.8l0,0l-2,8.8H194.4z"
		/>
	<path class="st2" d="M200,218h2.5v1.6h0.1c0.7-1.2,1.9-1.9,3.4-1.9c2,0,3.4,0.9,3.4,3.7v10.1h-2.6v-9.2c0-1.8-0.6-2.3-1.9-2.3
		c-1,0-2.2,0.9-2.2,2.6v8.9H200V218"/>
	<path class="st2" d="M211.8,218h2.5v1.6l0,0c0.7-1.2,1.9-1.9,3.4-1.9c2,0,3.4,0.9,3.4,3.7v10.1h-2.6v-9.2c0-1.8-0.6-2.3-1.9-2.3
		c-1,0-2.2,0.9-2.2,2.6v8.9h-2.6V218"/>
	<path class="st2" d="M228.2,217.7c4,0,5,2.9,5,7c0,4.1-1.3,7-5,7s-5-2.9-5-7C223.2,220.4,224.4,217.7,228.2,217.7 M228.2,229.7
		c1.9,0,2.3-1.6,2.3-5c0-2.9-0.3-5-2.3-5c-1.9,0-2.3,2-2.3,5C226,228,226.3,229.7,228.2,229.7z"/>
	<path class="st2" d="M242.1,229.8L242.1,229.8c-0.7,1.2-2,1.9-3.5,1.9c-2,0-3.4-0.9-3.4-4.4V218h2.6v9.5c0,1.5,0.7,2,1.8,2
		c1.2,0,2.2-0.7,2.2-2.2V218h2.6v13.3H242v-1.5"/>
	<path class="st2" d="M247.2,218h2.5v1.6l0,0c0.7-1.2,1.9-1.9,3.4-1.9c2,0,3.4,0.9,3.4,3.7v10.1h-2.6v-9.2c0-1.8-0.6-2.3-1.9-2.3
		c-1,0-2.2,0.9-2.2,2.6v8.9h-2.6V218"/>
	<path class="st2" d="M268.2,226.4c-0.1,3.2-1.3,5.3-4.5,5.3c-3.8,0-5-2.9-5-7c0-4.1,1-7,5-7s4.5,3.1,4.5,4.8h-2.6
		c0-1.2-0.3-2.8-1.9-2.8c-1.9,0-2.3,2-2.3,5s0.3,5,2.3,5c1.5,0,2-1.2,2-3.2H268.2"/>
	<path class="st2" d="M272.6,225v0.7c0,1.8,0.3,4.1,2.2,4.1c1.9,0,2.2-2.2,2.2-2.9h2.5c0,2.9-1.8,4.8-4.7,4.8
		c-2.2,0-4.8-0.6-4.8-6.9c0-3.5,0.7-7.2,5-7.2c3.7,0,4.7,2.2,4.7,6v1.5h-7 M276.8,223.2v-0.7c0-1.8-0.6-2.9-2-2.9
		c-1.8,0-2.2,1.8-2.2,3.4v0.3H276.8z"/>
	<path class="st2" d="M281.8,218h2.5v1.6h0.1c0.7-1.2,1.9-1.9,3.2-1.9c1.9,0,2.6,0.9,3.1,2c0.7-1.3,1.8-2,3.4-2c1.9,0,3.2,1,3.2,3.5
		v10.1h-2.6V222c0-1.8-0.6-2.3-1.6-2.3c-1,0-2.2,0.9-2.2,2.6v8.9h-2.6V222c0-1.8-0.6-2.3-1.6-2.3c-1,0-2,0.9-2,2.6v8.9h-2.6V218"/>
	<path class="st2" d="M302.4,225v0.7c0,1.8,0.3,4.1,2.2,4.1c1.9,0,2.2-2.2,2.2-2.9h2.5c0,2.9-1.8,4.8-4.7,4.8
		c-2.2,0-4.8-0.6-4.8-6.9c0-3.5,0.7-7.2,5-7.2c3.7,0,4.7,2.2,4.7,6v1.5h-7 M306.6,223.2v-0.7c0-1.8-0.6-2.9-2-2.9
		c-1.8,0-2.2,1.8-2.2,3.4v0.3H306.6z"/>
	<path class="st2" d="M311.6,218h2.5v1.6h0.1c0.7-1.2,1.9-1.9,3.4-1.9c2,0,3.4,0.9,3.4,3.7v10.1h-2.6v-9.2c0-1.8-0.6-2.3-1.9-2.3
		c-1,0-2.2,0.9-2.2,2.6v8.9h-2.6L311.6,218"/>
	<path class="st2" d="M322.3,218h1.9v-3.8h2.6v3.8h2.2v2h-2.2v7.9c0,1,0.3,1.5,1.2,1.5c0.4,0,0.7,0,1-0.1v2
		c-0.6,0.1-1.3,0.3-2.2,0.3c-1.8,0-2.6-0.4-2.6-3.2V220h-1.9V218"/>
	<path class="st2" d="M336.2,221.9v-0.3c0-1-0.4-2-1.8-2c-1,0-1.9,0.4-1.9,1.8c0,1,0.4,1.5,1.9,1.9l1.8,0.6c2,0.7,2.9,1.8,2.9,3.8
		c0,2.9-2,4.1-4.8,4.1c-3.4,0-4.4-1.6-4.4-4.1v-0.4h2.3v0.4c0,1.6,0.6,2.3,2,2.3s2.2-0.7,2.2-1.9c0-1-0.6-1.6-1.5-1.9l-2.2-0.7
		c-2-0.7-2.9-1.8-2.9-3.8c0-2.5,1.8-3.7,4.5-3.7c3.4,0,4.2,2,4.2,3.7v0.6h-2.5"/>
	<path class="st3" d="M81.6,215.5l-35.7-52.8V206H33.2c-0.6-2-2.3-3.4-4.5-3.4c-2.6,0-4.8,2.2-4.8,4.8c0,2.6,2.2,4.8,4.8,4.8
		c2.2,0,4-1.5,4.5-3.4h12.7v28.5L81.6,215.5"/>
</g>
</svg>
