<?xml version="1.0" encoding="utf-8"?>
<!-- Generator: Adobe Illustrator 26.2.1, SVG Export Plug-In . SVG Version: 6.00 Build 0)  -->
<svg version="1.1" id="Layer_1" xmlns="http://www.w3.org/2000/svg" xmlns:xlink="http://www.w3.org/1999/xlink" x="0px" y="0px"
	 viewBox="0 0 400 400" style="enable-background:new 0 0 400 400;" xml:space="preserve">
<style type="text/css">
	.st0{fill:#A6A7AA;}
	.st1{fill:#AA182C;}
	.st2{fill:#3D51A0;}
	.st3{fill:#3D50A3;}
</style>
<g>
	<path class="st0" d="M80.5,195.4h5c0.4-1.4,1.6-2.3,3.1-2.3c1.8,0,3.3,1.5,3.3,3.3c0,1.8-1.5,3.3-3.3,3.3c-1.5,0-2.7-1-3.1-2.3
		h-6.3l-9,13.2l2.8,1.7h12.5c0.4-1.4,1.6-2.3,3.1-2.3c1.8,0,3.3,1.5,3.3,3.3c0,1.8-1.5,3.3-3.3,3.3c-1.5,0-2.7-1-3.1-2.3h-9.4
		l18.6,11.4v-51L80.5,195.4"/>
	<polyline class="st1" points="126.6,178.2 135.8,178.2 140,194.2 140.1,194.2 144.2,178.2 153.4,178.2 153.4,202.2 147.5,202.2 
		147.5,184 147.4,184 142.4,202.2 137.6,202.2 132.6,184 132.5,184 132.5,202.2 126.6,202.2 126.6,178.2 	"/>
	<path class="st1" d="M162.4,182.6h-5.7v-4.4h5.7V182.6z M156.7,184.8h5.7v17.5h-5.7V184.8z"/>
	<path class="st1" d="M176.8,191.2c0-1.5-1.3-2.5-2.8-2.5c-3.2,0-3.7,2.7-3.7,5.1c0,2.3,1,4.6,3.4,4.6c2,0,3-1.1,3.3-3h5.5
		c-0.5,4.7-4.1,7.4-8.8,7.4c-5.2,0-9.1-3.6-9.1-8.9c0-5.5,3.5-9.5,9.1-9.5c4.3,0,8.2,2.3,8.6,6.9H176.8"/>
	<path class="st1" d="M184.6,184.8h5.5v3.1h0.1c0.8-2.2,2.8-3.4,5.2-3.4c0.4,0,0.9,0,1.3,0.1v5.2c-0.7-0.2-1.4-0.3-2.2-0.3
		c-2.8,0-4.3,2-4.3,4.1v8.6h-5.7V184.8"/>
	<path class="st1" d="M205.4,184.3c5.4,0,9.2,4,9.2,9.2c0,5.2-3.8,9.2-9.2,9.2c-5.4,0-9.2-4-9.2-9.2
		C196.3,188.3,200,184.3,205.4,184.3 M205.4,198.4c2.7,0,3.5-2.6,3.5-4.8c0-2.2-0.8-4.9-3.5-4.9c-2.7,0-3.5,2.7-3.5,4.9
		C202,195.8,202.8,198.4,205.4,198.4z"/>
	<path class="st1" d="M216.6,178.2h5.7v8.5h0.1c1.2-1.6,2.8-2.4,5-2.4c4.9,0,7.4,4.3,7.4,8.8c0,4.9-2.3,9.6-7.8,9.6
		c-2,0-3.7-0.9-4.8-2.5h-0.1v2h-5.4V178.2 M222.2,193.3c0,3.1,0.9,5,3.5,5c2.6,0,3.4-2.7,3.4-5c0-2.2-0.9-4.7-3.4-4.7
		C224.1,188.7,222.2,189.7,222.2,193.3z"/>
	<path class="st1" d="M242.7,182.6H237v-4.4h5.7V182.6z M237,184.8h5.7v17.5H237V184.8z"/>
	<path class="st1" d="M254.1,184.3c5.4,0,9.2,4,9.2,9.2c0,5.2-3.8,9.2-9.2,9.2c-5.4,0-9.2-4-9.2-9.2
		C244.9,188.3,248.7,184.3,254.1,184.3 M254.1,198.4c2.7,0,3.5-2.6,3.5-4.8c0-2.2-0.8-4.9-3.5-4.9c-2.7,0-3.5,2.7-3.5,4.9
		C250.6,195.8,251.4,198.4,254.1,198.4z"/>
	<rect x="265.5" y="178.2" class="st1" width="5.7" height="24"/>
	<path class="st1" d="M282.6,184.3c5.4,0,9.2,4,9.2,9.2c0,5.2-3.8,9.2-9.2,9.2c-5.4,0-9.2-4-9.2-9.2
		C273.4,188.3,277.2,184.3,282.6,184.3 M282.6,198.4c2.7,0,3.5-2.6,3.5-4.8c0-2.2-0.8-4.9-3.5-4.9c-2.7,0-3.5,2.7-3.5,4.9
		C279.1,195.8,279.9,198.4,282.6,198.4z"/>
	<path class="st1" d="M310.7,200.1c0,2.9-0.5,8.2-8.7,8.2c-4.1,0-7.9-0.9-8.6-5.6h5.7c0.1,0.8,0.4,1.2,1,1.5
		c0.5,0.3,1.2,0.4,2.1,0.4c2.7,0,3-1.9,3-4.1v-1.6h-0.1c-1,1.6-2.8,2.6-4.6,2.6c-5.3,0-7.7-3.8-7.7-8.7c0-4.6,2.7-8.5,7.7-8.5
		c2.1,0,3.7,0.9,4.7,2.7h0.1v-2.2h5.5V200.1 M301.8,188.7c-2.5,0-3.3,2.2-3.3,4.4c0,2.1,0.9,4.1,3.3,4.1c2.4,0,3.5-1.9,3.5-4.1
		C305.3,190.8,304.4,188.7,301.8,188.7z"/>
	<path class="st1" d="M322.8,203.8c-1.4,3.8-3.4,4.3-7.3,4.3h-2.7v-4.6h2c1.3,0,2.3-0.7,2.3-2c0-0.9-1.1-3.6-1.4-4.6l-4.5-12.1h6.1
		l3.3,11.4h0.1l3.3-11.4h5.9L322.8,203.8"/>
	<path class="st2" d="M127,209.3h4.3c1.7,0,3.1,0.8,3.1,3.1c0,1.6-0.7,2.8-2,3v0c1.2,0.1,1.8,0.8,1.9,2.5c0,0.8,0,1.7,0.1,2.5
		c0,0.6,0.3,0.9,0.6,1.1h-2.2c-0.2-0.2-0.3-0.6-0.3-1.1c-0.1-0.7-0.1-1.4-0.1-2.3c0-1.3-0.4-1.9-1.8-1.9h-1.6v5.3H127V209.3
		 M130.5,214.7c1.2,0,1.9-0.7,1.9-2c0-1.3-0.6-2-1.8-2h-1.6v3.9H130.5z"/>
	<path class="st2" d="M137.6,217.1v0.5c0,1.2,0.2,2.8,1.5,2.8c1.3,0,1.5-1.5,1.5-2h1.7c0,2-1.2,3.3-3.2,3.3c-1.5,0-3.3-0.4-3.3-4.7
		c0-2.4,0.5-4.9,3.4-4.9c2.5,0,3.2,1.5,3.2,4.1v1H137.6 M140.5,215.9v-0.5c0-1.2-0.4-2-1.4-2c-1.2,0-1.5,1.2-1.5,2.3v0.2H140.5z"/>
	<path class="st2" d="M147.8,215v-0.2c0-0.7-0.3-1.4-1.2-1.4c-0.7,0-1.3,0.3-1.3,1.2c0,0.7,0.3,1,1.3,1.3l1.2,0.4
		c1.4,0.5,2,1.2,2,2.6c0,2-1.4,2.8-3.3,2.8c-2.3,0-3-1.1-3-2.8v-0.3h1.6v0.3c0,1.1,0.4,1.6,1.4,1.6c1,0,1.5-0.5,1.5-1.3
		c0-0.7-0.4-1.1-1-1.3l-1.5-0.5c-1.4-0.5-1.9-1.2-1.9-2.6c0-1.7,1.2-2.5,3.1-2.5c2.3,0,2.8,1.4,2.8,2.5v0.4H147.8"/>
	<path class="st2" d="M154.1,212.1c2.7,0,3.4,2,3.4,4.8c0,2.8-0.9,4.8-3.4,4.8c-2.5,0-3.4-2-3.4-4.8
		C150.7,214,151.5,212.1,154.1,212.1 M154.1,220.3c1.3,0,1.6-1.1,1.6-3.4c0-2-0.2-3.4-1.6-3.4c-1.3,0-1.6,1.4-1.6,3.4
		C152.6,219.2,152.8,220.3,154.1,220.3z"/>
	<path class="st2" d="M163.6,220.4L163.6,220.4c-0.5,0.8-1.4,1.3-2.4,1.3c-1.4,0-2.3-0.6-2.3-3v-6.4h1.8v6.5c0,1,0.5,1.4,1.2,1.4
		c0.8,0,1.5-0.5,1.5-1.5v-6.4h1.8v9.1h-1.7V220.4"/>
	<path class="st2" d="M167.1,212.3h1.8v1.4h0c0.4-1,1.1-1.7,2.1-1.7c0.2,0,0.3,0,0.4,0.1v1.9c-0.1,0-0.5-0.1-0.8-0.1
		c-0.8,0-1.8,0.4-1.8,2.1v5.5h-1.8V212.3"/>
	<path class="st2" d="M178.5,218.1c-0.1,2.2-0.9,3.6-3.1,3.6c-2.6,0-3.4-2-3.4-4.8c0-2.8,0.7-4.8,3.4-4.8c2.7,0,3.1,2.1,3.1,3.3
		h-1.8c0-0.8-0.2-1.9-1.3-1.9c-1.3,0-1.6,1.4-1.6,3.4c0,2,0.2,3.4,1.6,3.4c1,0,1.4-0.8,1.4-2.2H178.5"/>
	<path class="st2" d="M181.5,217.1v0.5c0,1.2,0.2,2.8,1.5,2.8c1.3,0,1.5-1.5,1.5-2h1.7c0,2-1.2,3.3-3.2,3.3c-1.5,0-3.3-0.4-3.3-4.7
		c0-2.4,0.5-4.9,3.4-4.9c2.5,0,3.2,1.5,3.2,4.1v1H181.5 M184.4,215.9v-0.5c0-1.2-0.4-2-1.4-2c-1.2,0-1.5,1.2-1.5,2.3v0.2H184.4z"/>
	<path class="st2" d="M193.6,209.3h2.5l3.2,12.1h-2l-0.7-3h-3.5l-0.8,3h-2L193.6,209.3 M196.2,216.9l-1.4-6h0l-1.4,6H196.2z"/>
	<path class="st2" d="M200,212.3h1.7v1.1h0.1c0.5-0.8,1.3-1.3,2.3-1.3c1.4,0,2.3,0.6,2.3,2.5v6.9h-1.8v-6.3c0-1.2-0.4-1.6-1.3-1.6
		c-0.7,0-1.5,0.6-1.5,1.8v6.1H200V212.3"/>
	<path class="st2" d="M208.1,212.3h1.7v1.1h0c0.5-0.8,1.3-1.3,2.3-1.3c1.4,0,2.3,0.6,2.3,2.5v6.9h-1.8v-6.3c0-1.2-0.4-1.6-1.3-1.6
		c-0.7,0-1.5,0.6-1.5,1.8v6.1h-1.8V212.3"/>
	<path class="st2" d="M219.3,212.1c2.7,0,3.4,2,3.4,4.8c0,2.8-0.9,4.8-3.4,4.8c-2.5,0-3.4-2-3.4-4.8
		C215.9,214,216.7,212.1,219.3,212.1 M219.3,220.3c1.3,0,1.6-1.1,1.6-3.4c0-2-0.2-3.4-1.6-3.4c-1.3,0-1.6,1.4-1.6,3.4
		C217.8,219.2,218,220.3,219.3,220.3z"/>
	<path class="st2" d="M228.8,220.4L228.8,220.4c-0.5,0.8-1.4,1.3-2.4,1.3c-1.4,0-2.3-0.6-2.3-3v-6.4h1.8v6.5c0,1,0.5,1.4,1.2,1.4
		c0.8,0,1.5-0.5,1.5-1.5v-6.4h1.8v9.1h-1.7V220.4"/>
	<path class="st2" d="M232.3,212.3h1.7v1.1h0c0.5-0.8,1.3-1.3,2.3-1.3c1.4,0,2.3,0.6,2.3,2.5v6.9h-1.8v-6.3c0-1.2-0.4-1.6-1.3-1.6
		c-0.7,0-1.5,0.6-1.5,1.8v6.1h-1.8V212.3"/>
	<path class="st2" d="M246.6,218.1c-0.1,2.2-0.9,3.6-3.1,3.6c-2.6,0-3.4-2-3.4-4.8c0-2.8,0.7-4.8,3.4-4.8c2.7,0,3.1,2.1,3.1,3.3
		h-1.8c0-0.8-0.2-1.9-1.3-1.9c-1.3,0-1.6,1.4-1.6,3.4c0,2,0.2,3.4,1.6,3.4c1,0,1.4-0.8,1.4-2.2H246.6"/>
	<path class="st2" d="M249.6,217.1v0.5c0,1.2,0.2,2.8,1.5,2.8c1.3,0,1.5-1.5,1.5-2h1.7c0,2-1.2,3.3-3.2,3.3c-1.5,0-3.3-0.4-3.3-4.7
		c0-2.4,0.5-4.9,3.4-4.9c2.5,0,3.2,1.5,3.2,4.1v1H249.6 M252.5,215.9v-0.5c0-1.2-0.4-2-1.4-2c-1.2,0-1.5,1.2-1.5,2.3v0.2H252.5z"/>
	<path class="st2" d="M255.9,212.3h1.7v1.1h0.1c0.5-0.8,1.3-1.3,2.2-1.3c1.3,0,1.8,0.6,2.1,1.4c0.5-0.9,1.2-1.4,2.3-1.4
		c1.3,0,2.2,0.7,2.2,2.4v6.9h-1.8v-6.3c0-1.2-0.4-1.6-1.1-1.6c-0.7,0-1.5,0.6-1.5,1.8v6.1h-1.8v-6.3c0-1.2-0.4-1.6-1.1-1.6
		c-0.7,0-1.4,0.6-1.4,1.8v6.1h-1.8V212.3"/>
	<path class="st2" d="M270,217.1v0.5c0,1.2,0.2,2.8,1.5,2.8c1.3,0,1.5-1.5,1.5-2h1.7c0,2-1.2,3.3-3.2,3.3c-1.5,0-3.3-0.4-3.3-4.7
		c0-2.4,0.5-4.9,3.4-4.9c2.5,0,3.2,1.5,3.2,4.1v1H270 M272.9,215.9v-0.5c0-1.2-0.4-2-1.4-2c-1.2,0-1.5,1.2-1.5,2.3v0.2H272.9z"/>
	<path class="st2" d="M276.3,212.3h1.7v1.1h0.1c0.5-0.8,1.3-1.3,2.3-1.3c1.4,0,2.3,0.6,2.3,2.5v6.9h-1.8v-6.3c0-1.2-0.4-1.6-1.3-1.6
		c-0.7,0-1.5,0.6-1.5,1.8v6.1h-1.8V212.3"/>
	<path class="st2" d="M283.6,212.3h1.3v-2.6h1.8v2.6h1.5v1.4h-1.5v5.4c0,0.7,0.2,1,0.8,1c0.3,0,0.5,0,0.7-0.1v1.4
		c-0.4,0.1-0.9,0.2-1.5,0.2c-1.2,0-1.8-0.3-1.8-2.2v-5.7h-1.3V212.3"/>
	<path class="st2" d="M293.1,215v-0.2c0-0.7-0.3-1.4-1.2-1.4c-0.7,0-1.3,0.3-1.3,1.2c0,0.7,0.3,1,1.3,1.3l1.2,0.4
		c1.4,0.5,2,1.2,2,2.6c0,2-1.4,2.8-3.3,2.8c-2.3,0-3-1.1-3-2.8v-0.3h1.6v0.3c0,1.1,0.4,1.6,1.4,1.6c1,0,1.5-0.5,1.5-1.3
		c0-0.7-0.4-1.1-1-1.3l-1.5-0.5c-1.4-0.5-2-1.2-2-2.6c0-1.7,1.2-2.5,3.1-2.5c2.3,0,2.9,1.4,2.9,2.5v0.4H293.1"/>
	<path class="st3" d="M119.1,210.6l-24.4-36.1v29.6H86c-0.4-1.4-1.6-2.3-3.1-2.3c-1.8,0-3.3,1.5-3.3,3.3c0,1.8,1.5,3.3,3.3,3.3
		c1.5,0,2.7-1,3.1-2.3h8.7v19.5L119.1,210.6"/>
</g>
</svg>
