<?xml version="1.0" encoding="utf-8"?>
<!-- Generator: Adobe Illustrator 26.2.1, SVG Export Plug-In . SVG Version: 6.00 Build 0)  -->
<svg version="1.1" id="Layer_1" xmlns="http://www.w3.org/2000/svg" xmlns:xlink="http://www.w3.org/1999/xlink" x="0px" y="0px"
	 viewBox="0 0 400 400" style="enable-background:new 0 0 400 400;" xml:space="preserve">
<g>
	<path d="M34.4,169.5l0.2,16h0.5c3.3-9.1,11.4-16.5,23.3-16.5c15.3,0,20,7.7,20,22.3v28.8c0,8.8,0.5,17.9,2.6,24.7H56
		c2.1-6.5,2.3-14.4,2.3-24v-27.4c0-6.7-2.6-9.8-10-9.8c-5.6,0-9.8,1.6-13,4.4v33c0,9.5,0.2,17.4,2.3,24H13c2.3-6.7,2.6-16,2.6-24.7
		v-27c0-7.2-2.6-13.7-5.6-17C10,176.5,34.4,169.5,34.4,169.5z M123.7,230.7v-27c-1.6,2.3-3.5,3.7-8.8,6c-7,3.5-9.5,7.2-9.5,14.9
		c0,6.5,3.7,10.7,9.3,10.7C120.2,235.6,122.1,233.5,123.7,230.7z M117.2,169.3c19.1,0,26.3,7.7,26.3,23.3v32.6c0,5.8,2.3,7.7,7,7.7
		c0.7,0,3.3-0.5,4-1.2c-0.5,2.3-0.7,3.5-1.2,4.7c-2.3,6.5-6.3,10.2-14.2,10.2c-9.5,0-14.2-6.7-14.4-13.5h-0.2
		c-3.3,9.5-9.3,13.5-19.1,13.5c-11.9,0-19.5-7.2-19.5-18.4c0-11.9,10.7-17,21.9-21.2c10.7-4.2,16.3-7.2,16.3-14.9v-1.6
		c0-8.4-2.6-12.6-10.5-12.6c-4.9,0-6.7,2.3-7.7,7c-1.6,7.2-4.4,9.8-9.1,9.8c-4.2,0-8.1-2.8-8.1-8.1
		C88.1,176.3,102.6,169.3,117.2,169.3z M197.7,236.7c-2.6,5.8-8.8,9.8-17.7,9.8c-15.1,0-21.2-7.7-21.2-21.6v-43.7h-7.2v-0.5
		l26.3-27.2l0.5,0.2v17.2h19.1l-1.9,10.5h-17v40.5c0,7.7,3.3,10.9,10.2,10.9c5.3,0,8.1-0.7,10.7-2.1
		C198.8,233.3,198.6,234.7,197.7,236.7z M224.9,170.5v51.2c0,7.7,3,11.9,10.5,11.9c6.3,0,10.9-2.1,13.7-5.6v-34.7
		c0-7.7-0.7-14-3.3-20.5l22.8-2.3v52.3c0,11.6,1.2,16.7,3,22.3h-22.3v-14.9h-0.2c-3.3,9.5-9.3,16.3-22.1,16.3
		c-16,0-22.1-9.8-22.1-24.2v-29.1c0-7.7-0.7-14-3.3-20.5C201.6,172.8,224.9,170.5,224.9,170.5z M299.8,188.1
		c3.3-13.7,9.5-19.1,17.9-19.1c7.7,0,11.6,4,11.6,10.2c0,5.6-3.3,10.2-9.1,10.2c-3.5,0-5.6-1.6-7-3c-1.6-1.6-2.8-3.3-4.7-3.3
		c-4,0-8.4,6.7-8.4,17.9v18.6c0,9.1,0.7,18.1,2.6,25.1h-24.7c2.3-6.7,2.6-16,2.6-24.7v-26.7c0-7.2-2.6-13.7-5.6-17l24.2-7l0.2,0.2
		v18.6C299.5,188.4,299.8,188.1,299.8,188.1z M346.5,199.1l24.9-2.3c-0.2-11.9-2.1-18.8-10.2-18.8
		C352.8,178.1,347.9,184.9,346.5,199.1z M361.4,246.5c-19.1,0-34.7-12.6-34.7-36.7c0-24.4,14.9-40.9,35.1-40.9
		c19.1,0,28.1,12.1,28.1,35.1h-43.5v2.3c0,18.4,9.5,25.8,22.6,25.8c11.9,0,17-4.7,20.5-8.1l0.5,1.2
		C386.7,236.3,377.9,246.5,361.4,246.5z"/>
</g>
</svg>
