<?xml version="1.0" encoding="utf-8"?>
<!-- Generator: Adobe Illustrator 26.2.1, SVG Export Plug-In . SVG Version: 6.00 Build 0)  -->
<svg version="1.1" id="Layer_1" xmlns="http://www.w3.org/2000/svg" xmlns:xlink="http://www.w3.org/1999/xlink" x="0px" y="0px"
	 viewBox="0 0 400 400" style="enable-background:new 0 0 400 400;" xml:space="preserve">
<style type="text/css">
	.st0{fill:#FFFFFF;}
</style>
<path d="M35.3,238.1c0-16.8-0.1-33.3,0.1-49.8c0-2.3,0.4-6.2,1.5-6.6c5.2-1.6,10.8-3.4,15.9-2.5c2.4,0.4,5.1,6.7,5.3,10.4
	c0.6,16,0.2,32.1,0.2,48.5c6.1,0,13.5,0,20.7,0c-0.5-8.8-1.2-17.3-1.4-25.8c-0.2-10,0.1-20-0.1-30c-0.3-12.5-6.4-18.1-18.7-18.5
	c-10.5-0.3-17.8,4.9-23.8,14.4c-0.3-5.5-0.5-9.5-0.7-14.2c-8.1,2.4-15.4,4.5-22.3,6.5c7.1,22.8,3.7,45.1,2.3,67.6
	C21.7,238.1,29.2,238.1,35.3,238.1z"/>
<path d="M250.3,226.1c0.5,5.3,0.8,8.6,1.1,11.8c7.3,0,13.9,0,18.5,0c0-12.5,0-24.4,0-36.2c0-12.1,0-24.1,0-36.8
	c-8.2,0.9-15.1,1.6-20.3,2.1c0.2,18.1,0.6,35.3,0.6,52.5c0,1.6-1.5,4.3-2.7,4.5c-5,1.1-10.7,3-15.2,1.5c-2.8-0.9-4.3-7.2-5.4-11.3
	c-0.8-3.2-0.2-6.8-0.2-10.2c0-12.8,0-25.7,0-39.2c-7.9,0.8-14.8,1.6-21.8,2.3c0.6,4.4,1.5,7.9,1.6,11.5c0.5,13.6,0.4,27.3,1.1,40.9
	c0.8,14.5,9.2,21.4,23.7,20.3C239.5,239.2,245.4,235.1,250.3,226.1z"/>
<path d="M153.7,226.6c-9.4-0.3-10.4-1.4-10.4-10.4c0-10.5,0.1-21-0.1-31.4c-0.2-8.3-2.9-15.8-11.4-18.7c-12-4.1-24.2-3.6-35.2,3.2
	c-3.3,2.1-5.9,6.3-7.4,10.1c-1.6,4,0.4,7.8,4.9,9.1c4.6,1.3,8.2-0.3,10-4.9c0.5-1.3,1-2.8,1.3-4.2c1.2-5,4.2-7.3,9.5-6.8
	c5.3,0.6,7.5,3.5,8.1,8.5c1,9.5-0.8,12.9-9.7,17.2c-7,3.4-14.2,6.5-20.8,10.5c-6,3.7-7.4,10.1-6.3,16.8c1.1,6.5,5,10.8,11.3,13.1
	c10.5,3.7,19.3,0.4,26.4-10.6c2.7,8.7,8.5,12.7,17.2,11.6C148.7,239,152,234,153.7,226.6z"/>
<path d="M391.9,197.8c1.3-16.7-5.5-29.1-17.4-32.8c-13.9-4.4-29.3,0.9-37.2,13.2c-8.3,12.9-9.2,27.1-4.4,41.3
	c4.7,13.8,18.4,21.4,34.5,20.4c12-0.7,21.2-8.7,24.6-21.5c-10.8,8-22.1,10.4-33.9,3.2c-6.9-4.3-9.7-14.3-7.2-23.8
	C364.2,197.8,377.8,197.8,391.9,197.8z"/>
<path d="M159.7,176.2c0,2.9,0,5.5,0,8.2c0,11.7-0.2,23.4,0,35.1c0.3,17.2,16.1,26.4,31.4,18.2c4.6-2.5,7.8-6.1,7.9-12.1
	c-4.2,0.2-8.1,1.3-11.3,0.3c-3-0.9-7.4-3.9-7.5-6.2c-0.7-14.5-0.3-29-0.3-44.1c5.6,0,10.7,0,15.9,0c0.7-3.5,1.3-6.5,2.1-10.5
	c-6.5,0-12.2,0-18.7,0c0-5.8,0-10.7,0-14.5c-8.4,7.9-17,15.9-26.1,24.4C155.7,175.5,157.5,175.8,159.7,176.2z"/>
<path d="M280,170.4c6.6,23.1,4,45.3,2,67.5c7.4,0,15,0,23,0c-0.5-3.5-1.2-6.4-1.1-9.3c0.1-14.1-0.5-28.3,0.8-42.2
	c0.8-8.5,5.2-9.6,11.6-4.9c3.6,2.7,8,4.5,11.2,0.8c2.4-2.7,3.8-7.2,3.7-10.8c-0.1-5-4.2-7.1-9.2-7.5c-10.2-0.9-14.7,5.8-19,15.6
	c-0.4-6.3-0.7-10.5-1.1-15.4C294,166.4,286.8,168.4,280,170.4z"/>
<path d="M35.3,238.1c-6.1,0-13.5,0-20.9,0c1.3-22.5,4.8-44.8-2.3-67.6c6.8-2,14.1-4.1,22.3-6.5c0.2,4.7,0.4,8.7,0.7,14.2
	c6-9.6,13.3-14.8,23.8-14.4c12.3,0.4,18.3,6,18.7,18.5c0.3,10-0.1,20,0.1,30c0.2,8.5,0.9,17,1.4,25.8c-7.2,0-14.7,0-20.7,0
	c0-16.4,0.3-32.5-0.2-48.5c-0.1-3.7-2.9-9.9-5.3-10.4c-5-0.9-10.7,0.9-15.9,2.5c-1.1,0.3-1.5,4.3-1.5,6.6
	C35.2,204.8,35.3,221.3,35.3,238.1z"/>
<path d="M250.3,226.1c-4.9,9-10.8,13.2-18.9,13.8c-14.5,1.1-22.9-5.8-23.7-20.3c-0.7-13.6-0.6-27.3-1.1-40.9
	c-0.1-3.6-1-7.2-1.6-11.5c7-0.7,13.9-1.5,21.8-2.3c0,13.5,0,26.4,0,39.2c0,3.4-0.7,7,0.2,10.2c1.1,4.1,2.6,10.4,5.4,11.3
	c4.4,1.5,10.1-0.4,15.2-1.5c1.2-0.3,2.7-3,2.7-4.5c0-17.2-0.3-34.4-0.6-52.5c5.2-0.5,12.1-1.3,20.3-2.1c0,12.7,0,24.7,0,36.8
	c0,11.9,0,23.7,0,36.2c-4.6,0-11.2,0-18.5,0C251.1,234.7,250.8,231.4,250.3,226.1z"/>
<path d="M153.7,226.6c-1.7,7.4-5,12.4-12.4,13.2c-8.7,1-14.5-2.9-17.2-11.6c-7,11-15.9,14.3-26.4,10.6c-6.3-2.3-10.2-6.6-11.3-13.1
	c-1.1-6.7,0.3-13.1,6.3-16.8c6.6-4,13.8-7.1,20.8-10.5c8.9-4.3,10.7-7.7,9.7-17.2c-0.6-5.1-2.8-8-8.1-8.5c-5.3-0.6-8.3,1.7-9.5,6.8
	c-0.3,1.4-0.8,2.8-1.3,4.2c-1.9,4.6-5.5,6.2-10,4.9c-4.5-1.3-6.5-5-4.9-9.1c1.5-3.8,4-8,7.4-10.1c11-6.8,23.1-7.3,35.2-3.2
	c8.5,2.9,11.2,10.3,11.4,18.7c0.2,10.5,0,21,0.1,31.4C143.3,225.2,144.3,226.3,153.7,226.6z M123.3,199.5c-4.5,2.5-8.3,4.2-11.7,6.4
	c-5.7,3.6-8.4,12.5-4.8,18c1.8,2.7,6,4.9,9.3,5c2.3,0.1,6.6-3.4,6.8-5.6C123.8,215.7,123.3,208,123.3,199.5z"/>
<path d="M391.9,197.8c-14,0-27.6,0-41,0c-2.5,9.5,0.3,19.5,7.2,23.8c11.7,7.3,23,4.9,33.9-3.2c-3.3,12.8-12.5,20.8-24.6,21.5
	c-16.1,1-29.8-6.6-34.5-20.4c-4.8-14.2-3.9-28.4,4.4-41.3c7.9-12.3,23.3-17.6,37.2-13.2C386.4,168.7,393.2,181.1,391.9,197.8z
	 M375.8,190.8c-2.6-6.4-3.9-12.3-7.2-16.7c-1.3-1.7-7.6-1.3-10.5,0.3c-6.9,3.8-7.6,11-8,18.8C358.2,192.4,365.8,191.7,375.8,190.8z"
	/>
<path d="M159.7,176.2c-2.2-0.4-4-0.7-6.6-1.1c9.1-8.5,17.7-16.5,26.1-24.4c0,3.7,0,8.7,0,14.5c6.5,0,12.2,0,18.7,0
	c-0.8,3.9-1.4,6.9-2.1,10.5c-5.2,0-10.3,0-15.9,0c0,15.1-0.3,29.6,0.3,44.1c0.1,2.3,4.5,5.3,7.5,6.2c3.2,1,7.1-0.1,11.3-0.3
	c-0.1,5.9-3.3,9.6-7.9,12.1c-15.3,8.2-31.1-1-31.4-18.2c-0.2-11.7,0-23.4,0-35.1C159.7,181.7,159.7,179.1,159.7,176.2z"/>
<path d="M280,170.4c6.8-1.9,14-4,21.8-6.2c0.3,4.9,0.6,9.1,1.1,15.4c4.4-9.8,8.8-16.5,19-15.6c5,0.4,9.1,2.5,9.2,7.5
	c0.1,3.6-1.3,8.2-3.7,10.8c-3.2,3.6-7.5,1.8-11.2-0.8c-6.4-4.7-10.8-3.6-11.6,4.9c-1.4,14-0.8,28.2-0.8,42.2c0,2.9,0.7,5.8,1.1,9.3
	c-7.9,0-15.6,0-23,0C284,215.7,286.7,193.5,280,170.4z"/>
<path class="st0" d="M123.3,199.5c0,8.6,0.5,16.3-0.3,23.9c-0.3,2.2-4.5,5.7-6.8,5.6c-3.3-0.2-7.5-2.4-9.3-5
	c-3.7-5.5-0.9-14.3,4.8-18C115,203.7,118.7,201.9,123.3,199.5z"/>
<path class="st0" d="M375.8,190.8c-10,0.9-17.5,1.6-25.7,2.4c0.4-7.8,1.1-15,8-18.8c2.9-1.6,9.3-2,10.5-0.3
	C371.8,178.5,373.2,184.4,375.8,190.8z"/>
</svg>
