<?xml version="1.0" encoding="utf-8"?>
<!-- Generator: Adobe Illustrator 26.2.1, SVG Export Plug-In . SVG Version: 6.00 Build 0)  -->
<svg version="1.1" id="Layer_1" xmlns="http://www.w3.org/2000/svg" xmlns:xlink="http://www.w3.org/1999/xlink" x="0px" y="0px"
	 viewBox="0 0 400 400" style="enable-background:new 0 0 400 400;" xml:space="preserve">
<style type="text/css">
	.st0{fill:#FFFFFF;}
</style>
<path d="M88.1,224.7c0-11.5,0-22.8,0-34c0-1.6,0.3-4.3,1-4.5c3.5-1.1,7.4-2.3,10.8-1.7c1.6,0.3,3.5,4.6,3.6,7.1
	c0.4,10.9,0.2,21.9,0.2,33.1c4.2,0,9.2,0,14.2,0c-0.3-6-0.8-11.8-0.9-17.6c-0.2-6.8,0.1-13.7-0.1-20.5c-0.2-8.5-4.4-12.3-12.7-12.6
	c-7.2-0.2-12.1,3.3-16.3,9.9c-0.2-3.8-0.3-6.5-0.5-9.7c-5.5,1.6-10.5,3.1-15.2,4.4c4.8,15.6,2.5,30.8,1.6,46.2
	C78.9,224.7,84,224.7,88.1,224.7z"/>
<path d="M235,216.4c0.4,3.7,0.6,5.9,0.8,8c5,0,9.5,0,12.6,0c0-8.5,0-16.6,0-24.7c0-8.2,0-16.5,0-25.1c-5.6,0.6-10.3,1.1-13.9,1.5
	c0.2,12.4,0.4,24.1,0.4,35.9c0,1.1-1,2.9-1.8,3.1c-3.4,0.7-7.3,2-10.4,1c-1.9-0.6-2.9-4.9-3.7-7.7c-0.6-2.2-0.1-4.6-0.1-7
	c0-8.8,0-17.5,0-26.8c-5.4,0.6-10.1,1.1-14.9,1.6c0.4,3,1,5.4,1.1,7.9c0.3,9.3,0.2,18.6,0.8,27.9c0.5,9.9,6.3,14.6,16.2,13.8
	C227.6,225.4,231.7,222.6,235,216.4z"/>
<path d="M169,216.8c-6.4-0.2-7.1-1-7.1-7.1c0-7.2,0.1-14.3,0-21.5c-0.1-5.7-2-10.8-7.8-12.7c-8.2-2.8-16.5-2.5-24,2.2
	c-2.3,1.4-4,4.3-5,6.9c-1.1,2.7,0.3,5.3,3.4,6.2c3.1,0.9,5.6-0.2,6.9-3.3c0.4-0.9,0.7-1.9,0.9-2.8c0.8-3.4,2.9-5,6.5-4.6
	c3.6,0.4,5.2,2.4,5.5,5.8c0.7,6.5-0.5,8.8-6.6,11.8c-4.8,2.3-9.7,4.4-14.2,7.2c-4.1,2.5-5.1,6.9-4.3,11.4c0.7,4.4,3.4,7.4,7.7,8.9
	c7.2,2.6,13.2,0.3,18-7.2c1.8,6,5.8,8.6,11.7,7.9C165.6,225.2,167.9,221.8,169,216.8z"/>
<path d="M331.7,197.1c0.9-11.4-3.8-19.9-11.9-22.4c-9.5-3-20,0.6-25.4,9c-5.7,8.8-6.3,18.5-3,28.2c3.2,9.4,12.5,14.6,23.5,13.9
	c8.2-0.5,14.5-5.9,16.8-14.7c-7.4,5.5-15.1,7.1-23.1,2.2c-4.7-2.9-6.6-9.7-4.9-16.2C312.8,197.1,322.1,197.1,331.7,197.1z"/>
<path d="M173.1,182.4c0,2,0,3.8,0,5.6c0,8-0.1,16,0,23.9c0.2,11.8,11,18,21.5,12.4c3.2-1.7,5.3-4.2,5.4-8.2
	c-2.9,0.1-5.5,0.9-7.7,0.2c-2-0.6-5-2.7-5.1-4.2c-0.5-9.9-0.2-19.8-0.2-30.1c3.9,0,7.3,0,10.9,0c0.5-2.4,0.9-4.5,1.4-7.2
	c-4.5,0-8.4,0-12.8,0c0-3.9,0-7.3,0-9.9c-5.7,5.4-11.6,10.8-17.8,16.6C170.4,181.9,171.6,182.1,173.1,182.4z"/>
<path d="M255.3,178.4c4.5,15.8,2.7,30.9,1.4,46.1c5.1,0,10.3,0,15.7,0c-0.3-2.4-0.8-4.4-0.8-6.3c0-9.6-0.4-19.3,0.6-28.8
	c0.6-5.8,3.5-6.6,7.9-3.4c2.5,1.8,5.4,3,7.6,0.6c1.6-1.8,2.6-4.9,2.5-7.4c-0.1-3.4-2.9-4.8-6.3-5.1c-7-0.6-10,4-13,10.7
	c-0.3-4.3-0.5-7.1-0.7-10.5C264.8,175.7,259.9,177.1,255.3,178.4z"/>
<path d="M88.1,224.7c-4.1,0-9.2,0-14.3,0c0.9-15.4,3.2-30.6-1.6-46.2c4.7-1.4,9.7-2.8,15.2-4.4c0.2,3.2,0.3,6,0.5,9.7
	c4.1-6.5,9.1-10.1,16.3-9.9c8.4,0.3,12.5,4.1,12.7,12.6c0.2,6.8-0.1,13.7,0.1,20.5c0.1,5.8,0.6,11.6,0.9,17.6c-4.9,0-10,0-14.2,0
	c0-11.2,0.2-22.2-0.2-33.1c-0.1-2.5-2-6.8-3.6-7.1c-3.4-0.6-7.3,0.6-10.8,1.7c-0.7,0.2-1,2.9-1,4.5
	C88.1,201.9,88.1,213.2,88.1,224.7z"/>
<path d="M235,216.4c-3.3,6.1-7.3,9-12.9,9.4c-9.9,0.7-15.6-4-16.2-13.8c-0.5-9.3-0.4-18.6-0.8-27.9c-0.1-2.5-0.7-4.9-1.1-7.9
	c4.8-0.5,9.5-1,14.9-1.6c0,9.2,0,18,0,26.8c0,2.3-0.5,4.8,0.1,7c0.7,2.8,1.8,7.1,3.7,7.7c3,1,6.9-0.3,10.4-1c0.8-0.2,1.8-2,1.8-3.1
	c0-11.8-0.2-23.5-0.4-35.9c3.5-0.4,8.2-0.9,13.9-1.5c0,8.6,0,16.9,0,25.1c0,8.1,0,16.2,0,24.7c-3.1,0-7.6,0-12.6,0
	C235.6,222.3,235.3,220.1,235,216.4z"/>
<path d="M169,216.8c-1.2,5-3.4,8.4-8.5,9c-6,0.7-9.9-2-11.7-7.9c-4.8,7.5-10.8,9.8-18,7.2c-4.3-1.5-7-4.5-7.7-8.9
	c-0.8-4.5,0.2-8.9,4.3-11.4c4.5-2.8,9.4-4.9,14.2-7.2c6.1-3,7.3-5.3,6.6-11.8c-0.4-3.5-1.9-5.4-5.5-5.8c-3.6-0.4-5.7,1.2-6.5,4.6
	c-0.2,1-0.5,1.9-0.9,2.8c-1.3,3.1-3.7,4.2-6.9,3.3c-3.1-0.9-4.5-3.4-3.4-6.2c1-2.6,2.8-5.5,5-6.9c7.5-4.6,15.8-5,24-2.2
	c5.8,2,7.7,7.1,7.8,12.7c0.1,7.2,0,14.3,0,21.5C161.9,215.8,162.6,216.6,169,216.8z M148.3,198.3c-3.1,1.7-5.6,2.9-8,4.4
	c-3.9,2.5-5.7,8.5-3.2,12.3c1.2,1.8,4.1,3.3,6.3,3.4c1.6,0.1,4.5-2.3,4.6-3.8C148.6,209.4,148.3,204.1,148.3,198.3z"/>
<path d="M331.7,197.1c-9.6,0-18.9,0-28,0c-1.7,6.5,0.2,13.3,4.9,16.2c8,5,15.7,3.3,23.1-2.2c-2.3,8.8-8.6,14.2-16.8,14.7
	c-11,0.7-20.4-4.5-23.5-13.9c-3.3-9.7-2.7-19.4,3-28.2c5.4-8.4,15.9-12,25.4-9C327.9,177.3,332.6,185.7,331.7,197.1z M320.7,192.3
	c-1.8-4.4-2.7-8.4-4.9-11.4c-0.9-1.1-5.2-0.9-7.2,0.2c-4.7,2.6-5.2,7.5-5.5,12.8C308.7,193.5,313.9,193,320.7,192.3z"/>
<path d="M173.1,182.4c-1.5-0.3-2.7-0.5-4.5-0.8c6.2-5.8,12.1-11.3,17.8-16.6c0,2.6,0,5.9,0,9.9c4.4,0,8.3,0,12.8,0
	c-0.5,2.7-0.9,4.7-1.4,7.2c-3.6,0-7,0-10.9,0c0,10.3-0.2,20.2,0.2,30.1c0.1,1.5,3.1,3.6,5.1,4.2c2.2,0.7,4.8-0.1,7.7-0.2
	c-0.1,4-2.2,6.5-5.4,8.2c-10.4,5.6-21.2-0.7-21.5-12.4c-0.2-8,0-16,0-23.9C173.1,186.1,173.1,184.3,173.1,182.4z"/>
<path d="M255.3,178.4c4.6-1.3,9.5-2.7,14.9-4.3c0.2,3.4,0.4,6.2,0.7,10.5c3-6.7,6-11.3,13-10.7c3.4,0.3,6.2,1.7,6.3,5.1
	c0.1,2.5-0.9,5.6-2.5,7.4c-2.2,2.5-5.1,1.2-7.6-0.6c-4.4-3.2-7.4-2.4-7.9,3.4c-0.9,9.5-0.5,19.2-0.6,28.8c0,2,0.5,3.9,0.8,6.3
	c-5.4,0-10.6,0-15.7,0C258,209.3,259.8,194.2,255.3,178.4z"/>
<path class="st0" d="M148.3,198.3c0,5.8,0.4,11.1-0.2,16.3c-0.2,1.5-3.1,3.9-4.6,3.8c-2.2-0.1-5.1-1.6-6.3-3.4
	c-2.5-3.8-0.6-9.8,3.2-12.3C142.6,201.2,145.2,200,148.3,198.3z"/>
<path class="st0" d="M320.7,192.3c-6.8,0.6-12,1.1-17.6,1.6c0.3-5.3,0.8-10.3,5.5-12.8c2-1.1,6.3-1.4,7.2-0.2
	C318,184,318.9,188,320.7,192.3z"/>
</svg>
