<?xml version="1.0" encoding="utf-8"?>
<!-- Generator: Adobe Illustrator 27.7.0, SVG Export Plug-In . SVG Version: 6.00 Build 0)  -->
<svg version="1.1" id="Layer_1" xmlns="http://www.w3.org/2000/svg" xmlns:xlink="http://www.w3.org/1999/xlink" x="0px" y="0px"
	 viewBox="0 0 189.3 189.3" style="enable-background:new 0 0 189.3 189.3;" xml:space="preserve">
<style type="text/css">
	.st0{fill:#C72326;}
</style>
<g>
	<path d="M9.8,133.8h12.1v-1.1c-1.5-0.1-4.9-0.9-4.9-2.6c0-0.7,0.2-1.7,0.5-2.7c0.4-1.5,0.9-3.1,1.7-5.3h10.3l2.6,7.6
		c0.1,0.4,0.2,0.8,0.2,1.1c0,1.2-2.8,1.8-4.3,1.9v1.1H42v-1.1c-0.8,0-2.2-0.4-2.9-0.9c-1.1-0.7-1.3-1.4-1.7-2.3
		c-1.6-4.6-5.8-16.7-10.2-29.2h-2c-3.3,9.3-6.8,19.5-9.9,27.8c-0.7,1.7-1.4,3.1-2.5,3.8c-0.8,0.5-2.2,0.9-3.1,0.9L9.8,133.8
		L9.8,133.8z M19.7,120.5l4.6-13.4l4.7,13.4H19.7z"/>
	<path d="M49.5,134.4c2.7,0,4.8-1.9,5.7-3h0.2v2.1l0.3,0.3l7.7-0.5v-0.9c-0.8,0-2.1-0.2-2.6-0.6c-0.7-0.5-1-1.4-1.1-2.3V98.1
		l-0.4-0.4l-8.9,0.5v0.9c1.2,0.1,3.1,0.5,3.8,1.1c0.7,0.5,1.1,1.8,1.2,2.8v9.6c-0.5-0.2-2.5-1.3-5.2-1.3c-5.1,0-9.6,4.7-9.6,11.2
		C40.6,129.8,44.5,134.4,49.5,134.4z M51.2,132.3c-4.1,0-5.8-4.5-5.8-9.3c0-6.6,2.2-10.6,5.3-10.6c2.8,0,4.2,2.3,4.7,4v13.7
		C54.2,131.5,53.2,132.3,51.2,132.3z"/>
	<path d="M72,134.1h1.6c0.6-2.1,1.2-3.6,1.7-5.2c1.8-5.1,3.4-9,5.1-13.4c0.6-1.5,2.5-2.5,3.4-2.7V112h-8.2v1
		c0.7,0.1,3.3,0.8,3.3,1.8c0,0.4-0.1,1-0.2,1.4c-1.5,4.6-2.8,8-4.3,12.1c-1.8-4.9-3.9-10.6-4.7-13c-0.2-0.6-0.3-1-0.3-1
		c0-0.8,1.5-1,2.5-1v-1.1H61.7v1c1.3,0.2,2.8,1,3.3,2.3C67.9,123.2,69,125.6,72,134.1z"/>
	<path d="M88.2,134.4c2.6,0,4.8-1.3,6.4-3.3h0.1c0.7,2.2,1.9,3.2,3.9,3.2c2.7,0,4.5-1.8,4.7-6.2h-1.1c-0.1,1.9-0.3,3.7-1.5,3.7
		c-1.3,0-2-1.6-2-2.4c0-1.6,0.2-6.5,0.2-10.8c0-6.4-3.3-7.1-7.6-7.1c-3.4,0-7.1,2.2-7.1,5.2c0,1.4,0.6,2.5,2,2.5
		c1.5,0,2.9-0.9,2.9-2.1c0-1.1-0.4-2.1-0.4-2.8c0.4-0.5,1-1.7,2.4-1.7c3.5,0,3.6,4,3.6,4.9v2.7c-1.8,1.2-4.8,1.9-7.3,3
		c-2.1,0.9-4.2,2.2-4.2,6.2C83.2,132.3,85.2,134.4,88.2,134.4z M90.6,132.1c-1.7,0-2.8-1.3-2.8-3.6c0-4.3,2.9-5.7,6.9-7.1l-0.2,8.5
		C93.6,131.3,92.8,132.1,90.6,132.1z"/>
	<path d="M103.4,133.8h10.5v-1c-0.7,0-1.4-0.2-2-0.6c-0.7-0.4-1.1-1.1-1.1-2.1v-13.3c0.4-1.1,2.1-3.1,5.1-3.1c1.8,0,3.5,1.8,3.5,5.2
		v11.4c0,1.1-0.3,1.9-1.2,2.1c-0.5,0.2-1.3,0.3-2,0.3v1h10.6v-1c-0.8,0-1.3-0.2-2-0.5c-0.8-0.4-1.1-1.1-1.1-2.1V119
		c0-4.6-1.8-7.6-5.9-7.6c-3.7,0-5.3,2.1-6.9,4v-3.3l-0.3-0.3l-7.3,0.5v0.9c0.8,0,1.7,0.4,2.2,0.8c0.7,0.5,1.1,1.6,1.2,2.5v13.8
		c0,1.1-0.4,1.9-1.2,2.1c-0.6,0.2-1.2,0.3-1.9,0.3v1.1H103.4z M137.5,134.4c3.5,0,6.5-2.5,8.2-5.8l-1-0.7c-1.3,2.8-3.2,4.3-6.2,4.3
		c-3.8,0-5.8-4.1-5.8-9.9c0-7.3,2.5-9.8,5.1-9.8c1.4,0,2.1,0.3,2.4,1.8c0,0.9-0.6,1-0.6,3c0,1.9,1.7,2.4,2.6,2.4
		c1.5,0,2.4-1.1,2.4-2.7c0-2.9-2.3-5.6-6.7-5.6c-6.1,0-9.8,5.5-9.8,11.4C128,129.4,131.1,134.4,137.5,134.4z M155.6,134.4
		c3.7,0,6.6-2.4,8.2-5.9l-0.9-0.6c-1.6,2.9-2.8,4.3-6.1,4.3c-4.5,0-6.3-4.5-6.3-10.6v-0.5h12.9v-0.4c0-5-2.2-9.3-8.3-9.3
		c-5.9,0-9.3,5.6-9.3,11.3C145.9,129,149,134.4,155.6,134.4z M150.5,120c0.1-4.6,2-7.5,4.6-7.5c3.1,0,3.8,4,3.8,7.4L150.5,120z
		 M172.1,134.5c4,0,7.5-2.6,7.5-6.9c0-4-2.6-5.8-6.1-7.1c-3.4-1.3-4.9-2-4.9-4.5c0-1.7,1.1-3.5,3.5-3.5c2.9,0,5.1,2.7,5.6,5.5h1
		l-0.3-6.6h-1.3l-0.3,1.3c-1.1-0.8-2.9-1.3-4.6-1.3c-3.9,0-6.7,2.8-6.7,6.4c0,4.2,3.3,5.8,6.1,6.8c3.2,1.1,4.9,2.1,4.9,4.6
		c0,2.3-1.2,4.2-4,4.2c-3.5,0-6-4.4-6.4-6.7h-1l0.2,7.5h1.4l0.4-1.5C167.6,133.3,170,134.5,172.1,134.5z"/>
	<path class="st0" d="M13.3,89.4l-1.6,2.4H10L9.7,79.7h1.2c2,5.5,5.1,10.7,11,10.7c4.3,0,6.4-2.7,6.4-6.5c0-3.1-1.6-5.5-4.7-6.9
		c-2.7-1.1-4.6-1.9-7.3-3.1c-3.6-1.6-5.8-4.6-5.8-9.1c0-5.5,4.3-9.5,10-9.5c2.5,0,5.6,1,7.3,2.5l1.5-2.3h1.7l0.3,11.7h-1.2
		c-1.9-5.9-4.2-10.4-10.6-10.4c-1.4,0-4.9,1.2-4.9,5.3c0,3.1,1.3,5,4.3,6.7c2.4,1.4,4.8,2,6.9,3.1c3.8,1.9,6.7,4,6.7,9.4
		C32.7,87.5,28,92,21.6,92C17.6,92,14.8,90.6,13.3,89.4z"/>
	<path class="st0" d="M34.1,79.5c0-6.4,4-12.3,10.7-12.3c4.8,0,7.3,2.9,7.3,6c0,1.7-1,2.9-2.6,2.9c-1,0-2.8-0.6-2.8-2.6
		c0-2.2,0.6-2.2,0.6-3.2c-0.3-1.5-1-1.9-2.6-1.9c-2.8,0-5.5,2.8-5.5,10.6c0,6.3,2.3,10.6,6.2,10.6c3.2,0,5.2-1.6,6.6-4.6l1.1,0.8
		c-1.7,3.4-5.1,6.2-8.8,6.2C37.5,91.9,34.1,86.6,34.1,79.5z"/>
	<path class="st0" d="M55.9,58.1c0-1.7,1.3-3.2,3.1-3.2c1.9,0,3.2,1.4,3.2,3.1c0,1.8-1.3,3.3-3.2,3.3C57.3,61.2,55.9,59.8,55.9,58.1
		z M53.7,90.3c0.9-0.1,1.5-0.2,2.1-0.4c0.9-0.3,1.2-1.3,1.2-2.3V72.7c-0.1-1-0.5-2-1.2-2.6c-0.6-0.4-2-1-2.9-1v-1l8.4-0.6l0.3,0.4
		v19.4c0,1,0.5,2,1.2,2.4c0.8,0.4,1.5,0.6,2.1,0.7v1H53.7V90.3z"/>
	<path class="st0" d="M79,76.3c0-3.7-0.8-8-4-8c-2.8,0-4.8,3.2-5,8.1L79,76.3z M65,79.4c0-6.2,3.7-12.2,10.1-12.2
		c6.5,0,8.9,4.7,8.9,9.9v0.5H70v0.6c0,6.7,1.9,11.5,6.8,11.5c3.5,0,4.8-1.4,6.5-4.6l1,0.7c-1.6,3.7-4.8,6.3-8.8,6.3
		C68.2,91.9,65,86.2,65,79.4z"/>
	<path class="st0" d="M84.2,90.3c0.9-0.1,1.5-0.2,2.1-0.4c0.9-0.3,1.2-1.1,1.2-2.3V72.7c-0.1-1-0.5-2.2-1.2-2.8
		c-0.5-0.4-1.5-0.8-2.4-0.9v-1l8-0.6l0.4,0.4v3.5c1.8-1.9,3.6-4.3,7.5-4.3c4.3,0,6.3,3.2,6.3,8.2v11.9c0,1.1,0.4,1.9,1.2,2.3
		c0.7,0.3,1.2,0.5,2.2,0.6v1H98.1v-1c0.8-0.1,1.6-0.2,2.2-0.4c0.9-0.3,1.2-1.1,1.2-2.3V75.3c0-3.5-1.7-5.5-3.7-5.5
		c-3.3,0-5.1,2.2-5.5,3.3v14.2c0,1.1,0.4,1.9,1.2,2.3c0.6,0.4,1.4,0.6,2.2,0.7v1H84.2V90.3z"/>
	<path class="st0" d="M108.6,79.5c0-6.4,4-12.3,10.7-12.3c4.8,0,7.3,2.9,7.3,6c0,1.7-1,2.9-2.6,2.9c-1,0-2.8-0.6-2.8-2.6
		c0-2.2,0.6-2.2,0.6-3.2c-0.3-1.5-1-1.9-2.6-1.9c-2.8,0-5.5,2.8-5.5,10.6c0,6.3,2.3,10.6,6.2,10.6c3.2,0,5.2-1.6,6.6-4.6l1.1,0.8
		c-1.7,3.4-5.1,6.2-8.8,6.2C112.1,91.9,108.6,86.6,108.6,79.5z"/>
	<path class="st0" d="M141.7,76.3c0-3.7-0.8-8-4-8c-2.8,0-4.8,3.2-5,8.1L141.7,76.3z M127.7,79.4c0-6.2,3.7-12.2,10.1-12.2
		c6.5,0,8.9,4.7,8.9,9.9v0.5h-13.9v0.6c0,6.7,1.9,11.5,6.8,11.5c3.5,0,4.8-1.4,6.5-4.6l1,0.7c-1.6,3.7-4.8,6.3-8.8,6.3
		C131.1,91.9,127.7,86.2,127.7,79.4z"/>
</g>
</svg>
