<?xml version="1.0" encoding="utf-8"?>
<!-- Generator: Adobe Illustrator 26.2.1, SVG Export Plug-In . SVG Version: 6.00 Build 0)  -->
<svg version="1.1" id="Layer_1" xmlns="http://www.w3.org/2000/svg" xmlns:xlink="http://www.w3.org/1999/xlink" x="0px" y="0px"
	 viewBox="0 0 400 400" style="enable-background:new 0 0 400 400;" xml:space="preserve">
<style type="text/css">
	.st0{fill:#C72729;}
</style>
<g>
	<path class="st0" d="M390,234.6c-1.9,2.9-3.6,6-6,8.6c-11.8,13-34.3,10-42.1-4.8c-7.9-14.9-7.9-30.1,1.4-44.4
		c7.6-11.7,21-13.6,32-9.2c7.8,3.2,11.5,9.8,13,17.7c0.5,2.4,0.5,4.8,0.8,7.2c0.2,1.6-0.4,2-2,2c-11.4-0.1-22.8,0-34.2-0.1
		c-2,0-2.5,0.6-2.4,2.5c0.2,6.9,0.8,13.8,3.6,20.2c4.5,10.3,13.3,12.2,22.3,9.5c2.9-0.9,5-2.9,6.8-5.3c0.9-1.2,1.8-2.5,2.6-3.9
		c1.6-2.5,1.5-2.6,4.1-0.9C390,234,390,234.3,390,234.6z M362.9,208.4c0-0.1,0-0.1,0-0.2c3.6,0,7.2,0,10.8,0c1.2,0,1.7-0.4,1.6-1.6
		c-0.2-1.8-0.2-3.6-0.4-5.5c-0.4-3.6-1.1-7.1-2.9-10.2c-1.6-2.7-3.8-4.5-7.1-4.7c-4.6-0.3-7.7,2.2-10,5.8c-3,4.6-3.8,9.9-4.3,15.2
		c-0.1,1.3,0.7,1.2,1.6,1.2C355.8,208.4,359.3,208.4,362.9,208.4z"/>
	<path class="st0" d="M60.4,156.3c0.9-1.3,1.9-2.5,2.4-3.8c1.1-2.9,3.4-2.6,5.7-2.5c1.2,0,1,0.9,1,1.6c0.2,7.2,0.3,14.5,0.5,21.7
		c0.1,2.4,0.2,4.9,0.2,7.3c0,0.7,0.7,2-0.7,2.1c-1.2,0.1-2.4,0.5-3-1.3c-1.6-5.2-3.6-10.2-6.5-14.8c-3.9-6.3-9.2-10.7-16.7-12.1
		c-3.9-0.7-7.8-0.8-11.5,1.2c-6,3.3-8.6,9.6-7.2,17.2c0.9,4.5,3.2,8,6.7,10.8c4.6,3.7,10,6.2,15.5,8.3c5.3,2,10.3,4.3,15.1,7.3
		c9.8,6,13.1,15,11.9,26c-1.9,17.1-16.2,27.5-33.8,26.2c-6.9-0.5-13.3-2.2-19-6.3c-0.9-0.6-1.1-0.2-1.5,0.4c-1,1.5-2,2.9-2.9,4.4
		c-0.5,0.7-1,1.2-2,1.1c-4.2-0.2-3.6,0.9-3.7-3.6c-0.3-9.4-0.5-18.8-0.7-28.2c0-0.7-0.7-1.9,0.9-2c1.2,0,2.2-0.2,2.8,1.4
		c2.7,7.2,5.9,14.1,11.2,19.8c6.3,6.7,13.9,9.6,23.1,8.1c8.1-1.3,13.1-7.5,13.4-16.4c0.3-9.6-3.8-16.3-12.7-20.2
		c-6.8-3-13.7-5.8-20.5-8.8c-18.7-8.3-18.8-30.4-10.7-41c6.8-9,19-12.9,31-9.6C52.9,151.8,56.8,153.6,60.4,156.3z"/>
	<path class="st0" d="M238.4,194.1c2.2-2.1,4.1-4,6.2-5.9c5.4-4.8,11.8-6.5,18.9-5.1c7.6,1.5,11,7,12.6,14c0.6,2.6,0.8,5.2,0.8,7.8
		c0,10.9,0,21.8,0,32.7c0,5.6,1.8,7.8,7.4,8.7c0.9,0.2,1.9,0,1.9,1.5c0,1.3-0.3,1.7-1.7,1.7c-9.5-0.1-19,0-28.5,0
		c-0.9,0-1.8,0.1-1.7-1.3c0-1.1,0.1-1.9,1.5-1.8c0.1,0,0.1,0,0.2,0c6.7-0.9,7.9-2.2,7.9-9c0-10.6,0-21.2,0-31.9
		c0-2.6-0.3-5.3-1.1-7.8c-2.1-6.4-6.7-9-13.2-7.4c-3.7,0.9-6.7,2.8-9.1,5.7c-1.3,1.6-2,3.3-2,5.5c0.1,11.9,0,23.8,0,35.7
		c0,5.6,2,8,7.5,8.9c1.5,0.2,1.8,0.8,1.8,2.2c-0.1,1.8-1.4,1-2.1,1c-9.2,0.1-18.4,0-27.7,0c-0.9,0-1.9,0.4-1.9-1.3
		c0-1.3,0.4-1.9,1.7-1.9c0.5,0,1.1-0.1,1.6-0.2c4.4-0.7,6.1-2.6,6.1-7.1c0-13.5,0-26.9,0-40.4c0-5.9-2.8-9.3-8.7-10.4
		c-1.4-0.3-1.3-1-1.3-2c-0.1-1.3,0.8-1.2,1.6-1.3c6.3-0.4,12.6-0.8,18.8-1.3c1.9-0.1,2.6,0.5,2.5,2.4
		C238.3,188.8,238.4,191.4,238.4,194.1z"/>
	<path class="st0" d="M196,211.7c-5.8,0-11.7,0-17.5,0c-0.6,0-1.6-0.4-1.6,0.9c0.1,8.4,0.7,16.6,4.8,24.2c5.8,10.9,22.3,10.4,28,1.7
		c1.1-1.7,2.2-3.4,3.3-5.1c0.3-0.5,0.4-1.7,1.5-0.8c0.7,0.6,2.3,0.7,1.4,2.5c-2.6,5.1-6.1,9.3-10.9,12.5
		c-10.3,6.8-31.2,5.5-38.6-12.9c-5.5-13.9-5.3-27.7,3.1-40.5c8.7-13.2,23.8-13.7,33.5-8.8c7.1,3.5,10.3,9.9,11.7,17.3
		c0.5,2.4,0.6,4.8,0.7,7.3c0.1,1.3-0.4,1.7-1.7,1.7C207.8,211.6,201.9,211.7,196,211.7z M189.1,208.4c0-0.1,0-0.1,0-0.2
		c2.5,0,5,0,7.5,0c5,0,5,0,4.7-5.1c-0.3-4.1-0.9-8.2-2.9-11.9c-3-5.5-9.2-6.8-14.1-2.9c-1.1,0.9-2.1,1.9-2.9,3.1
		c-3.1,4.6-4.1,9.9-4.6,15.3c-0.1,1.4,0.4,1.7,1.7,1.6C182.1,208.3,185.6,208.4,189.1,208.4z"/>
	<path class="st0" d="M91.8,214.8c-0.1,6.7,0.6,12.9,3,18.8c2.2,5.5,5.6,10.1,11.9,11c6.7,1,12.4-1.1,16.8-6.4
		c1.1-1.4,1.9-2.9,3-4.3c0.4-0.5,0.2-2.4,1.8-1.2c1,0.7,2.5,1,1.3,3c-4.5,7.4-10.3,13.2-19,15.1c-11.9,2.7-24-2.9-28.8-14
		c-6.6-15-6.5-29.9,3.6-43.6c7.7-10.4,22.5-13.6,33.4-7.8c6.2,3.3,9.6,10.5,8.1,16.7c-1,3.9-4.1,5.9-8.3,5.3
		c-3.9-0.5-6.3-3.2-6.4-7.1c0-2.3,0.3-4.4,1.1-6.5c1.5-3.9-0.6-7.1-4.8-7.4c-4.6-0.4-8.3,1.3-11.1,5c-3.2,4.4-4.4,9.5-5.1,14.8
		C91.9,209.1,91.7,212.1,91.8,214.8z"/>
	<path class="st0" d="M298,214.4c-0.1,7.7,0.7,14.4,3.7,20.7c5.5,11.6,19.5,13.3,27.8,3.4c1.4-1.6,2.5-3.4,3.5-5.2
		c0.3-0.5,0.4-1.6,1.3-0.8c0.7,0.7,2.5,0.7,1.9,2.4c-3.8,10.3-17.6,17.9-28.8,16.1c-10-1.6-17-7.1-20.4-16.5
		c-5-13.7-4.9-27.2,3.4-39.8c7.1-10.7,20.7-15,32.2-10.5c7.6,2.9,12.1,10.4,10.5,17.6c-0.9,4-3.8,6-8.1,5.6
		c-3.9-0.4-6.5-3.1-6.6-6.9c-0.1-2.3,0.3-4.6,1.1-6.7c1.5-3.9-0.6-7.1-4.7-7.4c-4.6-0.4-8.2,1.2-11,4.8c-3.3,4.4-4.5,9.6-5.2,14.9
		C298.1,209.1,297.9,212.1,298,214.4z"/>
	<path class="st0" d="M154.1,212.3c0,8,0,16.1,0,24.1c0,6.4,1.7,8.5,8,9.9c1,0.2,1.4,0.6,1.5,1.7c0,1.3-0.4,1.6-1.6,1.6
		c-9.6-0.1-19.1,0-28.7,0c-0.9,0-1.6,0.1-1.5-1.2c0.1-1-0.1-1.9,1.4-1.9c0.9,0,1.8-0.2,2.6-0.4c3.9-0.9,5.4-2.7,5.4-6.6
		c0-9.5,0-19.1,0-28.6c0-3.9,0-7.7,0-11.6c0-5.7-2-8.4-7.3-10.2c-1-0.3-1.9-0.7-2.9-0.8c-1.2-0.1-1.1-0.9-1.1-1.7
		c-0.1-1,0.3-1.3,1.2-1.4c7.1-0.4,14.2-0.9,21.3-1.4c1.7-0.1,1.9,0.9,1.9,2.2c0,6.6,0,13.1,0,19.7
		C154.1,207.9,154.1,210.1,154.1,212.3z"/>
	<path class="st0" d="M155.4,157c0,5.3-3.8,9.4-8.8,9.4c-4.7,0-8.6-3.9-8.7-8.7c-0.1-5,3.8-9.1,8.6-9.2
		C151.7,148.5,155.4,152,155.4,157z"/>
</g>
</svg>
