<?xml version="1.0" encoding="utf-8"?>
<!-- Generator: Adobe Illustrator 26.2.1, SVG Export Plug-In . SVG Version: 6.00 Build 0)  -->
<svg version="1.1" id="Layer_1" xmlns="http://www.w3.org/2000/svg" xmlns:xlink="http://www.w3.org/1999/xlink" x="0px" y="0px"
	 viewBox="0 0 400 400" style="enable-background:new 0 0 400 400;" xml:space="preserve">
<style type="text/css">
	.st0{fill:#080808;}
	.st1{fill:#C8282A;}
</style>
<g>
	<g>
		<path class="st0" d="M390,228.8c-3,0.8-4.6,2.8-5.6,5.6c-4,11.4-8.1,22.8-12.8,33.9c-1.3,3.1-2.8,6.1-5.2,8.5
			c-1.8,1.8-4,2.6-6.5,2.5c-4.2-0.2-6.6-4.7-4.4-8.3c1-1.6,2.4-2.5,4.4-2.1c2,0.4,2.7,1.8,2.9,3.6c0.1,0.7,0,1.5,0,2.2
			c0.8,0.3,1.2-0.3,1.6-0.7c0.7-0.7,1.4-1.5,2-2.3c2.9-4,4.3-7.8,1.9-13c-3.6-8.1-6.3-16.6-9.2-25c-0.8-2.3-2.2-4-4.6-4.6
			c-1.4-0.4-1.3-1.2-1.3-2.3c0-1.4,1-0.9,1.7-1c4.3,0,8.6,0,12.9,0c0.8,0,1.7-0.1,1.5,1.2c-0.1,0.9,0.2,1.8-1.3,2
			c-2.9,0.4-3.1,0.8-2.1,3.6c2.5,7.2,5,14.3,7.6,21.8c1.9-4.3,3.2-8.5,4.6-12.6c0.9-2.5,1.8-5.1,2.6-7.6c1.1-3.3,0.8-3.9-2.6-5.2
			c-0.5-0.2-1.5,0-1.5-0.9c-0.1-1.1-0.5-2.3,1.6-2.3c3.9,0,7.9,0.3,11.8-0.2C390,226.7,390,227.7,390,228.8z"/>
		<path class="st0" d="M106.8,231.4c3.4-3.2,6.4-6.4,11.3-6.5c5-0.1,8,2.7,9.7,6.6c1.3-1.1,2.6-2.3,3.9-3.5c2.6-2.3,5.6-3.4,9-3.1
			c3.5,0.3,5.9,2.1,7.2,5.2c1.1,2.4,1.4,5,1.4,7.7c0,6.5,0,13,0,19.5c0,3.5,0.7,4.5,4.1,5.1c1.5,0.2,1.2,1,1.3,1.9
			c0.1,1.4-0.9,1.1-1.6,1.1c-4.7,0-9.4,0-14,0c-0.8,0-1.7,0.2-1.6-1.1c0.1-1-0.1-1.7,1.4-1.8c2.8-0.2,3.7-1.2,3.7-4.1
			c0-6.8,0-13.6,0-20.4c0-0.4,0-0.7-0.1-1.1c-0.5-4.7-2.7-7.2-6.2-7c-4.2,0.2-8,4.1-8,8c0,6.5,0,13,0,19.5c0,3.3,0.7,4.4,4,5
			c1.4,0.3,1.3,1,1.3,2c0,1.4-1,1-1.7,1c-4.6,0-9.2,0-13.8,0c-0.8,0-1.7,0.2-1.6-1.1c0.1-1-0.1-1.7,1.4-1.8c2.7-0.2,3.5-1.3,3.5-4
			c0-6.9,0-13.9,0-20.8c0-3.1-0.8-6-4-7.4c-2.5-1.1-6.1,0.3-8.5,3.2c-1.2,1.4-1.9,3-1.8,5c0.1,6.4,0,12.7,0,19.1c0,3.2,0.8,4.4,4,5
			c1.5,0.3,1.3,1,1.3,2c0,1.3-0.9,1-1.7,1c-10.5,0-20.9,0-31.4,0c-0.7,0-1.7,0.3-1.7-1c0-1.1,0.4-1.6,1.5-1.9
			c3.3-0.8,3.6-1.2,3.6-4.7c0-6.5,0-13,0-19.5c0-1.1-0.1-2.2-0.4-3.3c-1.3-5.2-5.4-6.8-9.9-3.9c-2.6,1.7-4.2,3.9-4.1,7.4
			c0.2,6.3,0.1,12.6,0.1,18.9c0,3.2,0.7,4.3,3.8,4.9c1.4,0.3,1.3,0.9,1.4,1.9c0.1,1.3-0.8,1.1-1.6,1.1c-4.6,0-9.2,0-13.8,0
			c-1,0-1.7,0-1.7-1.3c0-1,0.2-1.5,1.4-1.6c2.7-0.3,3.6-1.4,3.7-4.2c0-6.7,0-13.3,0-20c0-1-0.2-2-0.4-3c-1.1-5.2-5.3-7-9.7-4.1
			c-2.7,1.8-4.5,4.1-4.4,7.7c0.2,6.1,0.1,12.3,0.1,18.4c0,3.2,0.9,4.5,3.9,5.1c1.4,0.3,1.3,0.9,1.4,1.9c0.1,1.3-0.8,1.1-1.6,1.1
			c-4.7,0-9.4,0-14,0c-0.8,0-1.6,0.2-1.6-1.1c0.1-1-0.1-1.7,1.4-1.8c2.9-0.2,3.8-1.3,3.8-4.2c0-7.8,0-15.6,0-23.5
			c0-3-1.3-4.6-4.4-5.4c-1.2-0.3-1.2-0.8-1.3-1.8c-0.1-1.2,0.7-1.2,1.5-1.3c3.1-0.2,6.1-0.4,9.2-0.7c1.3-0.1,1.7,0.4,1.6,1.6
			c-0.1,1.4,0,2.9,0,5c3.2-3.9,6.2-7,11-7.2c5-0.2,8.1,2.4,10,7c1.1-1.2,2.1-2.3,3.2-3.3c2.1-2.2,4.7-3.5,7.7-3.7
			c5.8-0.4,9.6,3,10.3,9.5c0.6,5.2,0.2,10.5,0.3,15.8c0,2.8,0,5.6,0.1,8.3c0,2,1,3.2,3,3.7c1.5,0.4,2.9,0.4,4.3,0.2
			c2.4-0.4,3.3-1.3,3.4-3.8c0.1-8.1,0.1-16.2,0-24.3c0-2.7-1.3-4.2-4.1-4.9c-1.2-0.3-1.7-0.7-1.6-2c0.1-1.5,1.2-1.1,2-1.1
			c3-0.3,6-0.5,8.9-0.7c1.1-0.1,1.5,0.2,1.4,1.3C106.8,228.3,106.8,229.9,106.8,231.4z"/>
		<path class="st0" d="M203.7,231.7c3-3.1,5.5-5.9,9.4-6.6c6.3-1.2,11,1.9,12.1,8.2c0.3,1.6,0.4,3.3,0.4,5c0,6.4,0,12.7,0,19.1
			c0,3.2,0.6,4.2,3.8,4.9c1.4,0.3,1.5,0.9,1.5,2.1c-0.1,1.4-1,1-1.7,1c-4.8,0-9.5,0-14.3,0c-1,0-1.6-0.1-1.6-1.4
			c0-1.1,0.2-1.5,1.4-1.5c3-0.2,3.9-1.3,3.9-4.3c0-6.7,0-13.5,0-20.2c0-0.6,0-1.2-0.1-1.8c-0.8-5.8-5.5-8.2-10.5-5.2
			c-2.8,1.7-4.7,3.9-4.5,7.6c0.3,6.1,0.1,12.3,0.1,18.4c0,3.4,0.7,4.5,4,5.2c1.4,0.3,1.5,1,1.4,2c0,1.6-1.2,1-1.9,1
			c-3.9,0-7.8,0.1-11.6,0c-1.4-0.1-3.2,1-4.2-1c0-0.1-0.6,0.2-1,0.2c-3.3,0.3-6.6,0.5-9.8,0.8c-1.1,0.1-1.5-0.3-1.4-1.3
			c0-1.3,0-2.6,0-4.5c-0.9,1-1.6,1.7-2.2,2.4c-2.9,3.2-6.5,4.6-10.8,4.2c-3.5-0.3-5.8-2.2-7.1-5.3c-1.1-2.5-1.4-5.2-1.4-7.9
			c0-5.8,0-11.7,0-17.5c0-3.8-0.9-5.2-4.5-6.1c-1.2-0.3-1-0.9-1.1-1.7c-0.1-1,0.5-1.2,1.3-1.3c3.1-0.2,6.1-0.4,9.2-0.8
			c1.7-0.2,2,0.4,2,1.9c-0.1,5.3,0,10.5,0,15.8c0,3.9,0,7.7,0.1,11.6c0.1,2.8,1.1,5.5,4,6.5c3,1.1,5.6-0.2,7.7-2.3
			c1.9-1.8,2.9-3.8,2.8-6.6c-0.2-5.6-0.1-11.3-0.1-16.9c0-4.6-1-5.8-5.5-6.4c-0.9-0.1-1.2-0.4-1.2-1.3c0-0.9,0.2-1.5,1.3-1.6
			c3.6-0.2,7.3-0.6,10.9-0.8c1.6-0.1,1.2,1.1,1.2,2c0,9.4,0,18.9,0,28.3c0,1.4,0.1,2.8,0.9,4c1.4,2.2,6.3,3.5,8.6,2.2
			c1.5-0.8,1.7-2.3,1.7-3.8c0-3.7,0-7.3,0-11c0-3.9,0-7.7,0-11.6c0-4.1-0.8-5.2-4.7-6.4c-1.1-0.3-0.8-1-0.9-1.7
			c-0.1-0.8,0.2-1.2,1.1-1.3c3.3-0.2,6.6-0.4,9.8-0.7c1.1-0.1,1.4,0.4,1.4,1.4C203.7,228.3,203.7,229.8,203.7,231.7z"/>
		<path class="st0" d="M325.2,261c-3.6-1.5-6.9-2.6-6.8-6.9c0.1-3.6,2.7-4.9,5.5-6.2c-0.3-0.2-0.5-0.4-0.7-0.5
			c-5.3-3.1-7.6-8.1-6.2-13.6c1.3-5.1,6.2-8.7,11.9-9c3.1-0.1,6.1,0.6,8.9,1.9c1.1,0.5,1.9,0.6,3-0.2c1.9-1.4,4.1-1.8,6.4-1.7
			c1.9,0.1,2.9,1.4,3.3,3c0.4,1.8,0.3,3.7-1.5,4.9c-2,1.3-4.2,0.1-4.6-2.4c-0.1-0.7,0.3-1.8-0.8-2c-1.1-0.2-2.2,0.2-3.1,0.9
			c-0.9,0.7,0,1.1,0.3,1.6c4.3,7.7,0.6,16-8,17.9c-1.8,0.4-3.6,0.2-5.5,0.2c-2.1,0.1-3.7,1.2-3.8,2.8c-0.1,1.7,1.1,3.1,3.4,3.3
			c3.6,0.3,7.3,0.4,10.9,0.6c5.6,0.3,9.4,2.9,10.6,7.5c1.4,5.2-0.6,10.1-5.4,13c-5.1,3.1-10.7,3.5-16.5,2.9
			c-2.5-0.2-4.9-0.7-7.1-1.9c-3.5-1.8-5.2-4.9-4.8-8.6c0.4-3.5,2.8-5.9,6.7-6.8C322.3,261.4,323.4,261.3,325.2,261z M332.9,262.4
			c-3-0.2-6-0.5-8.7,1.1c-2.4,1.4-3.5,3.5-3.5,6.1c0,2.4,1.7,3.8,3.7,4.7c3.5,1.7,7.3,1.8,11.1,1c2.4-0.5,4.6-1.6,6-3.7
			c2.9-4.3,0.9-8.7-4.2-9.1C335.8,262.5,334.4,262.4,332.9,262.4z M335.6,237c0.1-2.3-0.3-4.5-1.6-6.5c-1.1-1.8-2.9-2.5-4.9-2.4
			c-2.1,0.1-3.9,1-4.7,3.1c-1.6,4.2-1.6,8.3,0.6,12.3c2,3.5,6.6,3.5,8.9,0.1C335.3,241.5,335.7,239.3,335.6,237z"/>
		<path class="st0" d="M21.6,265.4c-3.4,0-6.7-0.1-10.1,0c-1.2,0-1.5-0.4-1.4-1.5c0.1-0.9-0.2-2,1.4-1.8c0.7,0.1,1.5,0,2.2-0.1
			c3-0.4,4.1-1.7,4.1-4.6c0-13.3,0-26.6,0-39.9c0-5.2-0.8-6.1-5.9-7.1c-1-0.2-1.8-0.2-1.8-1.6c0-1.5,0.4-1.9,2-1.9
			c6.6,0.1,13.2,0,19.7,0c0.9,0,1.9-0.3,1.8,1.3c-0.1,1.2,0,2.2-1.6,2.1c-0.6,0-1.3,0.1-2,0.2c-3.4,0.7-4.2,1.6-4.2,5
			c0,13.6,0,27.2,0,40.8c0,3.8,1.3,5.1,6,5.6c1.6,0.2,1.8,0.7,1.8,2.1c0,1.9-1.3,1.2-2.1,1.2C28.1,265.4,24.9,265.4,21.6,265.4z"/>
		<path class="st0" d="M265,244.8c-0.1,5.3-1,10-3.7,14.2c-6.2,9.7-19.5,10-26.2,0.6c-5.4-7.6-5.5-20.5-0.1-28.1
			c6.8-9.6,21.4-8.8,27.1,1.6C264.3,236.9,265,241,265,244.8z M257.6,245.1c-0.1-3.8-0.3-7.9-2-11.7c-1.4-3.1-3.6-5.4-7.3-5.4
			c-3.7,0-6.3,2-7.5,5.3c-3.1,8.2-3,16.5,0.3,24.7c1.3,3.1,3.6,5.2,7.2,5.1c3.5-0.1,5.5-2.3,6.9-5.2
			C257.1,254,257.4,249.7,257.6,245.1z"/>
		<path class="st0" d="M280.6,245.6c-0.1-4.2,0.6-8.3,2.7-12c3.1-5.8,7.9-8.8,14.5-8.8c6.6,0,11.4,3.2,14.1,9
			c3.9,8.3,3.7,16.8-0.9,24.8c-5.9,10.2-19.7,10.6-26.5,0.9C281.6,255.3,280.4,250.7,280.6,245.6z M288.1,245.1
			c-0.1,4.3,0.3,8.6,2.1,12.6c1.4,3.2,3.7,5.5,7.4,5.5c3.7,0,5.7-2.5,7.1-5.6c1.3-3,1.9-6.1,2-9.3c0.3-5.3,0.1-10.5-2.2-15.4
			c-1.4-3-3.8-4.9-7.2-4.9c-3.4,0-5.7,1.9-7.1,4.9C288.4,236.8,288,240.9,288.1,245.1z"/>
		<path class="st0" d="M276.2,234.2c0,7.7,0,15.4,0,23c0,3.4,0.6,4.4,3.8,5.1c1.4,0.3,1.3,1.1,1.3,2c0,1.3-0.9,1-1.7,1
			c-4.6,0-9.2,0-13.8,0c-0.9,0-1.7,0-1.7-1.3c0-1,0.2-1.5,1.4-1.6c3.2-0.4,3.9-1.3,3.9-4.6c0-12.9,0-25.7,0-38.6
			c0-4.9-1-6.2-5.8-7.1c-1.3-0.2-1.2-0.9-1.3-1.8c-0.1-1.2,0.6-1.3,1.5-1.3c3.4-0.2,6.7-0.4,10-0.8c1.8-0.2,2.3,0.4,2.3,2.1
			C276.2,218.3,276.2,226.3,276.2,234.2z"/>
	</g>
	<g>
		<path class="st1" d="M10,168.1c1.8-0.3,2.5,0.7,3.1,2.2c1.9,5.1,4.4,9.9,8.4,13.7c4,3.8,8.7,5.3,14.1,4.6
			c6.8-0.9,10.8-6.6,9.8-13.9c-0.7-5.6-3.8-9.3-8.9-11.5c-5-2.2-10.1-4.2-15-6.6c-6.7-3.4-9.8-9.1-9.8-16.6c0-7.3,3.1-12.9,9.5-16.3
			c7.3-3.9,14.6-2.9,21.5,1.2c1.8,1.1,2.4,0.7,3.2-0.9c0.2-0.5,0.6-1,0.9-1.5c0.8-1.5,2.2-0.9,3.3-0.8c1.2,0.1,0.7,1.3,0.7,2
			c0.2,6.2,0.3,12.4,0.4,18.6c0,0.7,0.6,1.8-0.9,2c-1.3,0.2-1.5-0.7-1.9-1.6c-1.9-5.2-3.8-10.3-8-14.1c-3.9-3.5-8.6-5-13.6-3.8
			c-7.7,1.9-9.9,12.3-4,18.6c2.8,2.9,6.3,4.7,9.9,6.3c3.8,1.6,7.8,3,11.4,5.1c7.9,4.7,11.1,11.2,9.6,20c-1.5,8.6-7.6,15-16,16.5
			c-6.9,1.3-13.6,0.4-19.6-3.4c-1.3-0.8-1.6-0.4-2.3,0.6c-0.9,1.3-1.3,3.4-3.7,3.1c-1.2-0.1-1.6-0.4-1.7-1.6c-0.1-1.5,0.5-3-0.4-4.4
			C10,179.8,10,173.9,10,168.1z"/>
		<path class="st1" d="M106.2,120.7c2.5,1.5,4.3,3.3,4,6.6c-0.3,2.9-2.3,5.2-4.9,5.7c-2.9,0.5-5.6-1-6.7-3.7c-1-2.6-0.2-5.8,2.1-7.4
			c0.5-0.4,1-0.7,1.6-1.1C103.5,120.7,104.9,120.7,106.2,120.7z"/>
		<path class="st1" d="M167.5,152.1c1.5-1.5,2.7-2.6,3.8-3.7c3.7-3.5,8.2-4.7,13.2-3.9c4.9,0.8,8.3,4.9,9.1,10.7
			c0.2,1.8,0.4,3.6,0.4,5.5c0,7.2,0,14.5,0,21.7c0,3.6,1.1,5,4.6,5.8c0.9,0.2,1.8,0.1,1.7,1.4c-0.1,1.4-1.2,0.9-1.8,0.9
			c-6.1,0-12.1,0-18.2,0c-0.7,0-1.7,0.5-1.8-0.9c-0.1-1.4,0.9-1.2,1.7-1.4c3.7-0.5,4.7-1.6,4.7-5.3c0-7.7,0-15.5,0-23.2
			c0-2-0.3-3.9-1-5.8c-1.5-3.7-4.1-5.1-8-4.4c-5.4,0.9-8.3,4.3-8.3,9.6c0,7.6,0,15.2,0,22.8c0,4,1.1,5.4,4.9,6.2
			c0.9,0.2,1.5,0.4,1.4,1.5c-0.1,1.3-1,0.8-1.6,0.8c-6.2,0-12.4,0-18.7,0c-0.6,0-1.5,0.4-1.6-0.8c-0.1-1.1,0.6-1.3,1.5-1.4
			c4.3-0.6,5.1-1.6,5.1-5.8c0-8.8,0-17.5,0-26.3c0-4.7-1.3-6.5-5.9-7.9c-0.7-0.2-1.1-0.5-1.1-1.3c0-0.9,0.6-0.9,1.2-0.9
			c4.4-0.3,8.9-0.7,13.3-1c1.2-0.1,1.5,0.6,1.5,1.6C167.5,148.3,167.5,150,167.5,152.1z"/>
		<path class="st1" d="M258,164.4c-3.9,0-7.8,0-11.6,0c-1,0-1.7,0.1-1.7,1.4c0.2,4.5,0.4,8.9,2,13.1c2.5,6.6,7.2,9.3,14.1,8.1
			c3.9-0.7,6.1-3.4,8.1-6.5c0.4-0.7,0.3-2.4,1.9-1.5c1.8,0.9,0.5,2,0,2.9c-3.9,6.7-9.6,10.5-17.6,9.9c-8.1-0.6-13.6-5-16.3-12.6
			c-3.4-9.8-3-19.3,3.4-27.9c6.3-8.5,19.4-9.4,26.2-2.1c3.7,4,4.6,9,4.7,14.2c0,1.4-0.9,1-1.7,1.1
			C265.8,164.4,261.9,164.4,258,164.4z M253.1,162c0,0,0-0.1,0-0.1c2.4,0,4.8,0,7.2,0c1,0,1.4-0.3,1.4-1.4c-0.1-3.1-0.4-6.3-1.6-9.2
			c-2.3-5.5-8-6.3-11.7-1.5c-2.5,3.2-3.3,7-3.5,11c-0.1,1,0.4,1.2,1.2,1.2C248.4,162,250.8,162,253.1,162z"/>
		<path class="st1" d="M134.9,144.3c12,0,16.7,9.1,16.6,18.9c0,1.5-1,1.2-1.8,1.2c-7.5,0-15.1,0.1-22.6,0c-1.7,0-2.2,0.4-2.1,2.2
			c0.2,4.3,0.6,8.6,2.2,12.7c1.8,4.6,4.8,7.7,9.9,8.1c5,0.4,9-1.6,11.6-6c0.3-0.6,0.7-1.1,1-1.7c0.3-0.5,0.4-1.4,1.4-0.7
			c0.7,0.5,1.2,0.9,0.7,1.9c-3.3,6.1-7.9,10.4-15.1,10.9c-7.3,0.6-13.4-2-17.4-8.3c-5.5-8.6-5.3-22.6,0.4-31
			C123.4,146.9,128.5,144.2,134.9,144.3z M133.3,162c0,0,0-0.1,0-0.1c2.4,0,4.8,0,7.2,0c1,0,1.5-0.2,1.5-1.3c-0.2-3-0.3-6-1.4-8.8
			c-1-2.6-2.5-4.7-5.5-5c-2.9-0.3-5.1,1.2-6.7,3.5c-2.2,3.1-2.9,6.8-3.3,10.5c-0.1,1.1,0.4,1.3,1.4,1.3C128.7,162,131,162,133.3,162
			z"/>
		<path class="st1" d="M208.5,167.7c-0.1,3.3,0.4,7.5,2,11.5c1.7,4.2,4.3,7.6,9.2,8c4.8,0.4,8.7-1.6,11.4-5.6c0.5-0.7,0.8-1.4,1.3-2
			c0.3-0.5,0.4-1.4,1.4-0.7c0.6,0.5,1.4,0.6,0.9,1.8c-2.9,7-11.9,12-19.4,10.9c-8.4-1.3-13.7-6.3-15.7-15.4
			c-2-8.8-1.2-17.3,4.6-24.7c5.5-7,15.7-9.3,23.1-5.2c4.1,2.3,6.4,6.9,5.5,11.2c-0.6,2.7-2.7,4.3-5.4,4c-2.9-0.3-4.8-2.2-4.9-5
			c0-1.5,0.2-3,0.7-4.5c1-2.8-0.4-4.9-3.4-5.2c-4-0.3-6.7,1.7-8.5,5C208.9,156.5,208.5,161.6,208.5,167.7z"/>
		<path class="st1" d="M56.5,168.2c0.1-7.8,2.3-14.7,8.6-19.8c5.4-4.4,11.7-5.2,18.2-3c4.9,1.6,7.7,6,7.5,10.9
			c-0.1,3.2-2.2,5.2-5.1,5.2c-3.2,0-5.3-2.1-5.4-5.4c0-1.5,0.3-2.9,0.8-4.3c0.9-2.7-0.4-4.6-3.1-5c-3.7-0.4-6.4,1.1-8.3,4.2
			c-2.4,3.8-2.9,8-3.3,12.4c-0.4,4.9-0.1,9.8,1.4,14.5c1.6,4.8,4.1,8.9,9.8,9.3c5.5,0.4,9.5-2.3,12.2-7c0.5-0.8,0.7-2.4,2.2-1
			c0.6,0.5,0.7,1,0.3,1.7c-3.2,5.7-9.5,11.3-17.5,10.9c-7.9-0.4-13.9-4.8-16.6-12.4C57,175.7,56.5,172,56.5,168.2z"/>
		<path class="st1" d="M109.3,164.9c0,5.6,0,11.2,0,16.9c0,3.9,1.1,5.4,4.9,6.4c0.9,0.2,1.7,0.2,1.6,1.5c-0.2,1.4-1.2,0.8-1.8,0.8
			c-6.1,0-12.1,0.1-18.2,0c-0.7,0-1.9,0.7-2-0.9c-0.1-1.4,0.9-1.2,1.7-1.3c3.5-0.4,4.8-1.8,4.8-5.5c0-8.8,0-17.7,0-26.5
			c0-4.5-1.6-6.6-6-7.9c-0.8-0.2-1.8,0.1-1.8-1.4c0-1.5,1.2-1,1.9-1.1c4.4-0.4,8.7-0.6,13.1-0.9c1.6-0.1,1.8,0.7,1.8,2
			C109.3,153,109.3,159,109.3,164.9z"/>
	</g>
</g>
</svg>
