<?xml version="1.0" encoding="utf-8"?>
<!-- Generator: Adobe Illustrator 26.2.1, SVG Export Plug-In . SVG Version: 6.00 Build 0)  -->
<svg version="1.1" id="Layer_1" xmlns="http://www.w3.org/2000/svg" xmlns:xlink="http://www.w3.org/1999/xlink" x="0px" y="0px"
	 viewBox="0 0 400 400" style="enable-background:new 0 0 400 400;" xml:space="preserve">
<style type="text/css">
	.st0{fill:#007DBD;}
</style>
<g>
	<g id="Protocols">
		<path class="st0" d="M23.1,269.5H10v-62h28.5c12,0,19.2,7.6,19.2,19.8c0,5.7-3.2,19.8-19.8,19.8H23.1L23.1,269.5L23.1,269.5z
			 M35.1,236.4c9.7,0,9.7-7,9.7-9.7c0-6.1-3.4-8.7-11.4-8.7H23.1v18.1h12V236.4z"/>
		<path class="st0" d="M342.1,269.5h-12v-62h12V269.5z"/>
		<path class="st0" d="M118.2,270.8c-12.2,0-23.4-7.6-23.4-24.3s11.2-24.1,23.4-24.1c12.4,0,23.4,7.6,23.4,24.3
			S130.7,270.8,118.2,270.8z M118.2,232.6c-9.3,0-11,8.2-11,13.9s1.7,13.9,11,13.9s11-8,11-13.9
			C129.2,240.6,127.5,232.6,118.2,232.6z"/>
		<path class="st0" d="M163.8,223.9h7.6v8.7h-7.6v25.1c0,2.7,0,3.8,5.1,3.8c0.8,0,1.7,0,2.5-0.2v9.1c-1.9,0-3.8,0.2-5.7,0.2h-1.5
			c-10.5,0-12.4-4-12.4-9.9v-28.1h-6.3v-8.7h6.3v-12.4h12V223.9z"/>
		<path class="st0" d="M271.8,252.8c-0.4,4.9-4.2,17.9-21.1,17.9c-17.3,0-21.3-13.3-21.3-23c0-15,6.5-25.5,22.2-25.5
			c7.2,0,19.2,3.4,20.3,17.7h-12.2c-0.6-3-2.5-7.8-8-7.4c-7.6,0-9.5,7.6-9.5,13.3c0,5.1,0.2,15,9.3,15c6.1,0,8.2-5.9,8.2-8H271.8z"
			/>
		<path class="st0" d="M376.7,237.4c-0.4-3-1.5-6.1-8.2-6.1c-6.5,0-7.4,2.5-7.4,4.4c0,7.2,28.9,1.9,28.9,19
			c0,13.5-12.9,15.8-20.3,15.8c-10.5,0-21.7-3.6-22.2-15.8H360c0,4,2.3,6.8,10.1,6.8c6.1,0,7.6-3,7.6-4.9c0-7.6-28.5-1.9-28.5-19.2
			c0-6.8,4.2-15.4,18.6-15.4c9.1,0,19.6,2.3,20.7,15.2L376.7,237.4z"/>
		<path class="st0" d="M200.7,270.8c-12.4,0-23.4-7.6-23.4-24.3s11-24.1,23.4-24.1c12.4,0,23.4,7.6,23.4,24.1S213,270.8,200.7,270.8
			z M200.7,232.6c-9.3,0-11,8.2-11,13.9s1.7,13.9,11,13.9c9.3,0,11-8,11-13.9C211.7,240.6,210,232.6,200.7,232.6z"/>
		<path class="st0" d="M300.3,270.8c-12.4,0-23.4-7.6-23.4-24.3s11.2-24.3,23.4-24.3s23.4,7.6,23.4,24.3S312.8,270.8,300.3,270.8z
			 M300.3,232.6c-9.3,0-11,8.2-11,13.9s1.7,13.9,11,13.9s11-8,11-13.9C311.3,240.6,309.8,232.6,300.3,232.6z"/>
		<path class="st0" d="M62.5,269.3h12v-23.6c0-5.1,1.7-10.8,11-10.8c1.1,0,2.3,0,3.4,0.2v-12.2c-0.8-0.2-1.5-0.2-2.3-0.2
			c-7.4,0-10.1,4.4-12.4,9.1h-0.2v-7.8H62.5V269.3z"/>
	</g>
	<g id="STAR">
		<path class="st0" d="M198.4,156.7c6.8,0,10.1-2.3,10.1-8.4c0-3.4-1.5-8.2-9.1-8.2h-16.2v16.7H198.4 M170.4,129.2H202
			c16.7,0,19.6,12.2,19.6,17.7c0,7-3.4,12.7-9.7,14.8c5.1,2.3,7.8,4.2,7.8,15.8c0,9.1,0,11.4,2.7,12.4v1.7h-14.3
			c-1.1-4.2-1.5-8.4-1.5-12.7c0-8.4-0.4-11.8-10.1-11.8H183v24.5h-12.7V129.2z"/>
		<path class="st0" d="M22.7,170.6c0,8,6.1,11,13.3,11c4.6,0,11.6-1.3,11.6-7.4c0-6.5-9.1-7.6-17.7-9.9s-17.7-5.7-17.7-16.9
			c0-12.2,11.4-18.1,22.4-18.1c12.4,0,24.1,5.5,24.1,19.2H45.9c-0.6-7.2-5.7-9.1-12-9.1c-4.2,0-9.1,1.9-9.1,7
			c0,4.6,2.7,5.3,17.9,9.1c4.4,1.1,17.7,3.8,17.7,17.5c0,11-8.7,19.2-24.9,19.2c-13.3-0.2-25.7-6.8-25.5-21.5H22.7"/>
		<polyline class="st0" points="95.7,191.5 82.8,191.5 82.8,140.2 64,140.2 64,129.2 114.7,129.2 114.7,140.2 95.7,140.2 
			95.7,191.5 		"/>
		<path class="st0" d="M127.9,167l8.4-23l8.7,23H127.9z M143.1,129.5h-13.3l-24.3,62.2h13.3l5.1-14.1h24.9l5.5,14.1H168L143.1,129.5
			z"/>
	</g>
</g>
</svg>
